/* XPM */
static char *_1881d32cfa749b399f3c7584a8f722cQ2XsyVM7QcTm1R6V[] = {
/* columns rows colors chars-per-pixel */
"80 80 256 2 ",
"   c #0B1E2C",
".  c #0A1D27",
"X  c #131B2E",
"o  c #0E1D32",
"O  c #0A1A35",
"+  c #131D34",
"@  c #151D3B",
"#  c #1B1E3C",
"$  c #181738",
"%  c #221D3E",
"&  c #05222A",
"*  c #0A212C",
"=  c #052126",
"-  c #0D2232",
";  c #0E2439",
":  c #122134",
">  c #15213B",
",  c #1B223D",
"<  c #1D293D",
"1  c #18232F",
"2  c #22233A",
"3  c #1D1E43",
"4  c #171845",
"5  c #221E45",
"6  c #241E4B",
"7  c #2B1E4B",
"8  c #2B1E53",
"9  c #2E1E5B",
"0  c #261F51",
"q  c #341E5A",
"w  c #311B4F",
"e  c #1D2243",
"r  c #1A2247",
"t  c #222245",
"y  c #24224A",
"u  c #2A234D",
"i  c #272649",
"p  c #252151",
"a  c #2C2254",
"s  c #2C2458",
"d  c #34225B",
"f  c #36285A",
"g  c #362A53",
"h  c #391E63",
"j  c #310376",
"k  c #362262",
"l  c #3B2364",
"z  c #3D2B63",
"x  c #3C226A",
"c  c #372666",
"v  c #3E2372",
"b  c #1E0077",
"n  c #481D75",
"m  c #481B70",
"M  c #422566",
"N  c #43236C",
"B  c #442A6C",
"V  c #48286A",
"C  c #452472",
"Z  c #4C2574",
"A  c #4B2B73",
"S  c #4C2779",
"D  c #532B7B",
"F  c #55277A",
"G  c #58327B",
"H  c #4B316F",
"J  c #542D6F",
"K  c #290189",
"L  c #370088",
"P  c #2A0093",
"I  c #370298",
"U  c #3B02A7",
"Y  c #3A02B6",
"T  c #2A01AB",
"R  c #1D009E",
"E  c #53029C",
"W  c #4D0E90",
"Q  c #5C2C84",
"!  c #592786",
"~  c #5D3285",
"^  c #56288E",
"/  c #64298A",
"(  c #653489",
")  c #642A92",
"_  c #6A2995",
"`  c #73299C",
"'  c #6B3596",
"]  c #753999",
"[  c #763A8C",
"{  c #4603A9",
"}  c #5805A9",
"|  c #4B02BC",
" . c #4602B7",
".. c #5604B8",
"X. c #5415B0",
"o. c #6617A9",
"O. c #6405B8",
"+. c #6D0EAF",
"@. c #792AA5",
"#. c #7938A5",
"$. c #712BB6",
"%. c #62159D",
"&. c #764399",
"*. c #6E4392",
"=. c #7C44A9",
"-. c #7D46B2",
";. c #3C0BC3",
":. c #4903C5",
">. c #5C02CB",
",. c #5604C7",
"<. c #4B01D2",
"1. c #5D04DA",
"2. c #5906D4",
"3. c #5A14CB",
"4. c #6302CD",
"5. c #6808CA",
"6. c #7618C7",
"7. c #6303D4",
"8. c #6B02D4",
"9. c #6403DB",
"0. c #6B03DC",
"q. c #690AD8",
"w. c #730CDC",
"e. c #7607DB",
"r. c #6B16D9",
"t. c #7716D8",
"y. c #6F0FC8",
"u. c #7529CC",
"i. c #6B04E2",
"p. c #7C0BE4",
"a. c #7708E6",
"s. c #7B14E7",
"d. c #7A0CF1",
"f. c #7822E2",
"g. c #7543CC",
"h. c #8C11B8",
"j. c #8239A9",
"k. c #8A36B7",
"l. c #9539B9",
"z. c #892CAC",
"x. c #A236BF",
"c. c #844A9C",
"v. c #8546AA",
"b. c #8847B6",
"n. c #9547BA",
"m. c #9656BA",
"M. c #8D52B1",
"N. c #A16BB6",
"B. c #9A16C5",
"V. c #8806DA",
"C. c #9508DA",
"Z. c #8B17D9",
"A. c #8E11CE",
"S. c #A512CF",
"D. c #9031CC",
"F. c #A831D2",
"G. c #830BE5",
"H. c #850CEA",
"J. c #8808E7",
"K. c #950BE9",
"L. c #8815E8",
"P. c #9814E9",
"I. c #890CF5",
"U. c #930CFC",
"Y. c #980CF5",
"T. c #8D13FC",
"R. c #8916F5",
"E. c #9412FC",
"W. c #9C13FD",
"Q. c #9718F7",
"!. c #A614EA",
"~. c #A50DFA",
"^. c #A313FD",
"/. c #AB13FD",
"(. c #A618FA",
"). c #B313FE",
"_. c #B818F9",
"`. c #B312EA",
"'. c #932AEF",
"]. c #A728FC",
"[. c #B625F9",
"{. c #AE2DED",
"}. c #C619F6",
"|. c #D619F7",
" X c #C615E9",
".X c #C728F7",
"XX c #D527F7",
"oX c #C938FD",
"OX c #D639F8",
"+X c #CF2BEC",
"@X c #E835F9",
"#X c #F739FD",
"$X c #EA2CF7",
"%X c #DC2DED",
"&X c #964AC6",
"*X c #9756C8",
"=X c #9B58D5",
"-X c #8C48CA",
";X c #A458CA",
":X c #A94AD5",
">X c #A857D8",
",X c #AD4BD0",
"<X c #A765D8",
"1X c #AF6CD6",
"2X c #9A49F1",
"3X c #B053EE",
"4X c #AB66E5",
"5X c #B367E7",
"6X c #B767F8",
"7X c #BB76F9",
"8X c #B673E8",
"9X c #9863D9",
"0X c #CD55D5",
"qX c #D763DC",
"wX c #D944F6",
"eX c #D151F0",
"rX c #E848F9",
"tX c #F649FC",
"yX c #EA55FA",
"uX c #F957FC",
"iX c #EB54EB",
"pX c #C869FC",
"aX c #C679FC",
"sX c #DA78FE",
"dX c #D16EEB",
"fX c #FD65FD",
"gX c #E579FE",
"hX c #F978FE",
"jX c #E967F1",
"kX c #E066DF",
"lX c #BB87CD",
"zX c #BA83FE",
"xX c #CE8CD7",
"cX c #D584FE",
"vX c #D28FF9",
"bX c #E788FF",
"nX c #EA97FD",
"mX c #FB98FB",
"MX c #EE89F2",
"NX c #FBA5FD",
"BX c #FEBBFE",
"VX c #F6B7FD",
"CX c #E7B2F4",
"ZX c #DAA2EE",
"AX c #FDC4FF",
"SX c #FECBFE",
"DX c #F5C8FA",
"FX c #FDD3FE",
"GX c #FEDDFE",
"HX c #F5D7F9",
"JX c #F0D0F4",
"KX c #FDE4FD",
"LX c #FDEAFA",
"PX c #FFF3FE",
"IX c #FCFCFC",
"UX c #FAE1ED",
/* pixels */
"= = = = *     o *     o + o +   + + o o + + + +   + X X + + $ $ 3 4 4 4 $ $ $ X X $ $ $ $ % 4 $ 4 4 4 4 4 @ 4 $ $ $ $ + X X X X + + + o o o o   *   & & - & & & ",
". =   = = * *       *   + * + : > , # > , 3 e , , , 2 5 2 t 2 i 7 8 0 0 u u 7 i i y i 7 7 7 6 0 6 0 6 4 6 5 3 3 e 3 3 2 % % % $ # + + o + + :   o &   - & * & & ",
"= * = * * * - * 1 o 1 : : : : > e , , , e t t y t y u u u u u a s 9 9 s s a a a s a s 9 w 9 9 9 8 8 8 8 7 6 7 i 6 5 t 5 t % % 2 # > # # @ : : : +   o   * *   . ",
"= = = * * * o * o : : : : @ > , # # 5 3 t y y u u a 8 8 a q 8 8 9 9 9 k 9 q 9 q s h 9 h q h 9 q q q 8 q q 8 7 w 6 6 6 5 3 3 3 % , , @ @ # @ @ + + o o - : o     ",
"* = = * o o : 1 + : : @ # , , # 5 5 7 u u u a a d d q k h k h k l d l f x l x k x x h h h h h h h q q q q q q q 8 a 0 0 0 y 0 3 5 2 3 @ # # @ @ : + + X : 1 X   ",
"* =   * * 1 : : + + @ # , # e 5 t 6 7 u a d s d q q h h h l x M M l l z x x x C v x v v C N m N M N M M h h h q q q a 9 8 0 0 p y 5 3 5 2 5 # @ : # + 1 + + X   ",
"    * * : - : : > @ # , , e t 5 7 7 7 u a d f d l h l l N N N N M M z V B H D D D Q D A S Z Z V m V m M m M h q h d q q s 8 9 8 p y 6 6 6 5 3 3 # # # + : + X + ",
"=   = 1 1 - > > @ > # 5 5 5 6 u u a d d d f c z l M N N C Z Z Z J J G G ( *.' ' ] &.' ' ( ( G ( F F F A m V m M M N l l h k h q 9 a 8 8 y 6 5 3 3 @ # + : : 1   ",
"= * o * : : : > # # 3 5 6 6 a 8 a s f d f l z z z B H G G ~ ~ G *.*.*.*.=.M.M.b.*Xm.n.M.v.j.] ] &.' ( ( Q ! F J Z m V M M q h h h 9 k s s 9 p p r > @ > > - o   ",
". = 1 : + : @ , # 5 5 6 7 8 8 a z d 8 h z x v v D ~ ~ ~ *.*.&.=.=.v.*X*X&Xb.$.@.W %.z.&X;X;X;X;X&Xb.#.v.] ] / / ! F Z m m m M m m v x x k k s p 6 r 4 > > - ;   ",
"  * o 1 : : # , t 5 6 7 8 d d d 9 l H x x A ~ ~ ( *.=.-.M.m.m.*X=X-X$.o.o.} %.} D.B.+.+.+.h.D.&X>X>X,X>X;X&Xj.j._ ' / F F F F m ! n S Z C v k d 0 6 4 > > - ; O ",
". * : : : > , 3 5 6 6 a q d d l x z B A G ( *.' -.-X*X=X*Xg.$.o.{ } } ..+.A.P.{.{.F.{.{.S.B.h.h.+.h.D.F.:X>X1X;X;Xj.) ' / F F F / ! ! / ! S N l s p 3 r > ; - & ",
"  * : : , : 2 t 5 6 8 8 d d l M V V Z ~ ~ ' -.9X9X-Xo.X.E } } O.8.e.Z.L.P.{.[.[..X.X.X.X.X.X[. X{.S.S.h.+.h.h.F.>X>Xn.#.` / ) ) %.` ` ` _ / F m h q 6 3 > > - o ",
"  - : : > , e t u 8 a d d M M N N G ( ( *.M.-X-XW { } ..5.r.w.w.L.R.Q.Y.!.(..XoX.XXXXX|.XXXX|.|. X X|.%X+XS.B.h.h.F.:X&Xz.] ] / ` z.z.l.j.` F m h q 7 3 , > : - ",
"* * : : : , t t u a d f z B B A G ( ~ ' *X9Xk.E } O.5.w.d.d.T.T.I.W.(.]._.[.XXXX@X@X$X|.XX$X$X$X$X$X|.|.|.+X+XF.h.+.@.&X=X-.' $.z.F.,X,Xl.` / F m M 8 5 # , : X ",
"  * : > , # 5 i a d f l B B A D G ( &.9X=Xo.} X.t.s.s.H.d.d.I.U.(./.)./.!.}.XX@X#X#X#X$X$X$X$X$X$X$X|.$X@X@XXX XF.B.h.o.D.=X*X#.l.,X,X>Xx.j./ F m q w 6 3 # : + ",
"o : > , , t u 7 f d q B A A D G ( &.v.=Xu.{ y.L.d.d.a.a.I.W.(.(.^._./._.`.XX#X$X$X#XtX#X%XiXiXrX#X@XiXtXtX%X|. X X X+X+.+.3X*Xb.l.n.,X,Xk.z.` m m w w w 5 3 @ X ",
"O ; , , t t w w d l B N A D ~ ( *.v.<X-XE 3.r.i.d.d.U.E.W.~.(././.)._._.+X#XiX#X#X$X#XuXuXiXkXhXuXuXfXiX$X%X|.|. X X`.{.C.+.5XM.n.l.l.l.k.@./ F V M f w a 5 % X ",
"& ; > e 7 7 g w d z A A S Q ' ] v.*X1XW o.q.q.1.i.d.E.W.^.(.(./././.[.`.oXjXiXiXtXtXiXyXMXmXNXNXmXmXhXiX@X@X@X@X%X X X.X[.+.l.5Xn.n.n.z.@.` / F Z M q w a i 2 $ ",
"O ; < e i a d d B x C S ~ ' ] =.*X8X%.X.r.t.2.i.i.d.I.I.I.K.W.(.[._.[.{.eXjXkXkX0XeX0X0XMXSXKXSXGXBXmXkXtXtXuXuXuX%X X`.`.!.E ,X>Xn.l.j._ _ / m Z N d d u t % 1 ",
"* : e e 7 d l h A N A ~ ( ' #.*X8XD.E u.r.r.0.7.d.d.H.p.J.e.J.K.C.A.h.oXgXdXMXxXMXxXMXZXCXKXPXIXPXSXmXhXfXfXuXuXfXrX}.|.`.!.A.+.5X>Xz.j.c./ ~ Z Z Z h 9 s i % $ ",
"* ; e i a d M N S S Q ( ' #.m.5X=X} t.y.t.2.i.i.d.d.p.G.J.J.J.V.C.A.h.mXBXBXHXFXSXSXFXKXPXPXPXIXPXFXNXhXfXuXyXfXiXfX@X X|.).!.+.6.pX&Xj.j./ ! ^ ! C x x s u % $ ",
"* : e y 9 x C C S ! ~ ' #.n.>X4XO.r.r.q.0.s.7.R.p.p.p.J.J.J.H.J.C.h.B.NXBXBXSXFXFXGXLXPXIXIXIXIXIXGXmXkXuXuXyXfXiXfXuX X|.}.!.'.O.:XdXn.[ [ ~ ( ^ v v h d w 2 % ",
"* 1 t p s x C Z D ~ ) ' b.<X>XD...t.s.L.i.9.d.a.d.H.H.p.J.a.H.H.K.A.F.BXBXFXJXJXKXKXLXPXIXIXIXIXLXKXNXkXjXuXiXyXiXyXtX#X}.}._.!.Z.} ;X1Xc.&.' ^ ^ ^ v h f g t % ",
"= > i u c C S ! D ~ =.] =X5X:XE Z.w.d.a.i.i.I.d.I.H.H.G.L.H.K.H.K.A.eXAXAXDXJXHXHXLXIXIXIXIXIXIXUXxXVXhXiXtXuXtXuXtXtXtXOX_.).~.'.6.+.dXN.c.=.*.^ ^ F V f g u % ",
"* < i a z H S Q ~ ( &.*X=X4X} 6.s.a.d.a.i.d.d.T.I.L.L.H.J.H.H.K.K.h.dXAXAXJXJXHXJXLXLXIXIXLXIXPXLXxXMXmXhXiX#XtXuXtXyXrXwX.X)._.!.'.+.z.1Xm.g.) _ ^ F m f g u 5 ",
": < i d z H G H ( &.v.9X5Xo.$.Z.w.d.i.i.a.I.I.R.I.K.J.J.K.I.I.K.K.A.vXSXDXJXJXHXKXKXUXIXLXPXIXPXKXxXMXhXhXuXtXtXrXtXiXiXyXOX`.}.(.!.Z.W 4X4X*X=.#.^ F F M g u 5 ",
"  < p f H G G *.*.c.m.lXk.o.Z.r.w.d.i.i.d.T.T.T.I.R.K.K.L.K.Y.K.P.A.NXAXDXHXJXJXHXHXUXLXLXIXPXPXLXNXMXjXfXhXuXiXrXrXwXiXyX@X}.).(.!.P.A.+.5X=X*X#.) F J V M d 5 ",
"X e s c z A G *.M.M.xX9X$.D.6.w.0.a.0.i.I.Q.E.E.Y.R.K.K.Y.Y.Y.P.Z.B.VXBXFXJXHXHXHXHXUXUXLXPXPXPXPXBXdXhXfXfXfXfXyXwXwXwXrXyXOX`.`.~.~.P.6.+.6X=Xb.' / F N M g 5 ",
"$ t f z z A *.c.lXxXCX9X=Xu.y.s.w.8.8.a.T.Q.E.U.Y.Y.Y.!.!.K.Y.Y.A.,XBXBXHXHXHXHXHXJXUXLXKXLXPXPXPXSXdXhXfXuXfXfXfXyXyXrXOXtXrX[.).).).J.'.} -X>X*X] G F A z s r ",
"+ i f z B A *.c.lXKXDXCX6X'.r.r.8.4.e.R.Q.Q.Q.E.Y.Y.Y.K.Y.K.~.!.A.pXBXJXFXHXHXHXJXJXUXUXUXLXLXPXLXLXMXjXfXfXfXkXjXyXyXrXrXiXrXOX}.).Y.W.I.'.E <Xm.c.[ F A B c 4 ",
"$ r s z H G *.c.lXLXKXVX6Xu.f.4.8.5.p.Q.Q.T.Q.W.Y.~.~.Y.~.~.!.!.B.sXAXBXHXHXHXHXJXJXUXUXHXJXLXUXIXLXMXjXuXuXjXjXyXjXrXrXrXwX+XyX}.).~.U.'.t.+.;X;Xj.[ F D H f 5 ",
": i g H H G &.M.vXJXCXVXzXu.3.1.7.G.T.Q.Q.W.W.U.Y.~.~.Y.Y.K.(.S.z.bXBXAXDXFXHXKXHXUXJXUXJXJXHXHXJXKXNXkXiXuXuXtXtXtXrXrXiXrXOXOXoX(.!.Q.'.q.E 4X>Xb.' / A B c 5 ",
"@ g g z J G &.*XzXvX*X1X9Xu.3.2.4.I.Q.Q.W.(.(.(.Y.Y.Y.~.(.^.!.P.l.nXAXAXAXFXHXGXKXHXJXJXJXJXDXDXDXFXNXkXuXuXtXtXtXtXrXrXwXeXwXwXwX{.!.L.L.>.E 4X<Xb.[ ( ! A f y ",
"@ i g z J G =.N.lX1X! ! ^ $.3.,.e.Y.].W.W.W.W.W./.^.~.~.~.~.~.S.F.NXBXBXAXSXFXFXGXKXHXDXJXDXAXVXDXBXmXkXiXtX#XtXtXrXrXwX+XeXwXOXwX[.].L.a...E 6X4Xb.] ( Q A z 7 ",
"4 p g z G *.=.*X9X1Xv j j U 3.3.G.Q.W.(.W.^.^.^././.~.~.~././.P.,XVXNXBXAXDXFXFXGXGXFXDXDXVXVXVXVXNXmXkXiXrXrX#X@XrXOXwXwXwXwXoXwXwX{.G.q...} 7X4Xn.] ( Q A M 7 ",
"4 u f H G [ v.*X1X9Xv j j K U r.R.(.(.W.(.(.^.^.W.~.~./.)././.C.4XDXCXDXFXDXJXHXKXKXKXGXJXCXCXCXCXmXmXjXiX%XrX#X%XOXwXwXwXwXoXoXoX[.].e.7...} 7X4X&X] [ ! D M 7 ",
"$ a z H G ' -.&X4X4XW j L K I ,.'.Q.Q.Q.W.W.W.W.^.^.W.~.~.^./.P.aXDXCXDXJXJXJXJXHXHXHXKXFXCXCXCXCXnXmXjX0XwX@X@X@X%XOXOXoX[.oX[.[.(.Q.5.7.,.o.aX4X&X#.( Q ! V u ",
"$ u z H ~ ' -.*X4X8XW j K I I Y 4.e.e.p.H.T.Q.W.W.W.W.W.Q.(.~.'.vXVXCXDXCXJXJXJXJXFXFXGXHXAXVXCXnXmXhXhX+XrXtX%XOX%X+X.X[.[.)./.P.P.P.8.7.,.o.aX4X&Xj.[ ^ Q M w ",
"$ i z H ~ _ -.=X4X7XW L I I P X.4.8.8.8.8.7.8.0.0.H.R.].].].Q.Z.nXVXVXAXVXSXDXDXSXSXSXSXFXFXBXNXmXmXhXhX%XuXuX%X%X+X X+X_._._./.^.Q.Q.8.8...+.cX3X&Xj.' ^ Q M w ",
"$ u z H ~ ' j.=X4X7XX.L W I I Y q.0.i.i.9.9.7.2.4.4.>.8.'.6XpXeXmXbXnXnXbXnXbXbXbXbXbXMXfXhXjXfXeXjXeXOXfXhX@X+X+X+X}.}._._.)./.W.Y.R.4.7...$.aX5X&Xj.' ) Q M w ",
"$ u z A ~ ' j.&X5XaXX.I U U I  .7.i.1.i.1.2.2.2.2.>.......5.2XcXgXF.A.h.h.B.h.h.h.h.h.S.B.B.B.B.h.B.S.S.rXtX+X+X}.|.}.}.}.).)./.^.Y.Q.8.8...$.aX3X&Xj.' ~ D M w ",
"$ i z A G ' v.*X5X7Xo.U { U U Y q.1.1.1.1.2.2.>.<.| ,.3...{ O.pXeXA.+.V.A.Z.Z.C.S.C.`.S.`.`.`.S.S.S.S.S.XXOX`.|.}.}.}._.).)./.~.W.E.Q.8.8...$.cX5X&Xj.' ) ! M 7 ",
"+ i z H G _ c.n.4XaXX.U  .U U { r.i.i.1.1.1.2.2.3.:.| | 3...| 6X2X5.8.L.G.G.P.V.K.K.K.K.K.!.!.K.!.S.C.S..X.X_.XX}.}._.).).).~.~.W.W.R.8.q.O.z.sX5X&Xj.' ^ Q M 7 ",
"X i M J F [ j.M.<XaX$.{  .Y U  .w.i.i.9.9.1.2.2.<.<.3.:.,.:.:.2X].2.>.q.e.s.L.e.J.J.J.C.J.K.C.C.V.C.C.C.`.[._..X_.).).).)./.~.W.W.W.R.8.w.O.j.aX>X&Xj.] ) Q z i ",
"X i f V F / c.M.<XzX6.U |  .U | w.a.e.0.9.9.1.2.<.1.r.<.3.2.:.q.r.,.>.,.,.8.s.R.G.G.G.J.V.Z.J.V.C.K.C.C.K._._.!.)./.)./.~.~.^.W.U.W.I.8.y...k.cX>X&Xj.` ^ D z t ",
"O t g V J F [ c.;XcXu...|  .U | w.e.e.e.0.9.i.1.1.1.<.<.2.1.2.2.r.r.r.4.4.4.8.p.G.G.V.V.V.V.V.V.V.J.V.V.K.].[./././././.^.(.Y.Q.U.W.H.8.w.O.k.cX>Xn.j.' ^ D f 7 ",
"O t M m J F c.c.;X7X$. .| Y U | e.J.J.e.i.0.i.1.1.1.1.1.1.<.2.1.r.q.>.:.4.q.4.w.p.p.p.e.G.V.V.V.V.V.V.V.K.(.(.~.~./.^.(.^.(.R.K.Y.W.I.8.y.O.k.cX;Xn.j._ Q D g 2 ",
"$ i s z A F [ v.*XaX$.{ X.Y T :.G.J.H.a.a.0.0.9.9.9.1.9.1.2.1.1.s.0.4.4.4.5.4.>.9.r.s.s.p.p.p.V.V.V.V.V.K.^./.~.~.~.~.!.(.].!.J.W.K.T.i.q...-X8X1Xn.] _ ^ H g 2 ",
"+ e g z A G ( j.n.8X$.I Y T ;.Y G.K.J.a.a.i.0.9.0.9.7.9.1.2.2.1.R.s.w.7.4.>.>.>.2.q.i.a.i.p.p.e.e.y.e.e.I.W.^.~.^.~.~.Y.Y.Q.].].V.L.H.7.t.E =XlX;Xv.` / ^ H g < ",
"; i i f V A ( #.b.<X=XI U Y Y Y G.J.J.G.e.0.q.7.q.2.2.2.2.<.2.1.d.R.d.a.7.,.4.>.,.7.i.w.p.s.p.e.w.w.e.e.I.E.W.W.W.W.W.U.K.Q.Q.].].'.Z.6.o.X.vX8Xn.j.` / ! B f r ",
"o e i s M A D [ b.*X8Xu.L X.T | G.J.V.e.e.w.q.q.q.q.1.7.2.3.<.2.R.T.R.H.i.q.2.7.2.7.q.r.w.w.w.w.w.w.a.a.I.T.E.U.U.W.W.U.E.R.T.R.].3X2X=X#.1XnX<XM.j./ ! A z s p ",
"o e i s z B F ( =.m.9XzXX.K X.U Z.K.V.V.e.w.q.q.q.1.1.1.2.2.2.1.R.T.T.R.R.a.q.q.q.7.q.q.w.w.w.s.p.a.a.d.I.U.U.U.U.U.E.U.T.T.I.H.'.vXnXvXZXAXxXm.j.` / G V z s r ",
"O < i a f M A / ' v.=X8X8XI P { K.K.J.J.p.a.i.i.q.9.9.i.9.2.1.9.R.T.T.T.T.R.d.i.i.w.8.q.w.e.t.G.p.d.d.J.I.U.U.U.U.U.U.U.U.U.T.R.'.vXHXFXKXFXN.N.j.] / F M f s r ",
"  > e i f z N G ( ] *X*XzX=XK X.!.!.K.J.J.a.a.a.a.i.i.a.i.0.i.i.W.^.W.E.W.I.I.I.a.e.w.e.e.e.e.J.H.J.I.I.I.Y.Y.Y.W.U.U.U.U.I.E.R.2XvXFXLXKXCXlXN.#.) ! F M g s r ",
". ; < e g f N F ( ' =.*X4XvX$.W '.Y.Y.J.G.a.a.d.a.a.a.a.i.0.i.a.].(.W.Q.R.U.E.E.J.J.e.p.p.J.p.J.I.Y.Y.K.Y.Y.Y.Y.Y.U.Y.E.T.I.L.'.-XvXDXGXUXJXN.c.` ) ! Z f g a r ",
"* - e i a f M V A ( ] v.*XaX7Xo.+.K.L.'.G.s.r.9.a.p.i.8.e.8.>.s.oX[.!.~.W.Y.Y.Y.Y.K.J.J.G.J.I.I.K.K.~.J.[.P.K.I.I.J.E.R.p.'.R.O.$.8XZXDXDXCXN.*.) ^ ^ C d s i + ",
"* : > i a d l N J F [ j.b.=XaXaX} } } { y.,.f.f.4.q.t.y.w.y.3.'.eX{.P.!.(.W.W.Y.Q.Y.R.K.I.I.I.I.K.J.P.J.].P.G.'.R.R.s.s.L.| { } %.#.ZXZXlXN.qXG ( ! n v c g t + ",
"* : > t u d l N Z F F c.v.n.5XcX6XE L I P { P  .3.3.3.X.X.O.3.=XsX].Z.Z.Q.Q.Y.E.Q.R.L.P.K.E.R.R.Y.G.L.'.3X].f.f.s.r.|  .I { X.o.W vXnX8XN.v.[ M.( Z v v c i < 1 ",
"  : > e y a d x V F F _ #.b.=X4XvX4XL W I K K P K K X.3.g.9X4XzXbXeX'.P.'.Q.R.Q.'.Q.Q.Q.R.R.T.T.s.L.'.3XaX6X2X'.U :.|  .3.U $.L vXnXaX>X&XM.[ ( *.D v c 9 r , 1 ",
"    < e p 0 9 k m F / ! @.j.-X4X5XnX-Xj ^ I U P I K K K ^ g.g.zX6X2Xf.t.s.s.s.d.w.e.w.w.w.w.i.r.r.2X6X6X2Xf.X.Y 3.Y | Y U 3.L 8XNXsXdX:X&Xz.j.n ( G A c p r t X ",
"1 X # t p 0 k x N Z F / ' #.@.:X5XpXvXu.I X.I I P P P K K b b K W { I Y :.:.:.:.| ....{  .| :.| U | r.3.| { Y Y Y :. .| $.W 4XNXdXsX0X:X,X@.%.] Z A z c p y e $ ",
"  X : t p s 9 l Z m ! ! _ #.@.z.:X3XpXcXu.X.X. .U I I I K K K K K P Y Y ;.<.<.:.:.|  .{  . .| | | Y Y U U U | | :.2.,.6.o.D.cXbXqXqX0XdXF.&X` ^ C z z f s i 3 O ",
"X + @ e 3 s k l Z Z / ! ! ` @.$.D.:XpXsXaX6.X.3...U { U P I K R P T ;.Y ;.;.<.:.:.| ..| | | :.:.:.Y Y  . . .| ,.,.,.t.O.D.nXcXqX0X0XdXeX,Xz.@.! D f s s p 3 3 r ",
". o > r p s h v n / / / / / ) ` @.D.3X3XgXpXO.t.y...|  .Y Y T R T T Y Y ;.<.,.2.>.>.>.>.>.>.2.<.<.<.:.:.,.>.4.4.5.y.A.+.bXbXqX>X,X0X,Xx.n.j.) F N l d u u t @ 4 ",
"  - > r p s x n F / / %./ %./ / ` #.l.5X3XsXgXO.t.t.,.| | T R ;.T T ;.3.3.2.7.7.7.8.8.9.9.q.9.1.<.<.<.<.2.7.8.8.Z.A.+.hXsXdX;Xx.x.x.l.l.j.[ Q D N d q u y e r @ ",
"  o @ 3 0 h C ! / _ _ ` ` _ / %.) @.` &X:X6XnX3XO.t.t.>.,.:.;.Y Y Y Y 3.2.>.>.7.0.e.i.a.0.0.9.9.r.2.<.2.7.4.y.A.A.+.sXsXpX,Xn.l.z.h.l.z.` ^ S Z M d d u y e # ; ",
"  o > e 8 N n / ` ` z.z.z.` ` / ) ' ' @.&X:X6XmXpXt.y.f.3.,.,.:.:.Y :.>.r.0.a.H.J.p.J.J.G.G.p.a.1.2.<.4.y.t.t.D.$.pXsX3X,Xl.l.z.z.z.z.` _ ! Z h h d 7 u t e @ @ ",
"= o > y q N ! ` k.&X,Xl.h.` ` %.! F ) ) @.-X-XpXNX2XO.w.r.t.f.4.>.| ..8.p.e.e.G.V.J.J.J.J.G.G.p.q.q.>.y.r.+.u.D.3XcX:X&Xk.l.` k.D.z.` %.! ! m h q 8 7 5 e r > o ",
". : , 5 q Z ) ` ,X5XqX:Xz.z.` / ! ! ! ^ ) #.-X-XaXnXbX3X'.6.5.5.5.4.4.s.L.P.L.P.Y.K.P.P.P.J.L.L.5.O...y.u.2X7XaX7X-X-X@.k.#.@.n.0X;X@.! ! n h h q 8 6 5 # > @ - ",
"* 1 > y q C ) j.,X0X0X,Xz.z.` / ! ! n S ^ n ' b.-X>X6XaXbXsX3X].y.4.O.6.Z.P.Z.P.P.K.C.V.A.C.V.V.O.D.3XaXcXaX4X&X-.b._ @.' ! k.b.1Xm.' ^ n v h 9 8 6 5 # @ > - - ",
"= & > 3 8 N / #.l.,X,Xz.z.z._ %.n n ! ! C ! ) ^ ] b.&X=X3X6XsXcXsXpX2X'.2X{.{.!.{.F.{.{.{.3X3XeXbXcXcX7X4X9X-X=.' ' ) ! ! _ ! ' #.' ^ ! v h h 0 7 7 t # @ : ; & ",
"= = - < p v ^ ^ #.#.k.z.` _ / ! n n n n C Z Z S ^ ( ' #.-X&X>X4X7X7XaXsXsXgXgXgXgXgXgXgXbXsXcXsXpX5X=X=Xb.=.' ~ S S S S S ! ! ! ! ! S v x 9 9 p 3 3 # @ : ; - - ",
"= = ; ; r s v ^ ) #.#.` ) ! F n n n n h N N N N C S Q / ' ] #.#.-X-X=X4X>X4X4X3X3X3X>X3X>X,X>X=X*X-X#.#.' ( S B B z l x N C C S C C v c 9 s p 4 3 # $ + 1 - * * ",
"& & & ; r r c v S ! ! ! S Z N x v h h h h k l l k l M B A S ~ ^ ' ' =.=.b.b.b.n.n.b.v.j.v.#.=.] ' ) Q ! F B M d f d f d k k k x x k d s p 3 3 , @ # + X : * & & ",
"= & & ; 4 r p s k x C x x k h k h 9 q 9 9 9 a d d f f z l z B H C A ! ~ Q ~ ) ( ( G ( Q ~ ~ D D D A N l M f f f a a y 0 0 p s 8 8 8 p r r r # > + 1 X o * & & & ",
"= & - ; ; ; r r p s s 9 a 8 0 0 0 0 0 6 0 p u a u a a a d g f f s f z z M V N V V V M M M z z c c z f d d u u u i y t e y e r e 3 3 r r @ > + - X o . . . . = & ",
"= = = = ; ; ; r r 3 y 5 y 5 r 3 4 4 3 e e r 5 e t y y y i u u s g g f g f f f f M f f f f f g s s s a u i i t t t t , , > e r # e r > + -   :   . . 1 . . . = = ",
"* . . . & & ; ; ; + @ @ # @ @ - - - - > # @ @ 4 4 3 3 3 3 3 i i 2 t t i i u 7 7 u 7 7 u i r e r e e i e t e # @ # $ + + : : : - + + o ; - *     1 . . . = = * = ",
"1 . . . & & & &   O   o o @ @ ;   &   o o O o $ $ @ @ 4 4 @ # # $ + # @ % % % % 5 # 5 # 3 # e @ > @ @ @ $ @ $ $ + + + o o o -   o   o * & & * = = . . . . = = = "
};
