/* XPM */
static char *_4f99efa21d34846e4241874b5b8d2a6ABrwsIVNTwyvJaIy[] = {
/* columns rows colors chars-per-pixel */
"80 80 256 2 ",
"   c #000000",
".  c #0A0508",
"X  c #150A06",
"o  c #1C130B",
"O  c #150B12",
"+  c #161413",
"@  c #1B1818",
"#  c #040214",
"$  c #291A0B",
"%  c #251A17",
"&  c #320A07",
"*  c #2C241A",
"=  c #362819",
"-  c #3A2F14",
";  c #251E24",
":  c #292428",
">  c #342A25",
",  c #3B3328",
"<  c #3C3737",
"1  c #2F2931",
"2  c #1A1A27",
"3  c #511702",
"4  c #4E1A11",
"5  c #462506",
"6  c #583907",
"7  c #4C2715",
"8  c #52281A",
"9  c #47351A",
"0  c #563218",
"q  c #4C2F0C",
"w  c #663A03",
"e  c #793B05",
"r  c #683816",
"t  c #672D12",
"y  c #473B27",
"u  c #583824",
"i  c #483C39",
"p  c #743227",
"a  c #6A1915",
"s  c #594419",
"d  c #5F4504",
"f  c #784705",
"g  c #694A1A",
"h  c #7C4819",
"j  c #775A16",
"k  c #70520B",
"l  c #4B463A",
"z  c #574A38",
"x  c #5E523B",
"c  c #55452A",
"v  c #6C5422",
"b  c #755421",
"n  c #634A36",
"m  c #63563C",
"M  c #6E4929",
"N  c #7B642B",
"B  c #35354A",
"V  c #17264D",
"C  c #463D4F",
"Z  c #3D4744",
"A  c #4A4546",
"S  c #5D5647",
"D  c #5A5559",
"F  c #504C50",
"G  c #645947",
"H  c #665C59",
"J  c #725642",
"K  c #706452",
"L  c #53566A",
"P  c #676668",
"I  c #7C7667",
"U  c #777477",
"Y  c #6B6D78",
"T  c #9A3207",
"R  c #92281C",
"E  c #8E5210",
"W  c #A6570E",
"Q  c #9E6505",
"!  c #82661A",
"~  c #876715",
"^  c #937213",
"/  c #A5750A",
"(  c #AD6E12",
")  c #825725",
"_  c #90562F",
"`  c #A85726",
"'  c #A95331",
"]  c #987429",
"[  c #8E6F30",
"{  c #A67728",
"}  c #B06B2F",
"|  c #C4550D",
" . c #D06917",
".. c #CF722A",
"X. c #877449",
"o. c #8D7653",
"O. c #A5715B",
"+. c #887670",
"@. c #CD7742",
"#. c #FA7C40",
"$. c #AC8A03",
"%. c #B89702",
"&. c #A88C10",
"*. c #AE882A",
"=. c #AF9B0F",
"-. c #C49A03",
";. c #D48F13",
":. c #E7960C",
">. c #CBA500",
",. c #D7AE12",
"<. c #EBA501",
"1. c #ECAD01",
"2. c #E9AA06",
"3. c #EDB103",
"4. c #EDB30C",
"5. c #E5BA00",
"6. c #F1B302",
"7. c #F5BA0A",
"8. c #EDB614",
"9. c #EEB91D",
"0. c #EEB718",
"q. c #F6B717",
"w. c #CD8E2B",
"e. c #EF9C37",
"r. c #D0AC2F",
"t. c #EEBA21",
"y. c #ECBD36",
"u. c #EEB42B",
"i. c #FED202",
"p. c #FFDA0C",
"a. c #FCC517",
"s. c #FDCA0E",
"d. c #F8C826",
"f. c #FFDB22",
"g. c #FFD52C",
"h. c #F7C938",
"j. c #F1CC3B",
"k. c #978A5B",
"l. c #9A8D57",
"z. c #AC8E53",
"x. c #B3A956",
"c. c #988D63",
"v. c #9C9264",
"b. c #968B75",
"n. c #9B9376",
"m. c #8A8370",
"M. c #A69A68",
"N. c #B3936E",
"B. c #ABA474",
"V. c #B6AA74",
"C. c #B6AB6F",
"Z. c #C79550",
"A. c #D3B14D",
"S. c #CCAE6F",
"D. c #D59462",
"F. c #ECC44A",
"G. c #FACD47",
"H. c #F9D34B",
"J. c #ECC55A",
"K. c #E9C557",
"L. c #F8D758",
"P. c #FFE557",
"I. c #D6C97C",
"U. c #CBC075",
"Y. c #EECE66",
"T. c #EBCA6A",
"R. c #FBD968",
"E. c #E7C979",
"W. c #F9D976",
"Q. c #EED076",
"!. c #FEE96A",
"~. c #FFEB76",
"^. c #D4CB5F",
"/. c #7C7A86",
"(. c #777897",
"). c #6874A3",
"_. c #877C83",
"`. c #9B74A0",
"'. c #7F8890",
"]. c #8A8687",
"[. c #999497",
"{. c #918F91",
"}. c #AA9B93",
"|. c #B6AC92",
" X c #9A9BA5",
".X c #8B93AE",
"XX c #9AA3B2",
"oX c #A8A7A8",
"OX c #BAB5A7",
"+X c #A8AAB7",
"@X c #A9B2B9",
"#X c #B8B8BA",
"$X c #B6A8A3",
"%X c #A39FA8",
"&X c #C8BA87",
"*X c #D1B18F",
"=X c #C5BAAF",
"-X c #C99A98",
";X c #BEC48E",
":X c #D5CC88",
">X c #DED38B",
",X c #D0CB93",
"<X c #E6D588",
"1X c #E8D698",
"2X c #EDD48C",
"3X c #FEE788",
"4X c #EBE297",
"5X c #F7E898",
"6X c #FDF49C",
"7X c #EEE283",
"8X c #CBC8BA",
"9X c #DCCAB4",
"0X c #DBCBB6",
"qX c #D7CFAE",
"wX c #E5D6A8",
"eX c #E1CEB8",
"rX c #E5D2BC",
"tX c #E9D6BF",
"yX c #E5D4B4",
"uX c #F9E9A6",
"iX c #FCF8A6",
"pX c #F6EBB6",
"aX c #FFF8B9",
"sX c #ECE8B8",
"dX c #DDE0A6",
"fX c #B5BAC4",
"gX c #B7BED8",
"hX c #BCC2CB",
"jX c #AFC1E6",
"kX c #C7C7C6",
"lX c #DAD7C7",
"zX c #C6CBD6",
"xX c #CCD3D9",
"cX c #D7D8D9",
"vX c #D2CBDE",
"bX c #EDDAC2",
"nX c #EAD7C0",
"mX c #F1DDC6",
"MX c #E1D2D0",
"NX c #EDE7C9",
"BX c #F6E2CA",
"VX c #F9E4CC",
"CX c #FAEACB",
"ZX c #FFEAD1",
"AX c #F2ECDC",
"SX c #F3F2CF",
"DX c #D5DAE4",
"FX c #CFD6EE",
"GX c #DCE7F2",
"HX c #E6E5E8",
"JX c #FCFBE6",
"KX c #EBF8FE",
"LX c #FEFFFF",
"PX c #F6FAF9",
"IX c #EBEEEC",
"UX c #E1DCD8",
/* pixels */
"ZXZXZXZXZXZXZXZXZXZXZXZXZXZXZXZXZXZXZXZXZXZXZXZXZXZXZXZXZXZXZXZXZXZXZXZXZXZXZXZXZXZXZXZXZXZXZXZXZXZXZXZXZXZXZXZXZXZXZXZXZXZXZXZXZXZXZXZXZXZXZXZXZXZXZXZXZXZXZXZX",
"ZXZXZXZXZXZXZXZXZXZXZXZXZXZXZXZXZXZXZXZXZXZXZXZXZXZXZXZXZXZXZXZXZXZXZXZXZXZXZXZXZXZXZXZXZXZXZXZXZXZXZXZXZXZXZXZXZXZXZXZXZXZXZXZXZXZXZXZXZXZXZXZXZXZXZXZXZXZXZXZX",
"ZXZXZXZXZXZXZXZXZXZXZXZXZXZXZXZXZXZXZXZXZXZXZXZXZXZXZXZXZXZXZXZXZXZXZXZXZXZXZXZXZXZXZXZXZXZXZXZXZXZXZXZXZXZXZXZXZXZXZXZXZXZXZXZXZXZXZXZXZXZXZXZXZXZXZXZXZXZXZXZX",
"ZXZXZXZXZXZXZXZXZXZXZXZXZXZXZXZXZXZXZXZXZXZXZXZXZXZXZXZXZXZXZXZXZXZXZXZXZXZXZXZXZXZXZXZXZXZXZXZXZXZXZXZXZXZXZXZXZXZXZXZXZXZXZXZXZXZXZXZXZXZXZXZXZXZXZXZXZXZXZXZX",
"ZXZXZXZXZXZXZXZXZXZXZXZXZXZXZXZXZXZXZXZXZXZXZXZXZXZXZXZXZXZXZXZXZXZXZXZXZXZXZXZXZXZXZXZXZXZXZXZXZXZXZXZXZXZXZXZXZXZXZXZXZXZXZXZXZXZXZXZXZXZXZXZXZXZXZXZXZXZXZXZX",
"ZXZXZXZXZXZXZXZXZXZXZXZXZXZXZXZXZXZXZXS + - * + + + + + + + + + + + + + + + + + + + + + + + + + + + + + + + + + + o , @ K ZXZXZXZXZXZXZXZXZXZXZXZXZXZXZXZXZXZXZX",
"ZXZXZXZXZXZXZXZXZXZXZXZXZXZXZXZXZXZXCX, , SX|.                                                                    K JXI F ZXZXZXZXZXZXZXZXZXZXZXZXZXZXZXZXZXZXZX",
"ZXZXZXZXZXZXZXZXZXZXZXZXZXZXZXZXZXZXCX< l LX|.                                                                    b.LXo.G ZXZXZXZXZXZXZXZXZXZXZXZXZXZXZXZXZXZXZX",
"ZXZXZXZXZXZXZXZXZXZXZXZXZXZXZXZXZXZXVX<   @ .                                                                     . @   S CXZXZXZXZXZXZXZXZXZXZXZXZXZXZXZXZXZXZX",
"ZXZXZXZXZXZXZXZXZXZXZXZXZXZXZXZXZXZXVXl.j d k ! ! ! ! ! ! ! ! ! ! ! ! ! ! ! ! ! ! ! ! ! ! ! ! ! ! ! ! ! ! ! ! ! j j d j v.CXZXZXZXZXZXZXZXZXZXZXZXZXZXZXZXZXZXZX",
"ZXZXZXZXZXZXZXZXZXZXZXZXZXZXZXZXZXZXVX!.i.f.f.f.f.f.f.f.f.f.f.f.f.f.f.f.f.i.i.i.i.p.i.i.f.f.f.f.f.f.f.f.f.f.f.f.f.f.f.f.L.VXZXZXZXZXZXZXZXZXZXZXZXZXZXZXZXZXZXZX",
"ZXZXZXZXZXZXZXZXZXZXZXZXZXZXZXZXZXZXVXY.3.9.9.9.9.9.9.9.9.9.9.9.9.t.t.3.6.R.R.F.3XpXwXR.1.3.t.9.9.9.9.9.9.9.9.9.d.0.a.9.J.VXZXZXZXZXZXZXZXZXZXZXZXZXZXZXZXZXZXZX",
"ZXZXZXZXZXZXZXZXZXZXZXZXZXZXZXZXZXZXVXY.3.9.9.9.9.9.9.9.9.9.9.9.9.9.4.Y.NXfXxXPXFXgXKXKX2Xt.0.9.9.9.9.9.9.9.9.9.9.9.9.9.J.VXZXZXZXZXZXZXZXZXZXZXZXZXZXZXZXZXZXZX",
"ZXZXZXZXZXZXZXZXZXZXZXZXZXZXZXZXZXZXVXY.1.9.9.9.9.9.9.9.9.9.9.9.9.9.1.R.KX XvXXXF U [. XGXAX3.0.9.9.9.9.9.9.9.9.9.9.9.9.J.VXZXZXZXZXZXZXZXZXZXZXZXZXZXZXZXZXZXZX",
"ZXZXZXZXZXZXZXZXZXZXZXZXZXZXZXZXZXZXVXY.3.9.9.9.9.9.9.9.9.9.9.9.9.9.t.1.6.6XKXM.|.fXZ +XJXy.0.9.9.9.9.9.9.9.9.9.9.9.9.9.J.VXZXZXZXZXZXZXZXZXZXZXZXZXZXZXZXZXZXZX",
"ZXZXZXZXZXZXZXZXZXZXZXZXZXZXZXZXZXZXVXY.1.9.9.9.9.9.9.9.9.9.9.9.9.9.9.4.R.sXS.:...8 4 +.ZXd.8.9.9.9.9.9.9.9.9.9.9.9.9.t.J.VXZXZXZXZXZXZXZXZXZXZXZXZXZXZXZXZXZXZX",
"ZXZXZXZXZXZXZXZXZXZXZXZXZXZXZXZXZXZXVXY.3.9.9.9.9.9.9.9.0.9.9.9.t.t.1.L.vX' R a a R p & `.aX1.9.9.9.9.9.9.9.9.9.9.9.9.9.J.VXZXZXZXZXZXZXZXZXZXZXZXZXZXZXZXZXZXZX",
"ZXZXZXZXZXZXZXZXZXZXZXZXZXZXZXZXZXZXVXY.3.9.9.9.9.9.0.6.a.6.6.6.3.1.7.JX-X3 & $ # : O   D SXs.1.9.9.9.3.1.8.t.9.9.9.9.9.J.VXZXZXZXZXZXZXZXZXZXZXZXZXZXZXZXZXZXZX",
"ZXZXZXZXZXZXZXZXZXZXZXZXZXZXZXZXZXZXVXY.1.9.9.9.9.9.4.W.yXuXR.2XR.W.JX|.u O P  XF # < 9 f kXSXG.s.6.6.W.3Xd.4.t.9.9.9.9.J.VXZXZXZXZXZXZXZXZXZXZXZXZXZXZXZXZXZXZX",
"ZXZXZXZXZXZXZXZXZXZXZXZXZXZXZXZXZXZXVXY.3.9.9.9.9.4.H.cXn {.8X&XyXqXOXK T S @XhX].C B [ 5 u &XIX1X1XCXqX}.yXt.8.9.9.9.9.J.VXZXZXZXZXZXZXZXZXZXZXZXZXZXZXZXZXZXZX",
"ZXZXZXZXZXZXZXZXZXZXZXZXZXZXZXZXZXZXVXY.1.9.t.9.4.1.g.tX= 6 ^ w f Q X } E Y zX+X{.oXF X.6 q h _ J N.OX~ T =XP.4.9.9.9.9.J.VXZXZXZXZXZXZXZXZXZXZXZXZXZXZXZXZXZXZX",
"ZXZXZXZXZXZXZXZXZXZXZXZXZXZXZXZXZXZXVXY.3.t.t.1.h.Q.pXrXw *.^ r.v 7 s ` & ].cXOXm.D oXU E { j X s d ( 5 C aXa.<.8.t.9.9.J.VXZXZXZXZXZXZXZXZXZXZXZXZXZXZXZXZXZXZX",
"ZXZXZXZXZXZXZXZXZXZXZXZXZXZXZXZXZXZXVXY.1.9.1.L.UX*XwXn.f w.w.*.w.{ r.g 6 N.DXfXH 1 H b h } ) j { 7 v w L PX,X4Xq.8.9.9.J.VXZXZXZXZXZXZXZXZXZXZXZXZXZXZXZXZXZXZX",
"ZXZXZXZXZXZXZXZXZXZXZXZXZXZXZXZXZXZXVXY.3.1.s.PXK Q Q ^ u ..w.% , + @ ~ k % @XGX[.H F 0 E M 0 w.w.8 g E Y z.} fX4X6.9.9.J.VXZXZXZXZXZXZXZXZXZXZXZXZXZXZXZXZXZXZX",
"ZXZXZXZXZXZXZXZXZXZXZXZXZXZXZXZXZXZXVXY.1.h.NX=X% q s r.] ! } ` q 7 w *.# < #XHXhXl D : i ~ r.r.w._ W [.:Xe t ` DXg.1.t.J.VXZXZXZXZXZXZXZXZXZXZXZXZXZXZXZXZXZXZX",
"ZXZXZXZXZXZXZXZXZXZXZXZXZXZXZXZXZXZXVXY.1.CX/.6 w 8 = g w.9 & h ' } X.P i hXkXfXDXU * F C ; v g h E E N.N.< t |  XSXh.4.J.VXZXZXZXZXZXZXZXZXZXZXZXZXZXZXZXZXZXZX",
"ZXZXZXZXZXZXZXZXZXZXZXZXZXZXZXZXZXZXVXY.1.aXP d *X_ _ ) v . - B.;X;X4XI.:X#X@XkXxX X> K % c.l i n # t ;.] M @.z.6 (.aX1.J.VXZXZXZXZXZXZXZXZXZXZXZXZXZXZXZXZXZXZX",
"ZXZXZXZXZXZXZXZXZXZXZXZXZXZXZXZXZXZXVXY.1.h.UXo.k.N ^ 9 % q +.iX4X4X>X4X>Xb.+XP = K , C.= M.x M.S Y x r h w.X.o.Q (.6X1.J.VXZXZXZXZXZXZXZXZXZXZXZXZXZXZXZXZXZXZX",
"ZXZXZXZXZXZXZXZXZXZXZXZXZXZXZXZXZXZXVXY.1.<.P.PXy   * = 0 m #X>X>X>X>X>X5Xx.: H ].C.- M.> c.x k.c XXb.Q r $ g ^ o.cXd.8.J.VXZXZXZXZXZXZXZXZXZXZXZXZXZXZXZXZXZXZX",
"ZXZXZXZXZXZXZXZXZXZXZXZXZXZXZXZXZXZXVXY.3.3.3XoXy h p y f K kXS.,X1X>X>X:X8XY P LXkXo M.> c.x k.c  Xo.s z.] X L LXg.<.t.J.VXZXZXZXZXZXZXZXZXZXZXZXZXZXZXZXZXZXZX",
"ZXZXZXZXZXZXZXZXZXZXZXZXZXZXZXZXZXZXVXY.<.P.kX$ ;.*.E r 8 W n.:XhX8X3X:XzXFXH X I @X].z.= v.x k.G c ^ , F [ ! O +X!.1.9.J.VXZXZXZXZXZXZXZXZXZXZXZXZXZXZXZXZXZXZX",
"ZXZXZXZXZXZXZXZXZXZXZXZXZXZXZXZXZXZXVXY.<.3X{.f e.7 S p 8 z.=XI.8XD x.NXhXhX< l HX[.@XOXo v.x k.G H b 9 $ = w.e V sX7.0.J.VXZXZXZXZXZXZXZXZXZXZXZXZXZXZXZXZXZXZX",
"ZXZXZXZXZXZXZXZXZXZXZXZXZXZXZXZXZXZXVXY.<.~.[./ *.o C O.,.A.@XI.sXB   oXDXfXfX< A ].oXkX: l.x l.S H w.! h u 8 ;., =Xg.0.J.VXZXZXZXZXZXZXZXZXZXZXZXZXZXZXZXZXZXZX",
"ZXZXZXZXZXZXZXZXZXZXZXZXZXZXZXZXZXZXVXY.<.G.pX) 6 t 9 0 ,.Q.kXI.5X+X  < cXfXDXzXU X   V., v.x l.G S % r M u ] { % =Xd.0.J.VXZXZXZXZXZXZXZXZXZXZXZXZXZXZXZXZXZXZX",
"ZXZXZXZXZXZXZXZXZXZXZXZXZXZXZXZXZXZXVXY.1.7.aXo.2 _ :.g & @XPXI.<XuXH % DX[.F U zX XD % % v.l I = zXFX# 0 w.[ . V uX7.9.J.VXZXZXZXZXZXZXZXZXZXZXZXZXZXZXZXZXZXZX",
"ZXZXZXZXZXZXZXZXZXZXZXZXZXZXZXZXZXZXVXY.1.L.0Xf v {.} *.> t H S M.s C.HXhX1 O F  XxXDX1 . S.C.S.k.$XV.- r Q i 3 _.iX6.t.J.VXZXZXZXZXZXZXZXZXZXZXZXZXZXZXZXZXZXZX",
"ZXZXZXZXZXZXZXZXZXZXZXZXZXZXZXZXZXZXVXY.<.L.lXX.M.oX: ( { { 1 O B.{.oX{.* . G $ A fXhX@X1 o.aX6X,Xh w w.f L +Xa +.SX1.9.J.VXZXZXZXZXZXZXZXZXZXZXZXZXZXZXZXZXZXZX",
"ZXZXZXZXZXZXZXZXZXZXZXZXZXZXZXZXZXZXVXY.3.<.H.JXK } u 4 ..] U * B.].H   k.S M.b.; m.zXzXY   ,X6X,XX.X ] N c.&X{.lXH.4.9.J.VXZXZXZXZXZXZXZXZXZXZXZXZXZXZXZXZXZXZX",
"ZXZXZXZXZXZXZXZXZXZXZXZXZXZXZXZXZXZXVXY.1.0.5XxXw e +XP  .p 1 > M.* B.9 P P G ].+  XxXxXY   M.iX>Xu 5 O.jX{ w kXiX<.t.9.J.VXZXZXZXZXZXZXZXZXZXZXZXZXZXZXZXZXZXZX",
"ZXZXZXZXZXZXZXZXZXZXZXZXZXZXZXZXZXZXmXY.1.R.fXz.*X8 F l.*._ X @ B.y B.= k.x % + X I DXGXP # v.aXE.4 g z.].6 6 +XNXt.8.9.J.VXZXZXZXZXZXZXZXZXZXZXZXZXZXZXZXZXZXZX",
"ZXZXZXZXZXZXZXZXZXZXZXZXZXZXZXZXZXZXVXY.<.P. Xk t.O.5 ~ w.e C , v.y B.* M.x k.- V.sXDXY + D I 5XZ.4 b e.E S $Xo..X!.3.9.J.VXZXZXZXZXZXZXZXZXZXZXZXZXZXZXZXZXZXZX",
"ZXZXZXZXZXZXZXZXZXZXZXZXZXZXZXZXZXZXVXY.1.d.qX2 / e.O.g _ 3 '.OX[ l B.= c.z k.8X/.U P , l.1X,XC.K ( r s n _.e.& .X!.6.9.J.VXZXZXZXZXZXZXZXZXZXZXZXZXZXZXZXZXZXZX",
"ZXZXZXZXZXZXZXZXZXZXZXZXZXZXZXZXZXZXVXY.1.1.SX).  7 n # 0 E hXLXb.$ B.= c.z c.m.m M.C.5XiX6X7Xn.cX} t h o.@.3 V pXs.0.9.J.VXZXZXZXZXZXZXZXZXZXZXZXZXZXZXZXZXZXZX",
"ZXZXZXZXZXZXZXZXZXZXZXZXZXZXZXZXZXZXVXY.<.H.8Xw.] * w % 6 D.PXPXPX; M.> c.z k.y C.iX<X>X6X>XI HXLXN.f e.( 5   +.SX6.9.9.J.VXZXZXZXZXZXZXZXZXZXZXZXZXZXZXZXZXZXZX",
"ZXZXZXZXZXZXZXZXZXZXZXZXZXZXZXZXZXZXVXY.<.~.OXW O.M.- 6 ( xXdX> B u v   l.m k.z v.5X4X5Xx.. < z I *XE v *.z.m 5 oX~.3.9.J.VXZXZXZXZXZXZXZXZXZXZXZXZXZXZXZXZXZXZX",
"ZXZXZXZXZXZXZXZXZXZXZXZXZXZXZXZXZXZXVXY.1.a.UXX.W Z.Q Q z.x.<.(   O }. Xk.$ l.n B.iXS.M.'.S Q e  .e.] q f S.A.  .X~.3.9.J.VXZXZXZXZXZXZXZXZXZXZXZXZXZXZXZXZXZXZX",
"ZXZXZXZXZXZXZXZXZXZXZXZXZXZXZXZXZXZXVXY.3.1.L.DX}.Z.-Xb.-.q.' } ( [ PXLXKX_.m.= l.&XoXFXLXwX<.} _ #.<.^ ].X.m ).sX7.9.9.J.VXZXZXZXZXZXZXZXZXZXZXZXZXZXZXZXZXZXZX",
"ZXZXZXZXZXZXZXZXZXZXZXZXZXZXZXZXZXZXVXY.3.9.6.h.5XwX3XJX-X| R _ } ..w.^.dXJXhXL P  XlX4Xr.=.&.=.)  .-.IXNX|.qX6Xa.2.9.9.J.VXZXZXZXZXZXZXZXZXZXZXZXZXZXZXZXZXZXZX",
"ZXZXZXZXZXZXZXZXZXZXZXZXZXZXZXZXZXZXBXY.1.t.t.4.3.3.1.G.PX$XW  .} _ $.^ %.%.r.H.j.,.%.$.>.,.j 5.3.*.GXSX6.s.q.6.8.9.9.9.J.VXZXZXZXZXZXZXZXZXZXZXZXZXZXZXZXZXZXZX",
"ZXZXZXZXZXZXZXZXZXZXZXZXZXZXZXZXZXZXVXY.1.9.9.9.9.9.9.<.h.PXvX@.T -.$.&.&.~ >.i.=.%.j ^ %.%.>.-.>XKX5X3.8.9.q.9.9.9.9.9.J.VXZXZXZXZXZXZXZXZXZXZXZXZXZXZXZXZXZXZX",
"ZXZXZXZXZXZXZXZXZXZXZXZXZXZXZXZXZXZXVXY.3.9.9.9.9.9.9.t.3.4.6XKXMXD.%.i.$.5.$.,.j >.$.5.>.*.<XGXAXH.1.8.t.9.9.9.9.9.9.9.J.VXZXZXZXZXZXZXZXZXZXZXZXZXZXZXZXZXZXZX",
"ZXZXZXZXZXZXZXZXZXZXZXZXZXZXZXZXZXZXVXY.1.9.9.9.9.9.9.9.t.4.<.h.uXIXHXqX^.,.$.$.%.=.r.:XUXIXAXW.4.1.t.9.9.9.9.9.9.9.9.9.J.VXZXZXZXZXZXZXZXZXZXZXZXZXZXZXZXZXZXZX",
"ZXZXZXZXZXZXZXZXZXZXZXZXZXZXZXZXZXZXVXY.1.9.9.9.9.9.9.9.9.9.t.4.1.t.W.CXIXFXHXlXlXHXHXAXuXG.3.1.0.t.9.9.9.9.9.9.9.9.9.9.J.VXZXZXZXZXZXZXZXZXZXZXZXZXZXZXZXZXZXZX",
"ZXZXZXZXZXZXZXZXZXZXZXZXZXZXZXZXZXZXVXY.3.9.9.9.9.9.9.9.9.9.9.9.t.q.1.1.9.H.~.3X3X!.h.5.1.3.0.9.9.9.9.9.9.9.9.9.9.9.9.9.J.VXZXZXZXZXZXZXZXZXZXZXZXZXZXZXZXZXZXZX",
"ZXZXZXZXZXZXZXZXZXZXZXZXZXZXZXZXZXZXVXY.1.t.9.9.9.9.9.9.9.9.9.9.9.9.9.9.8.3.:.T.T.<.4.0.9.9.9.9.9.9.9.9.9.9.9.9.9.9.9.9.J.VXZXZXZXZXZXZXZXZXZXZXZXZXZXZXZXZXZXZX",
"ZXZXZXZXZXZXZXZXZXZXZXZXZXZXZXZXZXZXBXY.3.9.9.9.9.9.9.9.9.9.9.9.9.9.9.t.8.<.E.9X9XT.<.0.t.9.9.9.9.9.9.9.9.9.9.9.9.9.9.9.J.VXZXZXZXZXZXZXZXZXZXZXZXZXZXZXZXZXZXZX",
"ZXZXZXZXZXZXZXZXZXZXZXZXZXZXZXZXZXZXBXY.1.9.9.9.9.9.9.9.9.9.9.9.9.9.9.4.1.2X9X9X9X9X2X<.8.9.9.9.9.9.9.9.9.9.9.9.9.9.9.9.J.VXZXZXZXZXZXZXZXZXZXZXZXZXZXZXZXZXZXZX",
"ZXZXZXZXZXZXZXZXZXZXZXZXZXZXZXZXZXZXVXY.3.9.9.9.9.9.9.9.9.9.9.9.9.t.4.1.wX9X0XeXrXeX9X1X<.4.t.9.9.9.9.9.9.9.9.9.9.9.9.9.J.VXZXZXZXZXZXZXZXZXZXZXZXZXZXZXZXZXZXZX",
"ZXZXZXZXZXZXZXZXZXZXZXZXZXZXZXZXZXZXVXY.3.9.9.9.9.9.9.9.9.9.9.9.t.4.1.wX9XeXnXmXmXnXeX9XwX3.3.t.9.9.9.9.9.9.9.9.9.9.9.9.J.VXZXZXZXZXZXZXZXZXZXZXZXZXZXZXZXZXZXZX",
"ZXZXZXZXZXZXZXZXZXZXZXZXZXZXZXZXZXZXVXY.1.t.9.9.9.9.9.9.9.9.9.9.6.3.yX9X0XnXVXZXCXVXtX0X9X9X1.3.t.9.9.9.9.9.9.9.9.9.9.9.J.VXZXZXZXZXZXZXZXZXZXZXZXZXZXZXZXZXZXZX",
"ZXZXZXZXZXZXZXZXZXZXZXZXZXZXZXZXZXZXVXY.3.9.9.9.9.9.9.9.9.9.t.3.4.eX9X0XbXmXZXZXZXZXVXbX0X9XeX3.3.t.9.9.9.9.9.9.9.9.9.9.J.VXZXZXZXZXZXZXZXZXZXZXZXZXZXZXZXZXZXZX",
"ZXZXZXZXZXZXZXZXZXZXZXZXZXZXZXZXZXZXVXY.3.9.9.9.9.9.9.9.9.t.1.8.eX9XeXmXVXZXZXZXZXZXCXVXbXeX0XeX8.1.t.9.9.9.9.9.9.9.9.9.J.VXZXZXZXZXZXZXZXZXZXZXZXZXZXZXZXZXZXZX",
"ZXZXZXZXZXZXZXZXZXZXZXZXZXZXZXZXZXZXBXY.1.9.9.9.9.9.9.9.t.<.t.0X9XeXbXVXZXZXZXZXZXZXZXZXVXmXrX9XeX9.1.9.9.9.9.9.9.9.9.9.J.VXZXZXZXZXZXZXZXZXZXZXZXZXZXZXZXZXZXZX",
"ZXZXZXZXZXZXZXZXZXZXZXZXZXZXZXZXZXZXVXY.3.9.9.9.9.9.9.t.<.j.eX9XeXmXVXZXZXZXZXZXZXZXZXZXZXVXbXeXqXeXy.1.t.t.9.9.9.9.9.9.J.VXZXZXZXZXZXZXZXZXZXZXZXZXZXZXZXZXZXZX",
"ZXZXZXZXZXZXZXZXZXZXZXZXZXZXZXZXZXZXVXY.1.t.9.9.9.9.9.1.F.9X9XeXmXVXZXZXZXZXZXZXZXZXZXZXZXZXVXmXeX9X0XF.1.t.9.9.9.9.9.9.J.VXZXZXZXZXZXZXZXZXZXZXZXZXZXZXZXZXZXZX",
"ZXZXZXZXZXZXZXZXZXZXZXZXZXZXZXZXZXZXVXY.3.9.9.9.9.9.<.K.9X9XrXbXVXZXZXZXZXZXZXZXZXZXZXZXZXZXZXVXmXrX9X0XF.1.9.9.9.9.9.9.J.VXZXZXZXZXZXZXZXZXZXZXZXZXZXZXZXZXZXZX",
"ZXZXZXZXZXZXZXZXZXZXZXZXZXZXZXZXZXZXVXY.1.9.9.t.9.1.Y.9X0XrXmXZXZXZXZXZXZXZXZXZXZXZXZXZXZXZXZXZXVXmXrX9X9XY.<.9.9.9.9.9.J.VXZXZXZXZXZXZXZXZXZXZXZXZXZXZXZXZXZXZX",
"ZXZXZXZXZXZXZXZXZXZXZXZXZXZXZXZXZXZXVXY.1.9.t.0.<.E.9X9XtXBXVXZXZXZXZXZXZXZXZXZXZXZXZXZXZXZXZXZXZXZXmXrX9X9XT.<.9.9.9.9.J.VXZXZXZXZXZXZXZXZXZXZXZXZXZXZXZXZXZXZX",
"ZXZXZXZXZXZXZXZXZXZXZXZXZXZXZXZXZXZXVXY.3.t.8.<.<X9X9XtXVXZXZXZXZXZXZXZXZXZXZXZXZXZXZXZXZXZXZXZXZXZXZXmXrX9X9XE.<.0.t.9.J.VXZXZXZXZXZXZXZXZXZXZXZXZXZXZXZXZXZXZX",
"ZXZXZXZXZXZXZXZXZXZXZXZXZXZXZXZXZXZXVXY.3.8.2.>X9X9XtXBXVXZXZXZXZXZXZXZXZXZXZXZXZXZXZXZXZXZXZXZXZXZXZXZXmXtX9X9X2X<.8.t.J.VXZXZXZXZXZXZXZXZXZXZXZXZXZXZXZXZXZXZX",
"ZXZXZXZXZXZXZXZXZXZXZXZXZXZXZXZXZXZXVXY.<.1.1X9X9XrXBXZXZXZXZXZXZXZXZXZXZXZXZXZXZXZXZXZXZXZXZXZXZXZXZXZXVXVXnX0X9X1X3.0.J.VXZXZXZXZXZXZXZXZXZXZXZXZXZXZXZXZXZXZX",
"ZXZXZXZXZXZXZXZXZXZXZXZXZXZXZXZXZXZXVXF.<.wX9X0XtXVXZXZXZXZXZXZXZXZXZXZXZXZXZXZXZXZXZXZXZXZXZXZXZXZXZXZXZXZXVXtX9X9XE.4.F.VXZXZXZXZXZXZXZXZXZXZXZXZXZXZXZXZXZXZX",
"ZXZXZXZXZXZXZXZXZXZXZXZXZXZXZXZXZXZXVXF.wX9XeXnXVXZXZXZXZXZXZXZXZXZXZXZXZXZXZXZXZXZXZXZXZXZXZXZXZXZXZXZXZXZXZXVXtX0X9XJ.y.VXZXZXZXZXZXZXZXZXZXZXZXZXZXZXZXZXZXZX",
"ZXZXZXZXZXZXZXZXZXZXZXZXZXZXZXZXZXZXVXbX9XeXnXVXCXZXZXZXZXZXZXZXZXZXZXZXZXZXZXZXZXZXZXZXZXZXZXZXZXZXZXZXZXZXZXZXVXtX0X0XyXVXZXZXZXZXZXZXZXZXZXZXZXZXZXZXZXZXZXZX",
"ZXZXZXZXZXZXZXZXZXZXZXZXZXZXZXZXZXZXVXrXeXnXVXZXZXZXZXZXZXZXZXZXZXZXZXZXZXZXZXZXZXZXZXZXZXZXZXZXZXZXZXZXZXZXZXZXVXVXnXrXtXVXZXZXZXZXZXZXZXZXZXZXZXZXZXZXZXZXZXZX",
"ZXZXZXZXZXZXZXZXZXZXZXZXZXZXZXZXZXZXVXbXbXVXCXZXZXZXZXZXZXZXZXZXZXZXZXZXZXZXZXZXZXZXZXZXZXZXZXZXZXZXZXZXZXZXZXZXZXZXVXnXbXVXZXZXZXZXZXZXZXZXZXZXZXZXZXZXZXZXZXZX",
"ZXZXZXZXZXZXZXZXZXZXZXZXZXZXZXZXZXZXCXVXVXZXZXZXZXZXZXZXZXZXZXZXZXZXZXZXZXZXZXZXZXZXZXZXZXZXZXZXZXZXZXZXZXZXZXZXZXZXZXVXVXCXZXZXZXZXZXZXZXZXZXZXZXZXZXZXZXZXZXZX",
"ZXZXZXZXZXZXZXZXZXZXZXZXZXZXZXZXZXZXZXCXZXZXZXZXZXZXZXZXZXZXZXZXZXZXZXZXZXZXZXZXZXZXZXZXZXZXZXZXZXZXZXZXZXZXZXZXZXZXZXZXZXZXZXZXZXZXZXZXZXZXZXZXZXZXZXZXZXZXZXZX",
"ZXZXZXZXZXZXZXZXZXZXZXZXZXZXZXZXZXZXZXZXZXZXZXZXZXZXZXZXZXZXZXZXZXZXZXZXZXZXZXZXZXZXZXZXZXZXZXZXZXZXZXZXZXZXZXZXZXZXZXZXZXZXZXZXZXZXZXZXZXZXZXZXZXZXZXZXZXZXZXZX",
"ZXZXZXZXZXZXZXZXZXZXZXZXZXZXZXZXZXZXZXZXZXZXZXZXZXZXZXZXZXZXZXZXZXZXZXZXZXZXZXZXZXZXZXZXZXZXZXZXZXZXZXZXZXZXZXZXZXZXZXZXZXZXZXZXZXZXZXZXZXZXZXZXZXZXZXZXZXZXZXZX"
};
