/* XPM */
static char *ab9e43b2cd3049898d2488d660478d41AMGrL7OCdGH0VDfu[] = {
/* columns rows colors chars-per-pixel */
"80 80 256 2 ",
"   c #151719",
".  c #270200",
"X  c #360A01",
"o  c #361817",
"O  c #36150B",
"+  c #162A1B",
"@  c #3A271C",
"#  c #2A2419",
"$  c #161B27",
"%  c #121B28",
"&  c #2A1B28",
"*  c #1A252B",
"=  c #1B2933",
"-  c #1C3639",
";  c #103B32",
":  c #28272A",
">  c #382726",
",  c #2A362B",
"<  c #37392A",
"1  c #262A35",
"2  c #263839",
"3  c #383638",
"4  c #372D36",
"5  c #581904",
"6  c #4A140B",
"7  c #6D1102",
"8  c #482619",
"9  c #562718",
"0  c #53300E",
"q  c #6E300C",
"w  c #482A27",
"e  c #552824",
"r  c #4A3529",
"t  c #563927",
"y  c #483937",
"u  c #553A36",
"i  c #522B32",
"p  c #69392B",
"a  c #491C25",
"s  c #174B30",
"d  c #2A443A",
"f  c #374738",
"g  c #315236",
"h  c #1F6531",
"j  c #704B14",
"k  c #48452B",
"l  c #574529",
"z  c #474837",
"x  c #584639",
"c  c #585637",
"v  c #495835",
"b  c #774629",
"n  c #7B5626",
"m  c #655639",
"M  c #6C4C32",
"N  c #536836",
"B  c #746F31",
"V  c #665515",
"C  c #173C44",
"Z  c #0F3A41",
"A  c #2A3C43",
"S  c #383C44",
"D  c #353449",
"F  c #4B3D46",
"G  c #1A444C",
"H  c #1A4549",
"J  c #1D4B53",
"K  c #1A4652",
"L  c #1B5556",
"P  c #19574D",
"I  c #274747",
"U  c #364745",
"Y  c #2B5749",
"T  c #39584B",
"R  c #224B54",
"E  c #234D57",
"W  c #24545C",
"Q  c #255B5D",
"!  c #275756",
"~  c #395C54",
"^  c #3A4855",
"/  c #196F52",
"(  c #27675B",
")  c #366458",
"_  c #277658",
"`  c #336E4E",
"'  c #265965",
"]  c #1E6F64",
"[  c #256969",
"{  c #267669",
"}  c #296972",
"|  c #317671",
" . c #484646",
".. c #574746",
"X. c #475A4A",
"o. c #565747",
"O. c #475B56",
"+. c #565857",
"@. c #514B56",
"#. c #664946",
"$. c #695649",
"%. c #76574A",
"&. c #715552",
"*. c #466656",
"=. c #576658",
"-. c #4C6F4E",
";. c #686648",
":. c #766649",
">. c #796756",
",. c #6E7153",
"<. c #5C5864",
"1. c #536E65",
"2. c #716E6A",
"3. c #665C64",
"4. c #8C330B",
"5. c #B13207",
"6. c #952613",
"7. c #C73706",
"8. c #8E5210",
"9. c #AF510F",
"0. c #946815",
"q. c #AD6F16",
"w. c #865726",
"e. c #965938",
"r. c #8F512D",
"t. c #AC5730",
"y. c #986838",
"u. c #906C30",
"i. c #A86929",
"p. c #A97527",
"a. c #B77828",
"s. c #A76836",
"d. c #A77638",
"f. c #B67837",
"g. c #B86C2F",
"h. c #CD500E",
"j. c #CC7010",
"k. c #C67929",
"l. c #CF7731",
"z. c #EE732B",
"x. c #E45F22",
"c. c #905C46",
"v. c #86695A",
"b. c #8E6B52",
"n. c #A76847",
"m. c #B97947",
"M. c #AF724B",
"N. c #887666",
"B. c #8B746A",
"V. c #AD684D",
"C. c #C97A4E",
"Z. c #E07F4A",
"A. c #1A8839",
"S. c #6C8536",
"D. c #1B8A4F",
"F. c #278557",
"G. c #368758",
"H. c #2E9250",
"J. c #34AC53",
"K. c #278567",
"L. c #338E6D",
"P. c #30A168",
"I. c #478459",
"U. c #4C915A",
"Y. c #768C4E",
"T. c #46AF5A",
"R. c #548F6B",
"E. c #6C8A74",
"W. c #51B36D",
"Q. c #6EAD7A",
"!. c #52D06E",
"~. c #66D77C",
"^. c #6ACB79",
"/. c #67EA76",
"(. c #50D964",
"). c #37C356",
"_. c #B78812",
"`. c #B98638",
"'. c #B4892F",
"]. c #95892E",
"[. c #CF9016",
"{. c #EC8D12",
"}. c #F3B613",
"|. c #C88738",
" X c #D7893A",
".X c #D1912F",
"XX c #ED8F33",
"oX c #D5AA33",
"OX c #F2AF31",
"+X c #D7A617",
"@X c #F6D031",
"#X c #FDE931",
"$X c #F1D416",
"%X c #8D9152",
"&X c #B78A4B",
"*X c #90A552",
"=X c #978569",
"-X c #998777",
";X c #8C9073",
":X c #A79176",
">X c #A3AB62",
",X c #C88947",
"<X c #D38E50",
"1X c #E79748",
"2X c #EA9957",
"3X c #EE8F4D",
"4X c #D3AA50",
"5X c #F1AD50",
"6X c #D59266",
"7X c #EC9869",
"8X c #EFB36A",
"9X c #D1A56A",
"0X c #8DD879",
"qX c #F9CD52",
"wX c #FDEA50",
"eX c #F5CF6B",
"rX c #FCE66E",
"tX c #DBCA5C",
"yX c #3D7B86",
"uX c #718F86",
"iX c #51B18A",
"pX c #72B58B",
"aX c #5BCA88",
"sX c #6BDA86",
"dX c #73D18F",
"fX c #66E788",
"gX c #79E797",
"hX c #7AF495",
"jX c #75EC8D",
"kX c #7DEBA6",
"lX c #6DCFA4",
"zX c #3CA082",
"xX c #90918E",
"cX c #AC978A",
"vX c #8DAF92",
"bX c #B8A796",
"nX c #ADADAE",
"mX c #95AFA6",
"MX c #CBB8AB",
"NX c #C8B09C",
"BX c #8CD292",
"VX c #88F898",
"CX c #8DEF95",
"ZX c #90D8A8",
"AX c #96FDA7",
"SX c #8BF2AB",
"DX c #A4F9AB",
"FX c #A8D5A8",
"GX c #FBD888",
"HX c #FFE891",
"JX c #DDD9A8",
"KX c #B6B5C5",
"LX c #9DF6C9",
"PX c #DAD2D5",
"IX c #C4BEC9",
"UX c #847C8B",
/* pixels */
"W W W W ' ' ' ' ' ' yXK yXyXK yX} ] ] ] ] ] ] { } { { K.{ K.K.K.K.yXyX] ] ] ] ] _ _ ( ( ( / ( ( ( Q Q Q L [ W Q ' W W ! E H H E Z C Z ; Z C C - - - - = = = - - ",
"' E W W ' ' ' ' ' ' K yXyXK K yX} } ] ] ] } ] } { } yX{ K.K.zXzXK.] K.K.K.K./ ] _ _ _ { { ( { ) ( ( ' ) ' Q ! L Q W W Q E G H P G G C C H G I C 2 2 2 - - - C - ",
"W ' W ' ^ ' ' ' yXyXK K yXyXyXyX} ] [ [ ] { { { ] { ] ] K.zXaXlXzXK.] ] K.K.K.P.K._ _ { _ _ ( ( ) Q ( ( ( Q ' Q ' Q W W ! R H G R G C C H H H H C - 2 = - - C - ",
"W E W W ' ' ' ' K ' yXyXyXyXyXK } } } { } { } { } { ] yXzXzXiXlXzXK.K.K.P.zXiXaXiXP.F./ ( ( ( ( [ [ ( ( Q ( Q Q Q ! W Q ! ! G H R H Z H H Z - I 2 A 1 - = - = = ",
"W E W ' ' ' ' ' ' ' ' yXyXyXyXyX} } { ] { ] [ { ] yX{ K.yXK.zXzXzXK.K.D.D.D.K.P.kXaXK./ _ _ ( _ ( ( ( ( Q L ! ! Q Q Q ! ! E R H R R G H G H H I A 2 2 - = - - - ",
"W E E ' ' ' ' ' yX' ' ' yXK K yX} } } { { [ { { ] ] yXK.] K.K.K.zXK.K.K.D.D.P.aXkXaXP.D._ _ _ ( ( _ ( ( [ ( [ Q Q ' ! Q W ! G H G R R R G H I I A A A 1 = 2 - - ",
"E E W E E ' ' ' K ' ' yXL yXyXyX} [ [ ] ] ] { { { { | yXK.K.K.K.K.D.D.D.D.P.).fXjX!.H.H.F._ / ` _ ( _ ( ( ( ) ( ~ ' ' ! ! ! R H C K R H H H I I A A 2 - = - - - ",
"E E E ' ' ' ' ' ' ' ' K yXL yXK [ [ ] Q ] ] { { yX{ { K.K.K.K.K.P.D.P.P.).fXhXfX!.).H.A.D./ _ _ _ _ _ _ _ ( [ ) Q ) ) ~ ! ! ! I ; R ! J H d I I I A 2 = = - 2 C ",
"K E E ' ' ' ' ' K L L L } } } ] [ [ Q / L K.[ | | { { | K.K.K.D.D.P.!.aXfXfXfXfX(.P.D.D.D.F.` G._ { K.( I.| | ) ) ) ) ) ' ' ^ R C R ! R I H I I I I 2 2 2 2 2 - ",
"E E E E ! ' W ' ' ' L K L L ] ' L ( ] [ [ { { | { { K.K.K.D.F.P.iXfXfXfXfXfXfX(.).).J.D.H.G.H.F.G.G.G.L.L.` ` ) ) ) ~ ) O.) ! Y C R E I I H I I S S 2 1 - - - - ",
"E R E E W W L J L L L L L L L ' [ [ ( ( / / L.} { G.{ G.K.D.F.P.fX!.aXfXhXfX(.(.(.).).).W.W.T.G.G.W.ZXZXR.` | ` ) ) ~ ~ ) ~ T I R R I R I R I I A U 2 2 = - C 2 ",
"R R R R R R L J K L K ' L L L L L ( L ( _ _ lXlX_ { _ F.G.F.H.^.aX).).!.hX!././.~.!.).fXsXW.iXW.U.aXLXLXZXQ.` ` ) ) ~ ) ~ ~ T I Y H H H G I I I U A A 2 = 1 - - ",
"E E E K J J L J L K K L L L L L ( L / / / _ pXlXG.G._ F.H.A.T.jX).).(.(.fXfXhXhXVXfXfXAXgX^.sX^.P.U.W.ZXLXvX` T ` T T ) ~ T Y Y ^ H ; H I H I I A U S 2 2 2 2 - ",
"C E E K K J J L L L P L L L L L P Q P _ / P L.G.L.G._ G.U.A.T.CX!.).(.(.fXfXhXAXAXhXSXDXVXgXBXW.H.U.H.H.ZXZX` ` ~ ` X.X.O.T T U R C C C - I I I I A U 3 2 A A 2 ",
"R R K K G K J L L L L ' ] L L P P Y ( _ / ` / F.G.H.G.H.A.U.!.jXfX(.).(.fXfXfXSXAXVXAXAXSXVXsXT.U.T.U.G.BXpX` ` -.~ *.*.*.X.T T Y R G C H H I I U A I A 2 U I d ",
"C K E C G G K J L Q ] L K L ] L P ( ( ` _ F.` F.G.` G.H.H.J.^.CXfX(.(.(.(.fXhXhXAXAXAXVXCXsX!.^.^.T.T.Q.BXQ.` -.-.-.*.*.*.*.*.~ I R I C s d I I 2 U 2 S A U d 2 ",
"E K K K K J J H ! E J P ! ' Q L L ( | I._ G.` ` H.U.A.H.T.H.^././././.(.(.jXVXjXVXVXVXVXCXgXW.^.Q.^.0XFXZXQ.` T -.*.*.X.O.*.*.T ~ ! I I I I I I d U I 2 f U U 2 ",
"K K K K G G G P P J L R L Q Q ( P ( ) | | -.I.H.` I.W.0X0XT.!.!./././.(.(.(.fX!.~./.VXVXVX~.G.G.H.W.Q.^.pXR.U.R.1.*.*.=.*.T *.*.*.) ~ Y I d I U - d d U f g g f ",
"C K K K K H J J L ! ! ! ! P ! Q Y ` ` I.` I.G.I.U.J.SXAXDXjX/.!.(.).(.(.(.H.D.D.H.J.!.hXCXW.F.F.G.W.U.h h h g Y -.1.1.1.=.-.*.X.) O.1.' ! I I d d d d g h g k N ",
"K K C K J J J E J W Q Q Q ! Q Y s ` ` I.R.I.U.U.I.J.ZXSXDXVXhX!.).A.A.A.A.A.D.D.D.J.aXkXCXaXF.{ G.U./ s s h s s g ) -.=.=.=.=.1.<.' 1.1.*.~ T U g g f v N v v A.",
"K K K K J K L K J J L ! ) ( ( Y h ` S.I.I.-.G.U.G.U.aXSXkXkXVXfX).J.A.A.h A./ / / D.!.lXgXiXK.{ ` U.` ` ` Y Y *.FX1.T =.E.E.;.-.1.<.} O.~ *.*.-.v g < N S.S.V S.",
"Z Z Z K G K K K J J E ! ! Y Y ` g N I.I.I.I.` I.U.H.T.aX!.).fX/.~.W.H.h D.P.P.T.aXaXkXkXSXiXW.R.iXR.| ( I._ | uXuXX.d v ,.2.,.2.1.1.O.O.O.O.v T N N N S.*XY.S.S.",
"Z Z K Z K K K K E E R R Y Y Y Y N U.R.I.I.R.R.G.h F.G.D.H.J.(.~.sX^.~.^.CXSXkXkXkXgXkXkXsXsXdXBXpXiXR.L.uXR.E.R.~ T g X.,.E.N.;.=.O.O.*.X.o.N N Y.Y.-.S.*X*XS.S.",
"Z Z Z Z K K C K H J ! Y R Y ) ` vXBX;XI.I.-.` s s h U.A.W.SXVX0XVXAXAXVXSXCX^.jXkXhXhXhXsXsX^.sXdXpXuXR.| R.R.E.*.*.*.o.+.,.2.,.=.=.o.v v -.,.E.%X*XY.S.*X*XY.*X",
"K C Z K K R C R E E R Y Y T *.-.Q.Q.Y.R.-.h ; s s s H.H.CXCXDXDXDXAXAXCXCXCXAXCXhXhXhXsX~.sX^.W.W.Q.Q.R.I.E.R.E.1.-.T  .=.2.2.>.2.=.N -.N N *X>XY.Y.%XS.*XtXJXJX",
"C Z C C C G C C C A I ^ ~ ) *.*.-.` ` T + ; s + s h Q.0XDX0X0XCXDXDXDXAXDXVXCXVXkXfXfXsX~.!.T.W.W.H.U.U.U.R.1.E.*.g X.=. .,.;X>.;.Y.;.;.c %XvX%XY.*X>X>XFX0X>X*X",
"C C Z C H C H - - I Y ~ O.*.*.*.*.*.g s s s s g -.Q.FXCXDXCX0XAXAXAXAXVXDXCXVXVXfXfXfXkXkXdXaXgXBXdXQ.Q.E.E.2.1.X.*.1.=. .3.2.2.2.,.,.%X,.Y.%X>X%X*X>X%X*XS.B v ",
"C C C C - H - d I U ~ O.O.*.*.*.) ) d ; d P g *.vXBXFXBXCXDXCXCXCXVXVXCXDXDXVXVXkXkXkXLXkXSXCXCXSXCXFXFXBXvXE.1.uXxX1.1 , +.2.UX,.,.N.,.B ,.%X,.,.,.B c N l c N ",
"C C C C C 2 2 d T T O.X.U U d d ~ s d s I ) R.R.BXQ.BX0X^.BX0X/.hXVXjXgXDXDXVXhXAXLXLXkXlXkXSXVXZXgXZXFXFXmX2.1.uX2.A % 2 S 3  .3.;.>.>.,.,.B c c l k c o.o.o. .",
"C C Z = - 2 d d g X.*.U d , , = H I Y I 1.uXpXuXpXU.Q.dX^.T.^.W./.!.W.~.VXSXjXhXhXkXLXLXLXkXgXBXgXlXZXZXxXuXuXxXnXO.= = 1 A @.3.&.+.2.xX;X$.c ;.c c c c o. .z y ",
"K C C D - d d g f -.=.X.d , 1 1 2 Y I Y E.uXR.Q.Q.W.W.dXdX^.sXfX/.).T.(.~././.fXfXgXkXLXLXlX^.aXlXlXlXpXuXuXxXmX<.= % A * = U F F 3.B.3.&.3.3.o.x o.o. .F F @.@.",
"D C C C - 2 d g f =.,.=. .f U d O.; I 1.uXI.R.R.R.ZXZXdXgXsXsX~.CX/.!.(.T.~.~.!.fXlXlXkXkXkXdXdXlXpXuX1.uXKXxX@.* C C = * * = 1 4 4 F 4 ..>.$...x  ... .F @.F F ",
"2 - - ; - d U v o.;.=X2.o.: 2 ^ U 2 T U E.uXT E.ZXZXZXdXgXhXCXAX0X/.CXCX0XCXCX0X0X^.0XBXFXBXpXvXmXmXKXnXnXuX^ C D Z = = % 1 D & : : > 4 #.&.$...u ..F ..@.F F ..",
"s - - - d I d f c o.,.;X;.< , +.^ A O.d d =.R.ZXFXZXZXZXZXBXBX0X0XCXBXCXAXCX0XBXBXBXvXvX>XvXmXmXnXKXKXUX<.^ C D D % $ $ $ & D F 4 3 > < o.;.$.x ....#.F .. .F F ",
", 2 2 d d d f f v c :.=X>.< # +.U 2 O.+.+.=.1.2.2.R.E.Q.Q.;XQ.BX0XQ.vXvXmXmXpXxXvXZXKXmXmXKXPXPXIXUXD D S ^ A = C % $ $ $ $ D <.y < @ < ..&.$.$.#.#.F F F y u y ",
", , , 2 d d f k z c ;.N.N.x # 3 +., & U +.=.=.O.1.O.-.-.-.-.;.I.2.1.R.1.uXuXuXmXmXKXPXPXPXPXKXUX<.^ @.@.S S D 1 = = 1 % $ & 4 F z r @ < m >.%.$...M F #.x ..z z ",
", d , f f f f z x c :.v.=Xm @ @ 2.o.$     * X.+.<.+.=.=.=.,.2.;X2.xXuXxXKXmX<.KXPXIXIXxX3.F F @.<.S  .S 4 4 1 1 : 1 : $   &   4 o.t @ 8 m :.%.%.#.F ..x x x z k ",
"d , < d f f z z c l m >.;Xm k < y +.f           1 1 S  .+.2.2.xXxXmXxXmXmX<.D <.3.@.S F F ..F @. .S U 3 , 1 , 3 3 4 3 : & > & o r r @ t %.%.%.#.#.#.#.#...x c l ",
"f , f f f v z z z c m :.N.b.m l # f <   % %   % % % 1 : : , 3  .X., f f : S ^ D X. .y z F ..y k  ., : : y +.@.3.@.y  .y y 4 & # @ 8 t M c.>.%.&.%.&.#.#...x x x ",
", , f f U f z z k c m :.m =Xb.c k < # +   % % = 2 1 1 * * 1 2 U T , f 2 * A ^ ^ X. . .f y 3 < , # # f o.2.B.2.3.>.F y ..y > : > w p M c.B.v.v.&.%.&.#.#.m x m x ",
"d f f 3 f f z z v z ;.,.=X=X=X=XB c z #     % % % = 1 1 * = 2 D U D A 2 A A S  .2 3 U 3 4 : : # z E.B.;X;XB.xXB.>.......y r > r a %.b.b.v.c.b.c.&.#.#.&.p F #.p ",
", , f f f f o.=.;.2.xX=X:X%X&X=X=Xb.x : : * % % % $ $ $ % $ = A 1 A 1 = 1 1 1 1 D 1 : : y F ,.xXbXnXcXxXxXB.cX:XB.&.$.#.x 4 : w #.b.V.c.V.b.b.%.%.&.c.#.#.#.#.F ",
"g d , f X.=.o.X.o.;XcX,.%X=X%Xy.&X:X#.w 4 $ % % $ & 1 1 1 $ 1 = = D 1 1 1 , 4 3 D F <.3.UXnXMXcXnXMXMXbXcX-XB.2.B.&.$...u > > t b c.b.V.V.c.c.c.c.r.%.#.p i p p ",
", d g v z f v o.,.vX;XB n n u.d.&XM.e w & & = = & & 4 4 4 4 D D D F F F ....o.#.&.v.cXnXnXcXnXMXnXJXMXcXxXcX:XN.>.#.#...u w > t M c.M.M.:XM.M.y.V.p p #.p p #.p ",
"f f z g z o.,.2.;X;.N c B B u.f.<XM.0 8 4 & & $ & & 4 4 3 S <.2.<.<.@.$.N.N.:.$.v.-XcXNXbXNXMXPXMXMXNXB.-XbXcX-Xv.$.$.x y w w w b M.m.f.i.i.d.u.r.r.p r.p p c.#.",
"o.v f f o.;.,.;.k k c V V 0.,X4X&Xy.9 r > & 1 & : > > y F  .<.2.3.2.2.&.;.:.:.:.=XbXNXNXPXPXMXcXcXbXbXcX=XB.=Xv.>.$.#.x i r w 9 q s.f.`.'.4X8XtXV.t.e.V.n.c.p b ",
"f f k k k k f k k N m V ].9XtX4X&Xn t r 1 = 1 = : : y x .. .+.3.3.UX2.+.l V B %XbXNXJXPXMXbXcXcXcXNXcXcXN.:.v.>.c x x r r w w t y.f.q.|.4XqX5X.X4Xp.i.&Xm.r.6.e.",
"< < < r k l k k c l l B GXHXeX8X4Xb t w > & 1 $ : : 4 y z  .@.3.<.2.3.$.c c m :.=X:XMXMXNXB.-XNXcXNX:X:X=Xb.N.x u t u r 8 w w p 8.,X4XrXqXeXqX5X.X`.g.s.e.c.c.e.",
"f < f k z r u t l t 0 >XHXtXeXrXtXj t i w > # # : , 3 z  ...@.+.3.+.+.>.$.m l m :.:.-XbXcXcXNXMXNXcXcX:Xb.b.v.#.#.v.t t 8 8 8 0 u.4XqXwXoX#XwXqX.X1XZ.l.C.V.c.p ",
"< < < f z t r k l M V u.4X4XtXrXeXw.9 u w a r < < 3 F  .y 3 y ..+...$.,.;.x x :.m b.B.NXB.cXcXxXcXB.:XB.b.B.B.%.v.v.r r l t t t p.eXrX@X+XtX@XwX5X1XZ.Z.C.e.p p ",
"k k k k f < k z k c m B S.].tXrXeXu.0 i i w w @ > 3  .y < w w u ..y ..x ..r $.=X>.v.v.-XB.-XB.B.=X:X:XB.&.v.>.#.u u r 8 8 9 9 b 4XrXrXqXoXqX5X5XXX2X7XC.u.q 0 l ",
"N g k k z c v x c c B V 0.*XtXrXtX&X0 u i > > # > < 3 y y r u .. .y ..y r z >.-Xv.:.v.>.v.B.B.v.B.B.B.&.&.#.x l w w t 9 8 a 9 w.4XwXqXtXoX4X5X1X5X7Xm.r.0 V 0 0 ",
"g v N N ;.c M %.b.:.b.u.].*XtXrX4X&XV t r w > # > , 4 r r r u #.u @.....y ..%.>.>.&.v.N.B.B.B.&.b.c.#.p #.F t k c @ w e e 9 p s.tXwXtX4X1X7X3X7X8XM.n j V 0 j j ",
"N N Y.,.m M M b.e.y.y.w.0.4XtXtX4X4Xn 9 8 @ 8 @ > # > w r u x #.....y ..u ..$.N.v.v.v.N.B.v.v.v.B.c.#.#.#.u r k r @ 8 a 6 7 r.<X_.tXwXqX1X3X3X7Xy.b q V j j 8.y.",
"Y.B N c B n b r.r.p r.4.t.|.'.qX4X8Xd.0 t 8 @ > o o # > r y x ....F y y u x $.N.B.v.>.#.#.c.v.B.v.&.&.#.i t r r w w i e q 4.l.5XtX$X@XqX5X8X6Xr.q q j V 0.f.s.6.",
"N V B M j p p q n.6.6.t.g.Z.q.1X1XeX`.q 0 8 8 @ & & > > y r y u F ....y F u &.&.&.&.v.t &.#.B.v.&.#.#.i e e e 8 w i 8 6 q 8.OXOXwX@X+X5X1Xl.4.7 r.s.'.|.,X&Xn.r.",
"B n n j q 0 4.r.e.t.t.t.x.5.9.l.k.2X5Xw.0 0 8 > > & & > 4 w 4 y F u u F u x ..#.#.x M #.&.v.&.#.F ..r 0 t t e e a e 9 q 8..X@X@X#X#XwXoX8.4.9.k.l.1X1Xf.s.d.&XM.",
"n V j j j 4.r.t.t.V.V.t.r.6.4.q.1X1X5X,Xj 0 t 8 w w o > > 4 4 F i u y r i y u u u u x #.#.#.M F ..z r 8 0 6 8 e e 5 7 8.[.OX}.@X@X@XqX1Xk.k.XXXXXX.Xg.f.s.w.u.p.",
"B n n n w.r.t.r.6.r.6.4.8.w.s.4X5XXX1X5Xp.0 j t e 8 @ o > > 4 a i w w w w w w w w y u u u i i u w > @ 8 8 9 9 5 5 q 8.+XOX}.OXOX[.+XXXOXOXXXXX X Xk.g.f.&Xp.j V ",
"V V V j q j j j r.r.w.w.y.d.&X,X Xj.q.qXtXu.0 t t 8 6 6 a a > o w w i i i r w w w w r i i e w w w > 8 0 O 6 5 5 8.q.@XqX@X}.XX{.5.j.XXXXOX[.[.a.k.|.`.q.p.d.u.B ",
"V V V V V V u.n B b.b.y.y.y.d.g.l.9.[.5XGXtXj q q q 5 q 9 9 a 6 8 a 8 e r w w 8 w @ w o > a a o w # O 8 . 0 j .XqX#X#X}.{.{.j.h.6.h.3Xl.[.a.|.`.a.p.0.q.'.`.&Xd.",
"B :.S.B ].*X*X%X].u.u.u.d.M.f.C.h.g.XXqXeXHXM.q j q 4.q q 9 q 5 6 6 8 a e w 8 @ @ o O o o o o o o O O X 0 ].tXwX#X$X$X}.{.{.j.7.5.5.h.k.g.p.p.'.p.q.p.'.|.`.p.8.",
"Y.Y.%XY.*X*X%Xu.B u.y.n.f.g.e.9.5.j.OXqXrXGX0.5 q q r.t.6.4.6.q t 9 8 8 8 w 8 o o o o o o & o o o a o O 0 tXwX#X$X$X$X}.{.{.z.x.9.7 7 t.g.p.q.i.i.&X,X&Xp.0.q.q.",
"S.S.S.*X%X%XB B B y.n.s.r.q q q 9.j.q.OXeX5X8.q 7 4.j.l.t.8.r.8.w.q q 0 6 6 8 8 o 6 O 6 O o o o o O 6 0 V oX#X#X$X$X}.{.{.z.h.7.4.7 5 4.8.a.`.f.,X&Xf.p.a.q._._.",
"S.S.S.%XB V d.w.y.i.n.e.6 5 q 8.9.j.{.5XeXp.5 4.7 9.[.[.XX+X[.j.q.4.4.q q q 0 9 5 5 q 5 5 9 o o o X p e 5 ,X@X@X}.}.XXx.x.x.h.4.7 6 5 q 0.a.|.`.`.i.0..X[.'.q.+X",
"%XY.:.u.u.n u.w.j i.e.e.6 6 5 4. XOXqXqX5Xj q 8.q.[.OX@X@X@X@X@XXXXX_.q.p.0.8.n 0.8.8.g.i.6 i a o i a 5 q q.q.[.[.j.h.7.5.h.9.5.4.r.i.g._.|.'.f.i.p.q.1X.X[._.OX",
"$.:.:.m B b.u.d.`.9X`.f.7 5 7 q 4.9..X1X<X6 5 0 q.5XqXwXwX#X#X$X@X#X#X@X@X@X@X@XqXwXwXqXtXj 0 O . i &.a 6 p.+X[.j.h.5.x.z.Z.z.l.C.<X<X|..Xa.a.a.'.a._.+X[.+X.X5X",
":.:.b.B u.].0.n &X8X4X1X|.l.k.g.k.j.9.q.8.X O 0 0 oX+X+X@X@X$X@X@X@X}.$X#X#X#XwX@X@XwX+XoXrX0 O 8 . a i . &XOX@XqXXXz.XXz.z.l. X<XC.l.f.a.'.a.a.0.q._.oXoX+XoXqX",
"n.b.u.b.u.u.>X'.p.0.'.'. X1X7X5X1X1X5X|.q 6 . O y.,X9.9.j.OX{.OXq.9.[.+X+X+X@X#X@X@X$X@XOXoX4X0 6 O O &.8 y.5X5XXXXXXXz.z. XXX Xl.k.g.k.k.k.q.q.q.q._.oXoXqXqXrX",
"e.s.r.d.u.&XGXHX,X0.`.,X5X2X3X3X5XOX8X4X5 . . n 9Xd.9.x.h.h.9.5.q 9.qX@XOX+X{.@XOX{.OXOXqXqXrX5X6 X i &.8 q 8XXXXXXXXXXX1XXXl.k.,Xk.g.q.q.0.q.0.'._._.+XqXqXrXrX",
"i.s.d.f.p.f.eXHXGX4Xq.q.l.3X3X5XXXOXeX<X0 . q &Xd.5 7 r.q 7 q 4.9.XXqXOXwXOXh.{.XX{.XXz.5X5X5XeX&XX . w 6 p 6X1X3XXXXX.Xk.k.l.<X Xk.a.q.0.8.0.q._._.[.@XwXrXqX4X",
"s.i.s.d.&Xm.d.,X8X8Xg.g.l.3X3XXXOX1X4XX . X &X8X8.6 6 6 6 7 4.4.h.j.{.{.{.{.x.7.z.z.XXh.z.8XOX5XGX&X. . O p 7X2XXXXXl.j.k. X Xk.i.q.i.p.a.p.q.q.'.+XtXqXqXqX4XoX",
"y.y.&XM.M.f.s.t.g.|.1X3Xl.l.z. XoX4Xw.. . u.9X1X4.5 7 6 6 5 7 7 7 6.5.5.h.x.h.7.7.x.x.7.9.x.5X8X1XGXe.. . X 6XZ.Z.3XXXXX1X<Xk.9.a.'.f.0.'.M.0.0.oXrXoXqXqX_.[.|.",
"n.d.y.u.s.t.g.f.l.C.l.l. X<X<X<Xd.w.6 X b 6X8X1Xg.l.C.V.V.7 6 7 7 7 6.5.6.5.7.x.7.5.6.5.6.5.x.z.5X4X9Xb . 6 C.NX3X3X1Xl.i.t.i.i.`.d.d.M.u.0.u..XeXqXoX.Xq.q.|.|.",
"e.t.y.s.m.m.C.M.&X<X,Xm.&Xy.w.n w.t 0 r.,X7X1X1X2X7X7X7XZ.6.6 7 6 7 7 7 6.5.5.5.x.6.6.5.5.6.5.8.8.,XeX&XO . c.6X7Xl.q.t.g.g.i.r.u.u.u.y.u.n &XtXHXGXtX`.8.0.'.a.",
"i.t.s.M.V.C.C.6XV.n.c.e.b j j V 0 j e.6X7X1X,X2X3X<X3X3XZ.t.r.r.6.6.7 7 7 6.6.h.Z.z.5.6.t.6.7 7 6 ,X6X9Xr.. e n.s.g.g.g.m.V.f.i.8.n n u.n u.&X4X4XrX8X8.j 8.8._.",
"s.m.C.m.M.n.w.M M p t 0 l l x l b n.<X6X2X<X.X,X&X6X4X<X<X,X&X6XC.n.t.6.7 4.XX8X7X8XZ.6.7 7 7 q t.|.,X9Xr.t 9 9 j e.&Xm.n.t.e.y.n n b n n u.'.'.4XHX9Xj j 8.0._.",
"M.M.y.b p t 0 0 0 r l l l l u p &X6X6X,X|. X|.`.<X6X,X|.a.,X6X:X9X7X6XC.Z.7X5XXX3X2X7X6Xr.q t.C.<X,X6Xm.0 8 w u l w.e.s.n.n.e.n w.n n n n n ].].tXHXeX].8.0.].oX",
"t t r r k k k k r r l p q b n.C.C.<X,XC.l.,X,X<X,Xs.i.p._..X2X1X1X4X2X7X8X7X X5X5X X7X8XC.m.2X6XC.M.r.w.p t u r 0 0 w.e.n.c.e.y.w.n c.w.n V 0.oXeXHXJX9X].'.4XtX",
"3 f f f f f f k v k t l b c.M.7X3XC.g.f.|.k.g.g.g.6Xm.a..XXX X2X X.X,X<X3X2X2X1XoX<Xl.g.,X2X<Xs.r.r.e.e.b 8 w y r 0 q r.V.c.w.n u.c.b.n j 0.0.'.HXHXHXNX&X].].+X"
};
