/* XPM */
static char *_a369be679f84f03b28a2c5e4bd684a1iUve44mmtqEbqRFs[] = {
/* columns rows colors chars-per-pixel */
"80 80 213 2 ",
"   c #000001",
".  c #0B0A08",
"X  c #19170A",
"o  c #2C2405",
"O  c #322C15",
"+  c #322B12",
"@  c #1F222A",
"#  c #2F2F2F",
"$  c #4E3B05",
"%  c #554714",
"&  c #544818",
"*  c #4E441B",
"=  c #624E08",
"-  c #645418",
";  c #6D580D",
":  c #77631C",
">  c #554B2B",
",  c #4B4F5D",
"<  c #796D47",
"1  c #64645E",
"2  c #7E7558",
"3  c #47537C",
"4  c #5E6365",
"5  c #7D7567",
"6  c #737A73",
"7  c #7C7D7A",
"8  c #757677",
"9  c #676461",
"0  c #886B04",
"q  c #997400",
"w  c #987703",
"e  c #856E1A",
"r  c #8C741A",
"t  c #967C1D",
"y  c #836E23",
"u  c #8A7729",
"i  c #957E2A",
"p  c #877430",
"a  c #887B4D",
"s  c #847C68",
"d  c #817A73",
"f  c #7E837D",
"g  c #9D800B",
"h  c #AE8904",
"j  c #A78409",
"k  c #BC8E00",
"l  c #B48903",
"z  c #B79107",
"x  c #A3871D",
"c  c #A68716",
"v  c #BA9818",
"b  c #9E8936",
"n  c #AC8E23",
"m  c #A38520",
"M  c #B29425",
"N  c #BA9A28",
"B  c #AB913B",
"V  c #B79C35",
"C  c #A08C3C",
"Z  c #B8A03A",
"A  c #C18F00",
"S  c #C59A02",
"D  c #CC9B02",
"F  c #C99400",
"G  c #D39C00",
"H  c #CDA308",
"J  c #DAA100",
"K  c #DDAB00",
"L  c #D4A807",
"P  c #DAB206",
"I  c #CAA417",
"U  c #D5AB1A",
"Y  c #D9AE1B",
"T  c #D6AB14",
"R  c #DDB21D",
"E  c #E6AC00",
"W  c #EDB300",
"Q  c #E5B70A",
"!  c #E1B61D",
"~  c #E5BA1D",
"^  c #E7BB15",
"/  c #F8BD00",
"(  c #C9A727",
")  c #DBB524",
"_  c #DAB42A",
"`  c #C9A934",
"'  c #E2B720",
"]  c #E5BA22",
"[  c #EBBE23",
"{  c #FAC607",
"}  c #FCCA13",
"|  c #F3C41E",
" . c #F6C617",
".. c #FFD31C",
"X. c #FFDB1F",
"o. c #FFE20C",
"O. c #EEC224",
"+. c #EBC32C",
"@. c #F3C523",
"#. c #F5CA24",
"$. c #FCCD23",
"%. c #F5CC29",
"&. c #FED423",
"*. c #FFDB25",
"=. c #FFDE2A",
"-. c #FAD12C",
";. c #FCD834",
":. c #FFE12A",
">. c #FFE527",
",. c #FFE73A",
"<. c #998946",
"1. c #8B8058",
"2. c #978C58",
"3. c #9E9359",
"4. c #A79349",
"5. c #B29C4D",
"6. c #A89753",
"7. c #BAA557",
"8. c #8A856A",
"9. c #81837D",
"0. c #868877",
"q. c #948A77",
"w. c #939276",
"e. c #9F916B",
"r. c #A09272",
"t. c #B7A576",
"y. c #B7A360",
"u. c #C3AF43",
"i. c #F3CC40",
"p. c #626D97",
"a. c #888A86",
"s. c #928B82",
"d. c #8C938E",
"f. c #97948A",
"g. c #969B95",
"h. c #A79D93",
"j. c #9EA199",
"k. c #AEA28C",
"l. c #ACA794",
"z. c #B7AB9A",
"x. c #BEB08E",
"c. c #969FAC",
"v. c #94A1AC",
"b. c #A3ADA4",
"n. c #A0A4A1",
"m. c #B5ACA3",
"M. c #AAB1AA",
"N. c #BCB5A9",
"B. c #AFB7B0",
"V. c #B5BBB5",
"C. c #B6BBB6",
"Z. c #C1B396",
"A. c #C6BAAC",
"S. c #C9BCAD",
"D. c #C3B5A4",
"F. c #C5BBB3",
"G. c #B6C1B6",
"H. c #BBC3BB",
"J. c #BCC9BD",
"K. c #B7C1B8",
"L. c #CEC0AA",
"P. c #D3C5AD",
"I. c #CEC1B3",
"U. c #C9C6B8",
"Y. c #D4C6B4",
"T. c #D7C9BA",
"R. c #DBCBBB",
"E. c #D7C8B7",
"W. c #E4D3BD",
"Q. c #A3B8CB",
"!. c #A9BAD3",
"~. c #ADC2D8",
"^. c #B2C9DD",
"/. c #BBCDE6",
"(. c #C3CAC4",
"). c #CCD4CC",
"_. c #C9D4C9",
"`. c #DBD1C5",
"'. c #CFDCD0",
"]. c #CFD7D0",
"[. c #D3DCD4",
"{. c #D4D9D4",
"}. c #E4D4C3",
"|. c #ECDAC5",
" X c #ECDCCC",
".X c #E7D7C4",
"XX c #F0DEC9",
"oX c #EEDFD1",
"OX c #D9E7DB",
"+X c #DAE8DB",
"@X c #F4E2CE",
"#X c #FAE6CE",
"$X c #F9E6D1",
"%X c #FFEAD1",
"&X c #F4E2D0",
"*X c #D5DFE7",
"=X c #CDE3FD",
"-X c #C7E0F5",
";X c #D7E9FF",
":X c #DDF1FF",
">X c #E1EEE1",
",X c #E4F3E5",
"<X c #E7F5E8",
"1X c #EAF5EB",
"2X c #EDFBED",
"3X c #F1FCED",
"4X c #E2F4FF",
"5X c #EDFDFF",
"6X c #EBF7F6",
"7X c #F4FFF3",
"8X c #F3FFFE",
"9X c #FDFFFD",
"0X c #F9FFF5",
/* pixels */
"%X%X%X%X%X%X%X%X%X%X%X%X%X%X%X%X%X%X%X%X%X%X%X%X%X%X%X%X%X%X%X%X%X%X%X%X%X%X%X%X%X%X%X%X%X%X%X%X%X%X%X%X%X%X%X%X%X%X%X%X%X%X%X%X%X%X%X%X%X%X%X%X%X%X%X%X%X%X%X%X",
"%X%X%X%X%X%X%X%X%X%X%X%X%X%X%X%X%X%X%X%X%X%X%X%X%X%X%X%X%X%X%X%X%X%X%X%X%X%X%X%X%X%X%X%X%X%X%X%X%X%X%X%X%X%X%X%X%X%X%X%X%X%X%X%X%X%X%X%X%X%X%X%X%X%X%X%X%X%X%X%X",
"%X%X%X%X%X%X%X%X%X%X%X%X%X%X%X%X%X%X%X%X%X%X%X%X%X%X%X%X%X%X%X%X%X%X%X%X%X%X%X%X%X%X%X%X%X%X%X%X%X%X%X%X%X%X%X%X%X%X%X%X%X%X%X%X%X%X%X%X%X%X%X%X%X%X%X%X%X%X%X%X",
"%X%X%X%X%X%X%X%X%X%X%X%X%X%X%X%X%X%X%X%X%X%X%X%X%X%X%X%X%X%X%X%X%X%X%X%X%X%X%X%X%X%X%X%X%X%X%X%X%X%X%X%X%X%X%X%X%X%X%X%X%X%X%X%X%X%X%X%X%X%X%X%X%X%X%X%X%X%X%X%X",
"%X%X%X%X%X%X%X%X%X%X%X%X%X%X%X%X%X%X%X%X%X%X%X%X%X%X%X%X%X%X%X%X%X%X%X%X%X%X%X%X%X%X%X%X%X%X%X%X%X%X%X%X%X%X%X%X%X%X%X%X%X%X%X%X%X%X%X%X%X%X%X%X%X%X%X%X%X%X%X%X",
"%X%X%X%X%X%X%X%X%X%X%X%X%X%X%X%X%X%X%X%X%X%X%X%X%X%X%X%X%X%X%X%X%X%X%X%X%X%X%X%X%X%X%X%X%X%X%X%X%X%X%X%X%X%X%X%X%X%X%X%X%X%X%X%X%X%X%X%X%X%X%X%X%X%X%X%X%X%X%X%X",
"%X%X%X%X%X%X%X%X%X%X%X%X%X%X%X%X%X%X%X%X%X%X%X%X%X%X%X%X%X%X%X%X%X%X%X%X%X%X%X%X%X%X%X%X%X%X%X%X%X%X%X%X%X%X%X%X%X%X%X%X%X%X%X%X%X%X%X%X%X%X%X%X%X%X%X%X%X%X%X%X",
"%X%X%X%X%X%X%X%X%X%X%X%X%X%X%X%X%X%X%X%X%X%X%X%X%X%X%X%X%X%X%X%X%X%X%X%X%X%X%X%X%X%X%X%X%X%X%X%X%X%X%X%X%X%X%X%X%X%X%X%X%X%X%X%X%X%X%X%X%X%X%X%X%X%X%X%X%X%X%X%X",
"%X%X%X%X%X%X%X%X%X%X%X%X%X%X%X%X%X%X%X%X%X%X%X%X%X%X%X%X%X%X%X%X%X%X%X%X%X%X%X%X%X%X%X%X%X%X%X%X%X%X%X%X%X%X%X%X%X%X%X%X%X%X%X%X%X%X%X%X%X%X%X%X%X%X%X%X%X%X%X%X",
"%X%X%X%X%X%X%X%X%X%X%X%X%X%X%X%X%X%X%X%X%X%X%X%X%X%X%X%X%X%X%X%X%X%X%X%X%X%X%X%X%X%X%X%X%X%X%X%X%X%X%X%X%X%X%X%X%X%X%X%X%X%X%X%X%X%X%X%X%X%X%X%X%X%X%X%X%X%X%X%X",
"%X%X%X%X%X%X%X%X%X%X%X%X%X%X%X%X%X%X%X%X%X%X%X%X%X%X%X%X%X%X%X%X%X%X%X%X%X%X%X%X%X%X%X%X%X%X%X%X%X%X%X%X%X%X%X%X%X%X%X%X%X%X%X%X%X%X%X%X%X%X%X%X%X%X%X%X%X%X%X%X",
"%X%X%X%X%X%X%X%X%X%X%X%X%X%X%X%X%X%X%X%X%X%X%X%X%X%X%X%X%X%X%X%X%X%X%X%X%X%X%X%X%X%X%X%X%X%X%X%X%X%X%X%X%X%X%X%X%X%X%X%X%X%X%X%X%X%X%X%X%X%X%X%X%X%X%X%X%X%X%X%X",
"%X%X%X%X%X%X%X%X%X%X%X%X%X%X%X%X%X%X%X%X%X%X%X%X%X%X%X%X%X%X%X%X%X%X%X%X%X%X%X%X%X%X%X%X%X%X%X%X%X%X%X%X%X%X%X%X%X%X%X%X%X%X%X%X%X%X%X%X%X%X%X%X%X%X%X%X%X%X%X%X",
"%X%X%X%X%X%X%X%X%X%X%X%X%X%X%X%X%X%X%X%X%X%X%X%X%X%X%X%X%X%X%X%X%X%X%X%X%X%X%X%X%X%X%X%X%X%X%X%X%X%X%X%X%X%X%X%X%X%X%X%X%X%X%X%X%X%X%X%X%X%X%X%X%X%X%X%X%X%X%X%X",
"%X%X%X%X%X%X%X%X%X%X%X%X%X%X%X%X%X%X%X%X%X%X%X%X%X%X%X%X%X%X%X%X%X%X%X%X%X%X%X%X%X%X%X%X%X%X%X%X%X%X%X%X%X%X%X%X%X%X%X%X%X%X%X%X%X%X%X%X%X%X%X%X%X%X%X%X%X%X%X%X",
"%X%X%X%X%X%X%X%X%X%X%X%X%X%X%X%X%X%X%X%X%X%X%X%X%X%X%X%X%X%X%X%X%X%X%X%X%X%X%X%X%X%X%X%X%X%X%X%X%X%X%X%X%X%X%X%X%X%X%X%X%X%X%X%X%X%X%X%X%X%X%X%X%X%X%X%X%X%X%X%X",
"%X%X%X%X%X%X%X%X%X%X%X%X%X%X%X%X%X%X%X%X%X%X%X%X%X%X%X%X%X%X%X%X%X%X%X%X%X%X%X%X%X%X%X%X%X%X%X%X%X%X%X%X%X%X%X%X%X%X%X%X%X%X%X%X%X%X%X%X%X%X%X%X%X%X%X%X%X%X%X%X",
"%X%X%X%X%XW.%X%X%X%X%X%X%X%X%X%X%X%X%X%X%X%X%X%X%X%X%X%X%X%X%X%X%X%X%X%X%X%X%X%X%X%X%X%X%X%X%X%X%X%X%X%X%X%X%X%X%X%X%X%X%X%X%X%X%X%X%X%X%X%X%X%X%X%X%X}.%X%X%X%X",
"%X%X%X%X$Xa y.}.%X%X%X%X%X%X%X%X%X%X%X%X%X%X%X%X%X%X%X%X%X%X%X%X%X%X%X%X%X%X%X%X%X%X%X%X%X%X%X%X%X%X%X%X%X%X%X%X%X%X%X%X%X%X%X%X%X%X%X%X%X%X%X%X%XR.6.8.%X%X%X%X",
"%X%X%X%X%X@X= 0 7.P.%X%X%X%X%X%X%X%X%X%X%X%X%X%X%X%X%X%X%X%X%X%X%X%X%X%X%X%X%X%X%X%X%X%X%X%X%X%X%X%X%X%X%X%X%X%X%X%X%X%X%X%X%X%X%X%X%X%X%X%X%XP.7.0 ; #X%X%X%X%X",
"%X%X%X%X%X%XoX1 7.j 5.E.%X%X%X%X%X%X%X%X%X%X%X%X%X%X%X%X%X%X%X%X%X%X%X%X%X%X%X%X%X%X%X%X%X%X%X%X%X%X%X%X%X%X%X%X%X%X%X%X%X%X%X%X%X%X%X%X%XE.5.w u.1 oX%X%X%X%X%X",
"%X%X%X%X%X%X%X`.~.U.N w t.XX%X%X%X%X%X%X%X%X%X%X%X%X%X%X%X%X%X%X%X%X%X%X%X%X%X%X%X%X%X%X%X%X%X%X%X%X%X%X%X%X%X%X%X%X%X%X%X%X%X%X%X%X%XXXt.w Z U.~.`.%X%X%X%X%X%X",
"%X%X%X%X%X%X%X%Xl.*X!.l.w c W.%X%X%X%X%X%X%X%X%X%X%X%X%X%X%X%X%X%X%X%X%X%X%X%X%X%X%X%X%X%X%X%X%X%X%X%X%X%X%X%X%X%X%X%X%X%X%X%X%X%X%XS.j c l.!.*Xl.%X%X%X%X%X%X%X",
"%X%X%X%X%X%X%X%XW.6 ].8X/.b A q.%X%X%X%X%X%X%X%X%X%X%X%X%X%X%X%X%X%X%X%X%X%X%X%X%X%X%X%X%X%X%X%X%X%X%X%X%X%X%X%X%X%X%X%X%X%X%X%X%XZ.l b /.5X].7 }.%X%X%X%X%X%X%X",
"%X%X%X%X%X%X%X%X%XN.9X8X9X=X<.l P.%X%X%X%X%X%X%X%X%X%X%X%X%X%X%X%X%X%X%X%X%X%X%X%X%X%X%X%X%X%X%X%X%X%X%X%X%X%X%X%X%X%X%X%X%X%X%XP.A 2.=X9X9X0XN.%X%X%X%X%X%X%X%X",
"%X%X%X%X%X%X%X%X%X Xd.(.K.9X=X4.k .X%X%X%X%X%X%X%X%X%X%X%X%X%X%X%X%X%X%X%X%X%X%X%X%X%X%X%X%X%X%X%X%X%X%X%X%X%X%X%X%X%X%X%X%X%X.Xl <.=X0XK.(.d.XX%X%X%X%X%X%X%X%X",
"%X%X%X%X%X%X%X%X%X%Xg.).b.).9XQ.k Z %X%X%X%X%X%X%X%X%X%X%X%X%X%X%X%X%X%X%X%X%X%X%X%X%X%X%X%X%X%X%X%X%X%X%X%X%X%X%X%X%X%X%X%X%XN k Q.9X).M._.f.%X%X%X%X%X%X%X%X%X",
"%X%X%X%X%X%X%X%X%X%XS.J.9X7X<X:X6.D Y.%X%X%X%X%X%X%X%X%X%X%X%X%X%X%X%X%X%X%X%X%X%X%X%X%X%X%X%X%X%X%X%X%X%X%X%X%X%X%X%X%X%X%XY.D 3.:X<X7X9XG.T.%X%X%X%X%X%X%X%X%X",
"%X%X%X%X%X%X%X%X%X%X%Xa.B.(.<X9Xv.S v &X%X%X%X%X%X%X%X%X%X%X%X%X%X%X%X%X%X%X%X%X%X%X%X%X%X%X%X%X%X%X%X%X%X%X%X%X%X%X%X%X%X$Xv S v.9X<X(.B.a.%X%X%X%X%X%X%X%X%X%X",
"%X%X%X%X%X%X%X%X%X%X%XN.'.].<X2X-Xb W P.%X%X%X%X%X%X%X%X%X%X%X%X%X%X%X%X%X%X%X%X%X%X%X%X%X%X%X%X%X%X%X%X%X%X%X%X%X%X%X%X%XL.E b =X2X,X].'.N.%X%X%X%X%X%X%X%X%X%X",
"%X%X%X%X%X%X%X%X%X%X%XS._.7X,X,X8Xf.J Z %X%X%X%X%X%X%X%X%X%X%X%X%X%X%X%X%X%X%X%X%X%X%X%X%X%X%X%X%X%X%X%X%X%X%X%X%X%X%X%X%XZ J j.9X>X,X7X_.A.%X%X%X%X%X%X%X%X%X%X",
"%X%X%X%X%X%X%X%X%X%X%XT.d.[.1X,X0X/.n K `.%X%X%X%X%X%X%X%X%X%X%X%X%X%X%X%X%X%X%X%X%X%X%X%X%X%X%X%X%X%X%X%X%X%X%X%X%X%X%XT.E n /.0X,X1X[.d.R.%X%X%X%X%X%X%X%X%X%X",
"%X%X%X%X%X%X%X%X%X%X%X}.K.9X1X,X,X5X8.E 5.%X%X%X%X%X%X%X%X%X%X%X%X%X%X%X%X%X%X%X%X%X%X%X%X%X%X%X%X%X%X%X%X%X%X%X%X%X%X%XB E w.5X,X,X<X9XV.|.%X%X%X%X%X%X%X%X%X%X",
"%X%X%X%X%X%X%X%X%X%X%X#Xd.).[.1X,X9X!.c K `.%X%X%X%X%X%X%X%X%X%X%X%X%X%X%X%X%X%X%X%X%X%X%X%X%X%X%X%X%X%X%X%X%X%X%X%X%XP.W x ~.0X,X1X'.).d.%X%X%X%X%X%X%X%X%X%X%X",
"%X%X%X%X%X%X%X%X%X%X%X%Xf.[.OX1X,X,X8Xw.W B %X%X%X%X%X%X%X%X%X%X%X%X%X%X%XE.N.k.l.z.F.|.%X%X%X%X%X%X%X%X%X%X%X%X%X%X%XB W w.8X,X,X1XOX[.f.%X%X%X%X%X%X%X%X%X%X%X",
"%X%X%X%X%X%X%X%X%X%X%X$Xm.7X9X+X,X,X9X!.j W I.%X%X%X%X%X%X%X%X%X%X%X%Xm.< x I L H H v e s }.%X%X%X%X%X%X%X%X%X%X%X%XA./ c ~.9X,X,X+X9X<Xm.%X%X%X%X%X%X%X%X%X%X%X",
"%X%X%X%X%X%X%X%X%X%X%X%XY.g.).H.1X<X<X5Xa.D S oX%X%X%X%X%X%X%X%X$X`.a z  .X...@.@.#.&...Q r s.%X%X%X%X%X%X%X%X%X%X XS F d.8X,X,X1XH.).d.R.%X%X%X%X%X%X%X%X%X%X%X",
"%X%X%X%X%X%X%X%X%X%X%X%X%X9.[.<X2X2X>X3X4Xf J N $X%X%X%X%X%X%X%X`.$ ;.*.O.R ] [ [ [ ' ! $...l 2 %X%X%X%X%X%X%X%X@XN J 0.4X2X>X2X7X<X].a.%X%X%X%X%X%X%X%X%X%X%X%X",
"%X%X%X%X%X%X%X%X%X%X%X%X%XT.J.9X(.K.2X>X7X4Xs D n oX%X%X%X%X%X&X= ,.i.T R R R ] ] ! R ' R Y *.H 5 %X%X%X%X%X%X.XM G f 4X0X>X1XK.(.9XJ.Y.%X%X%X%X%X%X%X%X%X%X%X%X",
"%X%X%X%X%X%X%X%X%X%X%X%X%X%X7 C.B._.2X2X,X0X;Xq.k v N.%X%X%X%X< E [ ~ &.&.~ U R ! Y R $.&.O.) ..w F.%X%X%X%XD.v k s.4X7X,X2X2X_.B.C.9.%X%X%X%X%X%X%X%X%X%X%X%X%X",
"%X%X%X%X%X%X%X%X%X%X%X%X%X%X|.6 9X9X1X_.>X,X0X5Xc.h K 4.T.%XU.h ..! $.n t R &.[ ] $.O.m m %.] ) } y %X$XA.5.P z v.5X7X<X>X_.<X0X9X6 |.%X%X%X%X%X%X%X%X%X%X%X%X%X",
"%X%X%X%X%X%X%X%X%X%X%X%X%X%X%XI.B.9Xn.C.2X<XOX1X9X!.t { P s > ..[ =.y     + %.@.@.%.o     : =.[ *.I 7 t.^ { u !.9X2X+X<X2XC.b.9Xb.I.%X%X%X%X%X%X%X%X%X%X%X%X%X%X",
"%X%X%X%X%X%X%X%X%X%X%X%X%X%X%X%Xf.f 2X9X9XV.U.8X].6X/.a Q o.v M *.(     8 3 $ =.&.b p..     ( &.@.M c o.Q 1./.6X].9XH.V.9X9X1Xa.h.%X%X%X%X%X%X%X%X%X%X%X%X%X%X%X",
"%X%X%X%X%X%X%X%X%X%X%X%X%X%X%X%X%Xq.B.]._.(.9X9XC.2X9X:X4 r ( b :.e     # @ . %.&.* , .     - :.' i ) r 4 4X9X<XG.9X9X(.).].g.h.%X%X%X%X%X%X%X%X%X%X%X%X%X%X%X%X",
"%X%X%X%X%X%X%X%X%X%X%X%X%X%X%X%X%X%X|.h.9 n.[.M.g.(.g.f.F.d m ( >.:         X @.;.o         % :.O.) : F.I.s.j.(.g.M.{.j.9 z.|.%X%X%X%X%X%X%X%X%X%X%X%X%X%X%X%X%X",
"%X%X%X%X%X%X%X%X%X%X%X%X%X%X%X%X%X%X%X%X%X}.D.z.R.R. X%X%Xx.{ $.=.m         O =.:.&         r :.[ >.h  X%X%X|.T.R.z.A.}.%X%X%X%X%X%X%X%X%X%X%X%X%X%X%X%X%X%X%X%X",
"%X%X%X%X%X%X%X%X%X%X%X%X%X%X%X%X%X%X%X%X%X%X%X%X%X%X%X%X%Xr.P ' [ -.+       ( *.-.(       + %.@.' | j T.%X%X%X%X%X%X%X%X%X%X%X%X%X%X%X%X%X%X%X%X%X%X%X%X%X%X%X%X",
"%X%X%X%X%X%X%X%X%X%X%X%X%X%X%X%X%X%X%X%X%X%X%X%X%X%X%X%X%Xk.L | ! @.) - & n :.[ [ >.N & * ( #.R ' ..x }.%X%X%X%X%X%X%X%X%X%X%X%X%X%X%X%X%X%X%X%X%X%X%X%X%X%X%X%X",
"%X%X%X%X%X%X%X%X%X%X%X%X%X%X%X%X%X%X%X%X%X%X%X%X%X%X%X%X%XS.h $.' Y | +.` :.M ( ] n *.:._ ( ~ R ! } p #X%X%X%X%X%X%X%X%X%X%X%X%X%X%X%X%X%X%X%X%X%X%X%X%X%X%X%X%X",
"%X%X%X%X%X%X%X%X%X%X%X%X%X%X%X%X%X%X%X%X%X%X%X%X%X%X%X%X%X@Xe } R ' ! Y I ' i u y m #.! Y R ! ! O.S w.%X%X%X%X%X%X%X%X%X%X%X%X%X%X%X%X%X%X%X%X%X%X%X%X%X%X%X%X%X",
"%X%X%X%X%X%X%X%X%X%X%X%X%X%X%X%X%X%X%X%X%X%X%X%X%X%X%X%X%X%Xq.L -.[ ] ~ ] R R ) V ) R R ' ] ] ] >.0 .X%X%X%X%X%X%X%X%X%X%X%X%X%X%X%X%X%X%X%X%X%X%X%X%X%X%X%X%X%X",
"%X%X%X%X%X%X%X%X%X%X%X%X%X%X%X%X%X%X%X%X%X%X%X%X%X%X%X%X%X#X@X; } R R ] R R R O.$.~ Y R ' R Y | H q.%X%X%X%X%X%X%X%X%X%X%X%X%X%X%X%X%X%X%X%X%X%X%X%X%X%X%X%X%X%X",
"%X%X%X%X%X%X%X%X%X%X%X%X%X%X%X%X%X%X%X%X%X%X%X%X%X%X%X%X%X%X%XF.q *.] R R R U R O.Y Y R Y ' $.} % #X%X%X%X%X%X%X%X%X%X%X%X%X%X%X%X%X%X%X%X%X%X%X%X%X%X%X%X%X%X%X",
"%X%X%X%X%X%X%X%X%X%X%X%X%X%X%X%X%X%X%X%X%X%X%X%X%X%X%X%X%X%X%X%Xf.h ..~ ] R U ' O.R U ] ' @.} = |.%X%X%X%X%X%X%X%X%X%X%X%X%X%X%X%X%X%X%X%X%X%X%X%X%X%X%X%X%X%X%X",
"%X%X%X%X%X%X%X%X%X%X%X%X%X%X%X%X%X%X%X%X%X%X%X%X%X%X%X%X%X%X%X%X%Xs.0 } &.! Y [ [ ' U | &.L & `.%X%X%X%X%X%X%X%X%X%X%X%X%X%X%X%X%X%X%X%X%X%X%X%X%X%X%X%X%X%X%X%X",
"%X%X%X%X%X%X%X%X%X%X%X%X%X%X%X%X%X%X%X%X%X%X%X%X%X%X%X%X%X%X%X%X%X%XA.a w D  .*.=...^ z 0 f.$X%X%X%X%X%X%X%X%X%X%X%X%X%X%X%X%X%X%X%X%X%X%X%X%X%X%X%X%X%X%X%X%X%X",
"%X%X%X%X%X%X%X%X%X%X%X%X%X%X%X%X%X%X%X%X%X%X%X%X%X%X%X%X%X%X%X%X%X%X%X%XI.k.2.a p <.e.z..X$X%X%X%X%X%X%X%X%X%X%X%X%X%X%X%X%X%X%X%X%X%X%X%X%X%X%X%X%X%X%X%X%X%X%X",
"%X%X%X%X%X%X%X%X%X%X%X%X%X%X%X%X%X%X%X%X%X%X%X%X%X%X%X%X%X%X%X%X%X%X%X%X%X%X%X%X%X%X$X%X%X%X%X%X%X%X%X%X%X%X%X%X%X%X%X%X%X%X%X%X%X%X%X%X%X%X%X%X%X%X%X%X%X%X%X%X",
"%X%X%X%X%X%X%X%X%X%X%X%X%X%X%X%X%X%X%X%X%X%X%X%X%X%X%X%X%X%X%X%X%X%X%X%X%X%X%X%X%X%X%X%X%X%X%X%X%X%X%X%X%X%X%X%X%X%X%X%X%X%X%X%X%X%X%X%X%X%X%X%X%X%X%X%X%X%X%X%X",
"%X%X%X%X%X%X%X%X%X%X%X%X%X%X%X%X%X%X%X%X%X%X%X%X%X%X%X%X%X%X%X%X%X%X%X%X%X%X%X%X%X%X%X%X%X%X%X%X%X%X%X%X%X%X%X%X%X%X%X%X%X%X%X%X%X%X%X%X%X%X%X%X%X%X%X%X%X%X%X%X",
"%X%X%X%X%X%X%X%X%X%X%X%X%X%X%X%X%X%X%X%X%X%X%X%X%X%X%X%X%X%X%X%X%X%X%X%X%X%X%X%X%X%X%X%X%X%X%X%X%X%X%X%X%X%X%X%X%X%X%X%X%X%X%X%X%X%X%X%X%X%X%X%X%X%X%X%X%X%X%X%X",
"%X%X%X%X%X%X%X%X%X%X%X%X%X%X%X%X%X%X%X%X%X%X%X%X%X%X%X%X%X%X%X%X%X%X%X%X%X%X%X%X%X%X%X%X%X%X%X%X%X%X%X%X%X%X%X%X%X%X%X%X%X%X%X%X%X%X%X%X%X%X%X%X%X%X%X%X%X%X%X%X",
"%X%X%X%X%X%X%X%X%X%X%X%X%X%X%X%X%X%X%X%X%X%X%X%X%X%X%X%X%X%X%X%X%X%X%X%X%X%X%X%X%X%X%X%X%X%X%X%X%X%X%X%X%X%X%X%X%X%X%X%X%X%X%X%X%X%X%X%X%X%X%X%X%X%X%X%X%X%X%X%X",
"%X%X%X%X%X%X%X%X%X%X%X%X%X%X%X%X%X%X%X%X%X%X%X%X%X%X%X%X%X%X%X%X%X%X%X%X%X%X%X%X%X%X%X%X%X%X%X%X%X%X%X%X%X%X%X%X%X%X%X%X%X%X%X%X%X%X%X%X%X%X%X%X%X%X%X%X%X%X%X%X",
"%X%X%X%X%X%X%X%X%X%X%X%X%X%X%X%X%X%X%X%X%X%X%X%X%X%X%X%X%X%X%X%X%X%X%X%X%X%X%X%X%X%X%X%X%X%X%X%X%X%X%X%X%X%X%X%X%X%X%X%X%X%X%X%X%X%X%X%X%X%X%X%X%X%X%X%X%X%X%X%X",
"%X%X%X%X%X%X%X%X%X%X%X%X%X%X%X%X%X%X%X%X%X%X%X%X%X%X%X%X%X%X%X%X%X%X%X%X%X%X%X%X%X%X%X%X%X%X%X%X%X%X%X%X%X%X%X%X%X%X%X%X%X%X%X%X%X%X%X%X%X%X%X%X%X%X%X%X%X%X%X%X",
"%X%X%X%X%X%X%X%X%X%X%X%X%X%X%X%X%X%X%X%X%X%X%X%X%X%X%X%X%X%X%X%X%X%X%X%X%X%X%X%X%X%X%X%X%X%X%X%X%X%X%X%X%X%X%X%X%X%X%X%X%X%X%X%X%X%X%X%X%X%X%X%X%X%X%X%X%X%X%X%X",
"%X%X%X%X%X%X%X%X%X%X%X%X%X%X%X%X%X%X%X%X%X%X%X%X%X%X%X%X%X%X%X%X%X%X%X%X%X%X%X%X%X%X%X%X%X%X%X%X%X%X%X%X%X%X%X%X%X%X%X%X%X%X%X%X%X%X%X%X%X%X%X%X%X%X%X%X%X%X%X%X",
"%X%X%X%X%X%X%X%X%X%X%X%X%X%X%X%X%X%X%X%X%X%X%X%X%X%X%X%X%X%X%X%X%X%X%X%X%X%X%X%X%X%X%X%X%X%X%X%X%X%X%X%X%X%X%X%X%X%X%X%X%X%X%X%X%X%X%X%X%X%X%X%X%X%X%X%X%X%X%X%X",
"%X%X%X%X%X%X%X%X%X%X%X%X%X%X%X%X%X%X%X%X%X%X%X%X%X%X%X%X%X%X%X%X%X%X%X%X%X%X%X%X%X%X%X%X%X%X%X%X%X%X%X%X%X%X%X%X%X%X%X%X%X%X%X%X%X%X%X%X%X%X%X%X%X%X%X%X%X%X%X%X",
"%X%X%X%X%X%X%X%X%X%X%X%X%X%X%X%X%X%X%X%X%X%X%X%X%X%X%X%X%X%X%X%X%X%X%X%X%X%X%X%X%X%X%X%X%X%X%X%X%X%X%X%X%X%X%X%X%X%X%X%X%X%X%X%X%X%X%X%X%X%X%X%X%X%X%X%X%X%X%X%X",
"%X%X%X%X%X%X%X%X%X%X%X%X%X%X%X%X%X%X%X%X%X%X%X%X%X%X%X%X%X%X%X%X%X%X%X%X%X%X%X%X%X%X%X%X%X%X%X%X%X%X%X%X%X%X%X%X%X%X%X%X%X%X%X%X%X%X%X%X%X%X%X%X%X%X%X%X%X%X%X%X",
"%X%X%X%X%X%X%X%X%X%X%X%X%X%X%X%X%X%X%X%X%X%X%X%X%X%X%X%X%X%X%X%X%X%X%X%X%X%X%X%X%X%X%X%X%X%X%X%X%X%X%X%X%X%X%X%X%X%X%X%X%X%X%X%X%X%X%X%X%X%X%X%X%X%X%X%X%X%X%X%X",
"%X%X%X%X%X%X%X%X%X%X%X%X%X%X%X%X%X%X%X%X%X%X%X%X%X%X%X%X%X%X%X%X%X%X%X%X%X%X%X%X%X%X%X%X%X%X%X%X%X%X%X%X%X%X%X%X%X%X%X%X%X%X%X%X%X%X%X%X%X%X%X%X%X%X%X%X%X%X%X%X",
"%X%X%X%X%X%X%X%X%X%X%X%X%X%X%X%X%X%X%X%X%X%X%X%X%X%X%X%X%X%X%X%X%X%X%X%X%X%X%X%X%X%X%X%X%X%X%X%X%X%X%X%X%X%X%X%X%X%X%X%X%X%X%X%X%X%X%X%X%X%X%X%X%X%X%X%X%X%X%X%X",
"%X%X%X%X%X%X%X%X%X%X%X%X%X%X%X%X%X%X%X%X%X%X%X%X%X%X%X%X%X%X%X%X%X%X%X%X%X%X%X%X%X%X%X%X%X%X%X%X%X%X%X%X%X%X%X%X%X%X%X%X%X%X%X%X%X%X%X%X%X%X%X%X%X%X%X%X%X%X%X%X",
"%X%X%X%X%X%X%X%X%X%X%X%X%X%X%X%X%X%X%X%X%X%X%X%X%X%X%X%X%X%X%X%X%X%X%X%X%X%X%X%X%X%X%X%X%X%X%X%X%X%X%X%X%X%X%X%X%X%X%X%X%X%X%X%X%X%X%X%X%X%X%X%X%X%X%X%X%X%X%X%X",
"%X%X%X%X%X%X%X%X%X%X%X%X%X%X%X%X%X%X%X%X%X%X%X%X%X%X%X%X%X%X%X%X%X%X%X%X%X%X%X%X%X%X%X%X%X%X%X%X%X%X%X%X%X%X%X%X%X%X%X%X%X%X%X%X%X%X%X%X%X%X%X%X%X%X%X%X%X%X%X%X",
"%X%X%X%X%X%X%X%X%X%X%X%X%X%X%X%X%X%X%X%X%X%X%X%X%X%X%X%X%X%X%X%X%X%X%X%X%X%X%X%X%X%X%X%X%X%X%X%X%X%X%X%X%X%X%X%X%X%X%X%X%X%X%X%X%X%X%X%X%X%X%X%X%X%X%X%X%X%X%X%X",
"%X%X%X%X%X%X%X%X%X%X%X%X%X%X%X%X%X%X%X%X%X%X%X%X%X%X%X%X%X%X%X%X%X%X%X%X%X%X%X%X%X%X%X%X%X%X%X%X%X%X%X%X%X%X%X%X%X%X%X%X%X%X%X%X%X%X%X%X%X%X%X%X%X%X%X%X%X%X%X%X"
};
