/* XPM */
static char *_08ea7c315c34ff68408e583c3630fe8M9SqoqkPaMoz9MbS[] = {
/* columns rows colors chars-per-pixel */
"80 80 256 2 ",
"   c #09080A",
".  c #160806",
"X  c #0D130D",
"o  c #181409",
"O  c #050612",
"+  c #050A15",
"@  c #0C0C14",
"#  c #050E1A",
"$  c #0B0D1A",
"%  c #070617",
"&  c #110D15",
"*  c #110D1C",
"=  c #170A18",
"-  c #0E1214",
";  c #04131C",
":  c #0C131C",
">  c #0B191B",
",  c #121216",
"<  c #13131B",
"1  c #1C131C",
"2  c #141B1C",
"3  c #1B1817",
"4  c #280B03",
"5  c #261707",
"6  c #251919",
"7  c #371A17",
"8  c #351306",
"9  c #132718",
"0  c #292306",
"q  c #392409",
"w  c #272419",
"e  c #392618",
"r  c #34341C",
"t  c #080D22",
"y  c #160E23",
"u  c #0D1324",
"i  c #0C1B24",
"p  c #0E1529",
"a  c #0C1C2B",
"s  c #051525",
"d  c #121523",
"f  c #131A25",
"g  c #12152B",
"h  c #151E2D",
"j  c #131B2C",
"k  c #1A1D2C",
"l  c #1C1727",
"z  c #0B1B36",
"x  c #151E31",
"c  c #181936",
"v  c #261A26",
"b  c #241633",
"n  c #0C2126",
"m  c #15212D",
"M  c #1A212D",
"N  c #182425",
"B  c #0B2338",
"V  c #152233",
"C  c #192233",
"Z  c #14233B",
"A  c #1B243A",
"S  c #192A39",
"D  c #16372F",
"F  c #262628",
"G  c #382929",
"H  c #262937",
"J  c #303433",
"K  c #5A1B07",
"L  c #471809",
"P  c #671903",
"I  c #592706",
"U  c #562919",
"Y  c #4F3114",
"T  c #662704",
"R  c #783707",
"E  c #672A16",
"W  c #773817",
"Q  c #6D330C",
"!  c #463529",
"~  c #453936",
"^  c #52332B",
"/  c #673929",
"(  c #703A32",
")  c #2F4637",
"_  c #774719",
"`  c #71480F",
"'  c #534B35",
"]  c #66462C",
"[  c #764728",
"{  c #754935",
"}  c #785737",
"|  c #6D5032",
" . c #75652F",
".. c #524315",
"X. c #131C47",
"o. c #0C2744",
"O. c #162946",
"+. c #19334A",
"@. c #162B56",
"#. c #1A3557",
"$. c #0A304D",
"%. c #243647",
"&. c #23395A",
"*. c #2F324B",
"=. c #0C3768",
"-. c #263661",
";. c #241743",
":. c #473F47",
">. c #135055",
",. c #364646",
"<. c #324E51",
"1. c #306A58",
"2. c #174E73",
"3. c #304F6A",
"4. c #37726C",
"5. c #1F6764",
"6. c #475657",
"7. c #4F514C",
"8. c #6E544A",
"9. c #526B55",
"0. c #736B4F",
"q. c #4F5A6A",
"w. c #4F706D",
"e. c #6C736D",
"r. c #655F6D",
"t. c #873A05",
"y. c #843916",
"u. c #94380C",
"i. c #873B22",
"p. c #AB3F09",
"a. c #864407",
"s. c #984905",
"d. c #995807",
"f. c #874819",
"g. c #99581A",
"h. c #8C5113",
"j. c #B85A09",
"k. c #AB520E",
"l. c #996211",
"z. c #B86806",
"x. c #A96717",
"c. c #B66918",
"v. c #B5720E",
"b. c #884925",
"n. c #885729",
"m. c #955626",
"M. c #855836",
"N. c #975B38",
"B. c #8D4A30",
"V. c #A65625",
"C. c #996939",
"Z. c #956932",
"A. c #AA732A",
"S. c #B57726",
"D. c #AF6D30",
"F. c #C2550B",
"G. c #C66604",
"H. c #C87507",
"J. c #C87817",
"K. c #D87A17",
"L. c #D06D0D",
"P. c #E67715",
"I. c #C67825",
"U. c #D07428",
"Y. c #E2732D",
"T. c #8F704C",
"R. c #A57547",
"E. c #AE7549",
"W. c #8A614F",
"Q. c #CD794A",
"!. c #3E856C",
"~. c #4F8673",
"^. c #6A8378",
"/. c #718D71",
"(. c #77966B",
"). c #BB8318",
"_. c #B58734",
"`. c #938838",
"'. c #D88718",
"]. c #D08812",
"[. c #E98909",
"{. c #E69719",
"}. c #ED9017",
"|. c #D5A51D",
" X c #F4A918",
".X c #DA9826",
"XX c #D08D31",
"oX c #EC952B",
"OX c #D9AD35",
"+X c #F6A827",
"@X c #EAA937",
"#X c #FAAA34",
"$X c #FAB838",
"%X c #EDB32D",
"&X c #F4CB37",
"*X c #DDC82D",
"=X c #9C8654",
"-X c #B08A4F",
";X c #8F916F",
":X c #A78C69",
">X c #9CA570",
",X c #CC904B",
"<X c #D0A951",
"1X c #FAB745",
"2X c #EFAF4F",
"3X c #D7B170",
"4X c #F2BB6B",
"5X c #E49B51",
"6X c #FEC755",
"7X c #FAD24F",
"8X c #FACF70",
"9X c #FDF072",
"0X c #E7D760",
"qX c #013C92",
"wX c #023CAE",
"eX c #094E92",
"rX c #26558F",
"tX c #346D8D",
"yX c #1172B2",
"uX c #2A72AD",
"iX c #185E9E",
"pX c #4B6C88",
"aX c #687A91",
"sX c #1874D0",
"dX c #318D90",
"fX c #0B8BAF",
"gX c #3391B0",
"hX c #32ADB0",
"jX c #1FA2A4",
"kX c #518E8B",
"lX c #6E918B",
"zX c #4C99AC",
"xX c #49AFB2",
"cX c #69A7A5",
"vX c #5DC6B6",
"bX c #0F8AD1",
"nX c #17B2CF",
"mX c #32B2CD",
"MX c #158FF0",
"NX c #2EB0F0",
"BX c #2796E4",
"VX c #53A8C9",
"CX c #31CAD4",
"ZX c #31C9FA",
"AX c #15C8DC",
"SX c #55D6E0",
"DX c #8CAFAA",
"FX c #9BA390",
"GX c #ABC7B1",
"HX c #FFF08E",
"JX c #FFF9A6",
"KX c #E6DC8D",
"LX c #AADDD8",
"PX c #F0FBF3",
"IX c #CFE2DF",
"UX c #C3BB8A",
/* pixels */
", , , , , 2 , - , - @ , @ @ @ @ &   .   - + + ; + ; ; + ; : : : y y y d < i > f i d g g c b c c g f f N N j f k j j m a x a j x g h g j j g j g g g g g p p t y ",
", , , , , , , , - , , - @ @ @ @   O   @ +   - + + ; + ; ; : : $ % $ $ : : > > > 2 d f g g g c x l f f f k N m N j m a m a x a j x j x g j p g g p g g p y p y p ",
", , , , , , , , , $ , @ $ @ @ @ # ; # # + X +   @ X X - @ - : : d : : > > > 2 2 < < < 2 < 2 f 2 f f f N k f m f m m k j h x x j x j j x j j p j p g g u p g p y ",
"- , , < 2 , , , - , @ , , @ @ @ t # # # + + X   . @ @ X $ $ u t ; ; > > > - > - 2 d 1 2 2 2 3 9 2 N f f f m f k n k j k h j x j g x j j x g g g g g g p t y p t ",
", , , , < , , , , , , , @ , @ $ ; ; # # O @ &   @ . & @ $ u u s ; s i i f f g d y g g g f 2 9 > n f f j N j h M m h m h h h h k j j x p j g p j g g d p u p y p ",
", , 2 , , 2 < < , , @ $ & $ @ @ + + # # @ % . . & @ @ * $ t t s s > ; @ - d k b c c c c m n n n f k k k k m k m M M k k h x h h x j g x j x j g g p p p u p p p ",
", X 2 , 3 < , , , < - , $ - @ - X         @ @ @ @ $ $ % $ $ u < o o o o o , d g c c X.c Z V V m m m h m m M C M h k M h k k k h j x j x x p x g p p d g p p u t ",
", 3 , 2 < , < , , - , , , & @ @   . . .   @ @ + % & & & & & o . 4 q Y ..' ! 6 & c z z X.o.Z x V V V V V V V V C h C h M m k k h j x x j x j j g j p p p u p u y ",
", 3 , 3 < , , < < - - - $ $ @ & . .   . @ O O s + ,   . . . 8 Q _.4X8X-X-X=X' o 9 n B o.X.A A H A V V V C C V C C m M M C M M k x V j V j j a x p j j p p y u u ",
", , < < < 2 , , , < , & & @ @ @   & &   O # t O $   7 W.N.[ D.XXXX.XOX)._.-X3X9 9 D o.$.O.X.O.b O.O.O.O.O.A Z V A C C C C M C M h V x j j x j g j j p p p u p s ",
"3 X < < < < < , - , , - @ @ @ @ - O O # t # # -   . U -X,Xk.L.H.H.].'.$XOX0X3X0 9 S o.#.@.-.-.*.%.&.%.+.+.O.A Z A A C C C M M C x x V j a a x j a g p p p u u u ",
"2 , 2 , , 3 , , < $ , @ @ @ @ @ O # # # # u %     I R A.I.K.P.P.[.+X+X$X&X9X3X..w D $.@.@.-.-.-.&.&.&.#.&.%.O.O.S Z V V C C C k m V V x x x j x j p g p p p p u ",
", 2 , < < , , , , , - , & @ @ @ O # s $ O . . 4 } C.g.U.L.'.P.[.{. X%X].7X6X,XY w F +.#.@.@.#.-.&.-.-.3.&.&.#.+.O.S S V A M m M m x x x x x a j j x p p p i p p ",
", , , 3 3 < 2 , - , @ @ @ @ @ O u O O @ . . / T.C.h.g.1X'.}.}. X$X|. X].].2X-X` 5 2 A @.@.@.@.+.#.#.#.#.-.&.&.%.%.O.A Z A C A C V V V h a x x a j p g a p p p p ",
"3 < 2 , < , , , , @ , @ @ O @ @   = . . 4 ] R.E.g.R k.1X2X'.oX.X%X&X7X7X|.@X,Xh.8 0 m O.$.o.$.$.$.#.#.=.&.&.&.&.+.O.O.S S C S V V V V x x x x x x j j p p p p p ",
", , , 2 , < < , - , & @ @ @ @   %   . 4 U b.n.a.a.a.k.XX.X].@X.XOX7X9X7X$X{.#Xl.I Y w N B $.D $.$.@.@.#.#.#.%.D J F w w w N C C V V V V z x a x g j g a p d u u ",
", , 3 , < & = , , @ & @ @     # % % . 4 _ W m.R f.t.s.S.U.K.oX4X9X9XHX9X#X+X X].XXS.C.e m #.$.#.$.$.o.+.*.*.F r  .`.`.`. .0 F S V D z Z Z z V m f N g g g p p s ",
", 3 < , , 3 , , , & @ X @ @ @ # s $ . I R a.R f.` g.S.J.U.oX1X8X0X9XHX9X&X&X}.[.G.J.5X{ N +.B B +.,.+.H H 6 ' R.`.<X_.XX<X=X! F N V Z B o.Z V i f f h l g p i i ",
", < , < < , , , , @ , @ @ @         5 Q R ` ` s.Z.x.c.U.#X1X+XH.$X9XHX9X&X$X X[.[.L.5XC.5 F J ) N N M J 7 } -XD.l.x.h.h._.0X-X0 0 N C Z z Z V i f f j g g p i > ",
"3 , 3 = , < , & , & @ @   @ @       Y ` a.s.g.l.x.A.XXJ.G.j.F.H.{.9X9X9X7X%X X[.P.#X2Xh.Y 8.W.' r F J w ..,XD.t.h.y.f.N.I ` <X-X0 3 M V z z Z i k f j c g g d : ",
", , , < 3 , & , , & @ @ @ @ + @ @   / W _ f.g.m.m.a.t.s.k.p.F.Y.'.6X9X9X9XOX X[.}.6XXXD.-X=XZ.T.' G J 0 -XA.x.D.B.^ Y ] ^ I l.<XY 9 F C a Z B n i j x g g p 2 > ",
", & < < = , , & @ & @ @ @ @ @ @ O @ 7 / Q R P Q K T y.s.p.p.F.F.'.@X9X9X9X|.%X$X6X6XS.Z.A.Z.R.C.0.Y 8 [ _.S.5XZ.7 v H = ! / Y _. .0 6 F h C n n n j a c g p > > ",
", o & < & , & - @ @ @ @ @ O @ $ : = . U / E K K P E y.u.p.p.F.F.L.oX7X9X0X0X7X9X9XXXx.x.h.g.Z.`.R.b.R I.v.XX-Xq G b *.H b ~ Y  .=Xe 5 F h V s m n a x g p p : X ",
", = , , , , , & & @ @ @ + @ $ $ t , . 8 / E W K K K E i.u.p.V.F.c.XX1X$X7XHX9X7X{..XI.g.I.<X . .} R.,XL.c.XX..q v *.v H *.H ' ' :Xe 5 F l A i m n a a a g p 2 - ",
", & X , & , @ & @ $ @ + $ $ $ $ t g & . L / E E P K K ( B.p.p.F.U.L.G.+X6X9X9X|.$XoXc.U.c.Q.` 0.9.9.M.A.g.T } ^ 6 H H J B H ^ { =XY 5 6 M V n n n a a z g i > > ",
", & , , , , , - @ @ @ @ @ $ < t # t % 4 4 U ( E K E E P i.u.p.F.j.s.P.oX7X6X'. X$X1XJ.XXJ.l.Z.0.^./.=XS.N.W | 0.^ 5 N M x *./ B.:X^ 6 w l C m n i p x p p u < - ",
"X , o , , - , , @ $ $ + $ $ u : t p % = . L i.W E P K K y.m.p.u.F.oXoX#X$X}.$X X}.$X1X].c.S.x.R.C.R..XJ.d.R ` _.M.8.^ v b H / [ :X! 6 v f h m n n j a g p p : > ",
", , , , , , @ $ @ @ $ + $ : u t t $   = 4 U B.u.W E K K T T p.Y.#XY.}.[.[.#X+X[.H.].@X|.].XXc.D.V.x.H.H.k.s.d.).h.E.0.v J ! { N.T.r w F h h m i i f j g p p > > ",
"& X , , , - $ - $ @ # $ $ d d u # + X . q _ R P P P I Q a.g.I.2XK.L.z.H.[.}.'.#X1Xv.z.$X@XJ.XXc.S.z.G.J.I.k.I.).` } >X! 7 { i.E.8.r f H V j m > 2 f j g p p s ; ",
"X & , X , , - - - $ @ # u d d $ ; X @ . 8 m.P u.u.s.m.R.,X,XI.z.G.H.G.K.'.z.2XHXHX<Xv.].@X.X].J.H.v.].J.F.c.oXXXn.] =X .U B.V.N...w F C C V f N 2 f g g p u u ; ",
"X , , , , - $ $ $ $ # $ u g d t s % t . L N.V.V.U.Q.Q.E.N.f.s.s.4Xv.].x.G.XX5X3X0XHXOXl.].6X].].].).).l.L.oXoXc.[ { h.v.k.g.E.n.e N C x Z C > f 2 2 f g g p s ; ",
", X , , , - & , $ - $ $ d d g s s t g l . U y.t.y.y.E E T P t.c.8X4Xk.j.F.'.T.0.(.KX0X|.z.2X1Xv.).).XXl.Y.2XU.V.( M.` d.k.D.h...o M H x Z C u l d l d g d u s s ",
"X - - : * * * * < @ O : p p s z s s c t > ' ] I I W L K T P f.g.8XXXu.F.F.k.T.lXlX(.HX*X).v.8X4X2XOXJ.L.}.L.D.| J 8.h.h.Z.W...e H m m S V j k f 2 f < u u u ; ; ",
"X - - * * y y * = @ @ ; a z o.s a s p y D ) | I _ :X{ L K R h.g.XX5Xk.k.L.k.W.DXLX(.0X*X|.d.XXHX4XXX'.'.H.z.T.~ +.' ] Z.T.' e F H z x C V k g f i d i < > : : : ",
"> ; - $ * y y & X @ @ : x O.o.z a i y y ! ] n.I h.<XW.U E D.U.I.d.<Xx.g.c.D.( FXFX:X7X&X#Xz.).7X8X4X,XXXz.S.' D <.:.] B.( G F H H x k S V j f f f d d : > : : : ",
"X ; - $ * $ * & @ & $ # a O.@.z i g c l G } } R g.R./ ^ 8.N.I.I.d.2XA.h.I.Y.B.E.-X,X7X$X+X].OX8XJX4X,Xx.).h.r ) 3.*.8.^ v v *.%.%.V x C k j k f : f d > : : ; ; ",
"X - > @ & , & & @ , - # z O.@.@.z X.X.z ;.W.8.f.A.n.G 7.e.0.D.'.j.XXXXd.S.I.F.j.K.'.#X7X2X<X8XJXJX,X,XHX8X<Xr >.-.6.8.:.v b @.O.+.x x S h j l d f < d : > : ; $ ",
"- - - , @ & & - @ - ; # z X.@.@.@.X.X.X.-.aX8.[ C.` L q.lXr.D.oXz.K.<Xl.J.J.P.L.L.]..X8X8X8XJXJX4Xh.h.8XKXKX1.D 3.*.7.( G ;.+.@.%.C x A k i k f d : : : : : $ ; ",
": - , @ & X X X - - ; s z z O.@.X.@.X.=.uXaXr.] T.U G r.aXtXE.oXG.L.+Xv.G.P.Y.P.L.oXXX2X8XJXHX0XS.d.x.x.HXHX;Xn <.<.' ' G l O.%.%.x x C x f g d < u < : # : # $ ",
"* - - , , @ X @ X # u u z z X.@.X.=.X.=.uXrXW.[ R.U U W.cXaXUX2XL.P.+XH.H.P.P.}.}.'.<XHXJXJX4X).x.d.k.c.OXJXUXD ) ,.7.' J l V O.%.S c S x d f d u < u > : # # # ",
": & , @ , & X X + 2 i s p p z X.X.X.H %.pXpX( / C.I P B.r.e.-X5XL.P.[.{.z.'.P.}.H.@XHXHXJX4XXXx.d.x.k.k.d.KXUXw D ) ' 9.r f H S A A k x h d f f : < : $ : $ # - ",
"< $ - @ X X X X < O : p t z O.t Z t o w r.e.] W C.T P i.8.0.D.Y.Y.F.{.$X X+X}.].1X8XHX8X5XD._.A.m.D.k.p.s.<X:X0 J ) 7.' r 6 H H C Z C x j d d d d u < : : : # # ",
"y < , , - X - - < - $ d j t u m s X Y W M.W.E [ D.I P i.C.R.I.L.Y.F.].{. X X X$X7X6XXX-X-X:XW.Y [ R.D.V.a.T.;XF D J ,.9.~ v H H H A x h g d d d * : $ u $ # # # ",
"$ & & - - X - - + f d d f , @ w 9 o L R a.n.Q _ C.P P y.m.D.J.j.Y.F.'. X X X+X1X@X_.A.E.T.0.) F ! { N.b.b.} T.' F ) <.9.:.v b *.A A x j g d d u < $ - $ : @ # # ",
"* , & , X X - - * $ f < , w r     0 T i.t.t._ M.:XW K P R k.j.z.L.Y.oX X X X XoXA.Z.=X(.' D kXLXe.^ ^ ] (.' 0.e.J J ,.w.:.b b *.A x k j p < u < * y : $ : $ + % ",
"< & , , , , , - < $ * l 3 o o 0 ..n.N.D.a.R n.R.,Xn.Q P t.s.d.v.Y.oX+X+X[.[.H.v.C.;X' ) 9 D LXPXIXr.J ' ;X~.w./.<.D ,.r.7.v H H C x c j g u y u < $ $ $ @ # + # ",
"& , , , , < : d * g * v 6 o e T.3X,XD.m.R ` b.b.N.f.b.f.s.V.c.S.K.oXJ.@X XH.H.x.M.' 9 9 <.e.PXPXPXcX' ) (.~.~.9.^.J ,.e.7.w M S V x j g d u d < $ , $ $ @ % $ + ",
"< , , , - - , $ * d l o 4 ..:X3XS.s.V.R ` _ y.y.W W b.N.V.I.D.D.S.S.t.2X$X%X#X2X .X D 1.lX^.IXPXPXGX1.) /.!.~.w.lX) J w.~ 3 H S x x g g d d d d * $ $ $ $ + + + ",
"- , d * , , , , 2 * 6 5 q <X,Xx.c.x.B.P B.M._ _ ( ( ( B.m.C.N.B._ R t.XX&X*X|.2XZ.r 6.1.~.lXW.PXPXPXw.>.DX~.4.~.(.9.D w.N N H c c l d d * d : * $ $ $ $ $ + % + ",
"- - * d < , , , $ F o 4 A.,XI.U.XXm.Q K / / Q W ( ( ( E I I U U Y W t.c.%X|.%XOX=Xr <.1.!./.lXGXPXPXDX) FX9.~.4.(.9.,.4.N f O.;.h l d d < : d * : $ $ $ $ + + % ",
"< - : y < , , , d l . ] 3XS.,XD.U q 7 U { [ K K L L U 7 0 r J G ! / t.d.2X$X&XOX;X) >.1.1.~.lX/.PXPXLX6.>X0.~.4.9.(.1.>.l v c A k f d < u < u d $ $ $ $ $ $ % + ",
", - : < < , < < d @ 4 T.C.D.-X_ 5 * b G { T.m.R P U e l r J H f J ^ _ t.,X8X|.3X9.1.5.>.!.!.kX^.IXPXIX/.;X(.!.9.9.(.kX+.l F c c g f d d * d $ $ $ $ $ % + # % O ",
", < > < , 3 * d ; 3 L R.g.D.n.L F A c v U C.E.D.D.N.! f N N B s f ! ( y.D.4X2X4X0.<.2.>.5.!.!.~.:XPXPXcX(.;X1.~.w.lXkXo.g H l f f d d u u < : $ $ $ + $ % # + + ",
", , > , 3 = d y i , Y C.h.m.Y 6 h c A v U m.D.x.D.R.) D B B D +.B *.:.( y.3X4XR.FX4.2.5.5.5.4.~.r.IXPXGX!.>X!.~.9.lXq.B j M l d f d : < : : u : : $ $ + + @ % O ",
"< = > > , 1 d d m   ] N.t.f.Y 9 C b H H L [ n.m.m.Z.J o.$.B $.>.>.>.&.6...C.>X) FXFXdXfXdX!.!.~.~.GXIXLX9.(.kX~.e.^.&.B n f f < d < * d d : $ $ $ $ # $ # + + O ",
"* 2 > - 3 = y g i < / N.t.b.5 N S ;.c M 3 | } n.n.} F D 2.2.rXiXdXiXuXpX9. .!.~.9.LXxXgXvXdXdXhXcXdXLXLX~.(.cX!./.e.%.B N 2 d u u < u : u < : $ $ # + + + + + O ",
"< , - > 3 1 d g s 3 U Q f.W 6 m A c Z Z A F ' M.| | 6.-.iXsXsXsXfXfXfXtX9.(.dXjX!.~.LXzXhXhXjXjXxXjXvXSXzXpXDXaXaX6.9 N F < i s : u : : : # s $ $ # # # # # O # ",
"< , > > = 1 y d s ; Y I y.( G M H x Z S +.N e ] ! r r.pXrXsXsXsXbXfXfXdX' /.hXCXxXw.DXvXjXnXnXhXhXnXmXmXzXtXcXaXe.7.3 3 l , j s u : : $ $ u $ : # @ # # O O # + ",
"< : > < < < d g m @ 7 I W { G l k M H b M F Y ..' e 8.r.rXsXsXMXMXMXnXjX9.(.vXAXCXgX;XGXCXAXnXnXnXAXnXmXVXuXtX3.q.J < 3 3 & j s s : : $ : : # $ $ # # O # O # O ",
"< : : > , 1 d p V ; 6 L E { ^ G 1 7 6 1 w ~ ] | ' ^ 0.e.pXuXMXMXMXbXnXdX9.~.hXCXCXxX' >XCXAXAXCXZXZXNXbXiX=.=.q.7.7 3 3 , , a t t : : : # $ : # # # # # + # + + ",
": d u < < 1 < d p t v 7 U { 8.8.^ Y L U ] 8.} | 8.' 8.0.^.tXbXBXNXMXnXmXw.w.xXCXCXhX!.(.vXSXSXZXZXbXeXeX=.eX3.6.*.3 3 6 $ s f t u $ ; $ ; # ; + # # # # + + + + ",
": > u d 2 3 < d g g b v 7 ^ { W.} | { M.M.}  .0.r.~ ' ! e.lXuXBXMXNXMXnXkXw.kXxXhXvX/.9.vXVXNXsXwXwXeXeX=.2.3.6.J = 6 3 : p y y $ : $ ; $ - # + @ # # + + + + O ",
"> u i d < < < d c X.g l 6 L E ( M.M.M.N.n.| 9.w.S O.q.9.9./.tXuXbXNXNXZXVX4./.FXdXdX4.) kXtXqXwXwXwXqXeX2.pXq.,.M - 1 y y y % y $ ; : # # # # ; + # + + # + + O ",
"> : g d 2 < 2 u p c g b v 6 L U / { ( ] [ 8.,.B B +.%.q.) w.4.2.eXyXbXyXyX$.9.;X1.>.1.<.w.pXuXuXwXuXrXrXpXpX6.H 2 - d y y g % g # : # # : # # + ; # + # + + O + ",
": u d d f < f f j j g g l l v F ~ ~ ' :.~ J M S V S m 7.6.7.9.3.rXqXeXeXeXeX3.6.FX9.' 7.kXzXmXBXVXaXkXpXw.r.H F 2 $ $ : d * y $ $ ; + > ; + > $ # + + + O # O + ",
": < : d u f f d j p j j h V x k v k k v M m m m m H f H ,.:.7.6.-.rXiXuXuXgXtX4.<.7.7.9.~.xXSXSXxXlXFXaXq.J , = & , , d d $ @ $ + # # # # + + # @ + + + O O + O ",
"d < d d u f p f j f j j h x x x M l k C m V S A S B V m C H :.q.-.rXrXuXgXgXhXgX4.!.1.!.cXvXxXxX~.6.w.9.J 6 & 1 & d M M M f , $ : : + # + + + # + + + + + O O + ",
": d u < < p f d f p g p j h h h M M C C V B Z Z Z B O.V c H O.*.<.&.-.2.iXiXgXgXhXzX~.kXkX~.4.3.1.,.,.J 1 1 = 1 < f F H H M l f f f > : ; + + + + + + + O + O O ",
": 2 u d i f d f f g j j j g x j j j x B B B z o.o.Z @.o.Z O.z S D S +.@.=.=.2.2.>.3.3.<.7.J :.8.7.J F = = 6 = = & < f M M k d < > > ; + + + + + + + O O O O O O ",
"< u < < d d p f p f j j x x g j j m C Z Z Z o.o.$.o.@.o.o.@.X.O.B B Z o.X.O.@.@.rXq.q.:.:.' ^ ^ G 6 = = = = 1 = < $ $ u d : $ % # + + + + + + + + + + + O O O O ",
"u < u d u f d f g g j j x h g x m V V B B z o.o.@.$.@.@.@.#.@.$.$.B B B Z c O.*.H *.:.*.G G 7 8 v = 1 v = = < @ : $ $ : : $ % * + + + + + + @ ; + O % O O O O O ",
": u < f : d p f d g j j x x x h a j V a Z Z o.O.O.#.-.#.&.&.&.#.=.$.$.O.A C f : k k c g v 1 1 6 1 = 1 y & * < $ $ ; $ < $ % $ * @ # ; + + O O O O @ O O O O O O ",
"< : d d f d f f p f j j j x x x C m m x V Z Z Z O.O.O.@.O.@.@.@.@.@.X.X.a a n n i a s p s i ; > = 1 y $ ; > ; : : # $ $ * * % * # # + @ O + + + O O + O O O O O ",
"u < : d u f f d j p g j h x x k h M k C x V Z Z c O.O.O.O.X.X.O.X.;.X.c m n n n i s z p B s s i d d u : > ; ; ; # : $ $ $ * * % @ + # O # O O + O @ O O O O O O ",
"< u d d : f p f p j j j x k x k k M k C C C V Z c Z Z Z Z O.A X.;.;.c x a m a p a c g c p i s s i : > ; ; ; ; ; # $ $ * * $ $ @ + + + + # O O + O O + O O O O O ",
": : < d d p f f j d j j x x x k k k C k k C C C C Z Z C c A c c ;.b c a B j a x c y b b y g d s u i ; s ; ; ; ; # $ y $ % $ $ # @ # O @ O + + O + O O @ O O O O ",
": d f : f d j d f j j h h x c C V k C V C C C C C C C C A V x V B m B B B B z c b b y b b g y u u u u ; ; s s $ t * % % y % # + + + + + O + O + O O O O @ O O   ",
": < u < u f d f p j g h x x x x V x x V V C C C x V C C V x k x m V n B B B x x g b b y y g g p d d u u ; ; $ $ % * y = % $ # # + + + + % O O O O O O O O O O O ",
"u d < d < f d g f f j x h c x C z x V V Z C C V V C C V V m V x k k x V z B B a n f y d g g g g y g d u u u t u * = % % $ # ; # # + O + O O O O O O O O O O   O ",
"< : u d i d f f j j j h h h x x Z V Z V V V V C V V V C V C V C k k x x z a a i n i 2 d y z g c y y y y u $ $ y = y = y % t ; ; # O + O O O O O O O O O O O O O "
};
