/* XPM */
static char *d5399ee97e534f43ae4efb11ed24f3eaJpGRnV8zUim6NBmd[] = {
/* columns rows colors chars-per-pixel */
"32 32 152 2 ",
"   c #7B393D",
".  c #7A4036",
"X  c #6E3741",
"o  c #723740",
"O  c #3A6E54",
"+  c #277656",
"@  c #2C7359",
"#  c #297C5B",
"$  c #2B7557",
"%  c #3D7057",
"&  c #3F745A",
"*  c #264E6B",
"=  c #27526C",
"-  c #29526D",
";  c #27586C",
":  c #2C5D6C",
">  c #2C5471",
",  c #2C5A7A",
"<  c #395775",
"1  c #3E5A77",
"2  c #385876",
"3  c #365566",
"4  c #3F637C",
"5  c #3C697A",
"6  c #7B5C4C",
"7  c #456751",
"8  c #4A6B53",
"9  c #43735A",
"0  c #7D6244",
"q  c #46536D",
"w  c #545A6D",
"e  c #417E64",
"r  c #4E7768",
"t  c #41647D",
"y  c #436B7E",
"u  c #627E68",
"i  c #873832",
"p  c #983D37",
"a  c #80423A",
"s  c #825A3E",
"d  c #8E5539",
"f  c #90563B",
"g  c #844B47",
"h  c #944946",
"j  c #8A554F",
"k  c #985657",
"l  c #9A5A58",
"z  c #A75651",
"x  c #AC5C5C",
"c  c #9C6A52",
"v  c #9B625E",
"b  c #8B765C",
"n  c #BA615F",
"m  c #9D5B60",
"M  c #9C7D68",
"N  c #AD6663",
"B  c #B06764",
"V  c #BB6260",
"C  c #B36D6D",
"Z  c #A67761",
"A  c #A77A64",
"S  c #B67271",
"D  c #BC7F7F",
"F  c #C16865",
"G  c #C16E6E",
"H  c #C26666",
"J  c #D36464",
"K  c #D76768",
"L  c #C0706E",
"P  c #C87876",
"I  c #D87878",
"U  c #2D8260",
"Y  c #308763",
"T  c #318B66",
"R  c #3F8468",
"E  c #358E6A",
"W  c #3F8564",
"Q  c #36936D",
"!  c #39946E",
"~  c #3A9670",
"^  c #438564",
"/  c #448967",
"(  c #488864",
")  c #43846B",
"_  c #4D8268",
"`  c #438B6C",
"'  c #53826B",
"]  c #46936B",
"[  c #49956D",
"{  c #458D70",
"}  c #5E8370",
"|  c #4C9D7C",
" . c #4C937F",
".. c #5A977F",
"X. c #56997D",
"o. c #599275",
"O. c #678D77",
"+. c #4EA07F",
"@. c #A49C69",
"#. c #315F81",
"$. c #306183",
"%. c #446F8D",
"&. c #5B6F83",
"*. c #44708E",
"=. c #55758B",
"-. c #487290",
";. c #5A7F9A",
":. c #65788F",
">. c #5C829D",
",. c #4EA180",
"<. c #5EA98A",
"1. c #6FA087",
"2. c #60A78A",
"3. c #61AB8D",
"4. c #CE8585",
"5. c #D78484",
"6. c #D8BDBC",
"7. c #D8AAA9",
"8. c #E1BBBB",
"9. c #BFD2D3",
"0. c #C7C7C0",
"q. c #C8C7C1",
"w. c #C0DDD1",
"e. c #CFD8DE",
"r. c #DFDBD8",
"t. c #DBD6DA",
"y. c #D7C7CB",
"u. c #E4C4C4",
"i. c #E7CDCD",
"p. c #EACDCD",
"a. c #E0DADA",
"s. c #EBDCD9",
"d. c #F1DBDA",
"f. c #D4E4DE",
"g. c #D3DCE2",
"h. c #D6E2E5",
"j. c #D5E8E0",
"k. c #D8EAE3",
"l. c #E7EBE7",
"z. c #E5EEEC",
"x. c #F1E6E6",
"c. c #F2EAE7",
"v. c #F4EAE9",
"b. c #F9EAEA",
"n. c #E7F2ED",
"m. c #E9F1EE",
"M. c #E7EDF1",
"N. c #EAEEF1",
"B. c #EAF4F0",
"V. c #FFFFFF",
"C. c #FDFDFD",
"Z. c #FFFFFF",
/* pixels */
"V.V.V.V.V.V.V.V.V.V.V.C.c.l.v.v.b.b.V.V.V.V.V.V.V.V.V.V.V.V.V.V.",
"V.V.V.V.V.V.V.V.V.V.V.s.M u P I I 5.d.m.C.V.V.V.V.V.V.V.V.V.V.V.",
"V.V.V.V.V.V.V.V.V.V.s.Z s 8 n K J K L O.z.V.V.V.V.V.V.V.V.V.V.V.",
"V.V.V.V.V.V.V.V.V.v.A d s 8 x V F V x } z.V.V.V.V.V.V.V.V.V.V.V.",
"V.V.V.V.V.V.V.V.V.c.c d 0 ^ & 9 9 & & | n.V.V.V.V.V.V.V.V.V.V.V.",
"V.V.V.V.V.V.V.V.V.c.c 0 ( ! W Q Q W Q +.n.V.V.V.V.V.V.V.V.V.V.V.",
"V.V.V.V.V.V.V.V.V.c.b ( Q / 0 / / 6 R ,.n.V.V.V.V.V.V.V.V.V.V.V.",
"V.V.V.V.V.V.V.V.C.n.X.Q Q Q ! ! Q / Q ,.n.V.V.V.V.V.V.V.V.V.V.V.",
"V.V.V.V.V.V.V.V.V.B.3.Q ! ! ! [ [ ~ Q 3.m.V.V.V.V.V.V.V.V.V.V.V.",
"V.V.V.V.V.V.V.V.V.C.k.<.! Q ] @.@.[ <.j.V.V.V.V.V.V.V.V.V.V.V.V.",
"V.V.V.V.V.V.V.V.V.V.V.k.<.~ ! ] ] | j.V.V.V.V.V.V.V.V.V.V.V.V.V.",
"V.V.V.V.V.V.V.V.V.V.B.n.9.+.E U # { f.V.V.V.V.V.V.V.V.V.V.V.V.V.",
"V.V.V.V.V.V.V.C.B.j.3.| ,.~ Q Q Q Q <.j.B.V.V.V.V.V.V.V.V.V.V.V.",
"V.V.V.V.V.V.C.f.<.| ! Q Q ! Q Q Q Q Q | 3.k.V.V.V.V.V.V.V.V.V.V.",
"V.V.V.V.V.V.a.O.@ T Q Q Q Q T % % W Q E ! <.j.V.V.V.V.V.V.V.V.V.",
"V.V.V.V.V.v.z g 7 ) ` E $ E r l h . _ ` Q Q <.k.V.V.V.V.V.V.V.V.",
"V.V.V.V.C.x.G 7.S r.f.` U ) 0.p.8.C s.f.X.E Q <.k.V.V.V.V.V.V.V.",
"V.V.V.V.C.C.d.4.d.V.m.` T & B H P u.C.V.h.X.E Q <.k.V.V.V.V.V.V.",
"V.V.V.V.V.V.C.s.C.V.z.` T e 6.i.6.D v.V.V.f.X.E Q <.B.V.V.V.V.V.",
"V.V.V.V.V.V.x.C x.V.z.` # % N N C 8.C.V.V.V.f.` T +.n.V.V.V.V.V.",
"V.V.V.V.V.V.x.x x.V.z.) + & 0.i.8.4.b.V.V.V.m...` 3.B.V.V.V.V.V.",
"V.V.V.V.V.V.x.C x.V.n.) $ $ r k l y.C.V.V.V.V.z.n.m.C.V.V.V.V.V.",
"V.V.V.V.V.V.C.v.C.V.g.5 = = - q q ;.g.V.V.V.V.V.V.V.V.V.V.V.V.V.",
"V.V.V.V.V.V.V.V.V.z.=.- - * 2 X o t ;.g.C.V.V.V.V.V.V.V.V.V.V.V.",
"V.V.V.V.V.V.V.V.V.z.t = , > t w   < $.>.N.V.V.V.V.V.V.V.V.V.V.V.",
"V.V.V.V.V.V.V.V.V.M.t = , t e.g.&.> , -.g.V.V.V.V.V.V.V.V.V.V.V.",
"V.V.V.V.V.V.V.V.V.e.t > > =.N.V.g.=.> $.>.N.V.V.V.V.V.V.V.V.V.V.",
"V.V.V.V.V.V.V.V.B.=.- * 1 g.V.V.V.g.$., -.M.V.V.V.V.V.V.V.V.V.V.",
"V.V.V.V.V.V.V.C.a.t * * =.N.V.V.V.z.%.* %.g.V.V.V.V.V.V.V.V.V.V.",
"V.V.V.V.V.V.V.x.v 3 ; 5 9.C.V.V.V.z. .: 1 :.a.V.V.V.V.V.V.V.V.V.",
"V.V.V.V.V.V.V.x.j 9 e ) 1.m.V.V.V.n.| ^ g   v c.V.V.V.V.V.V.V.V.",
"V.V.V.V.V.V.V.z.}   i p z v.V.V.V.n.+.! ( ^ o.n.V.V.V.V.V.V.V.V."
};
