/* XPM */
static char *ab0f61b296b94bf9a97f2b8e1b18fcea0xIpXHjx13QlvVRY[] = {
/* columns rows colors chars-per-pixel */
"80 80 256 2 ",
"   c #221220",
".  c #553233",
"X  c #1B2953",
"o  c #603B48",
"O  c #37545E",
"+  c #655E5D",
"@  c #505A36",
"#  c #922E36",
"$  c #B4710E",
"%  c #B3782B",
"&  c #9D5E31",
"*  c #CB7912",
"=  c #CD7132",
"-  c #943450",
";  c #B03556",
":  c #B43766",
">  c #981D49",
",  c #C9325D",
"<  c #CA3767",
"1  c #D7386B",
"2  c #D83B74",
"3  c #CA316B",
"4  c #E53A77",
"5  c #EB3972",
"6  c #904657",
"7  c #B04D59",
"8  c #B07550",
"9  c #915666",
"0  c #BA4968",
"q  c #B75B77",
"w  c #B2516C",
"e  c #906E73",
"r  c #B7667B",
"t  c #B36D73",
"y  c #8E6F57",
"u  c #C9456A",
"i  c #D94577",
"p  c #C65776",
"a  c #D75579",
"s  c #D04C6E",
"d  c #E54779",
"f  c #E94D7A",
"g  c #C76677",
"h  c #D46879",
"j  c #CE7373",
"k  c #DD725E",
"l  c #719370",
"z  c #3FA57E",
"x  c #B79818",
"c  c #B29012",
"v  c #B9A61B",
"b  c #B4912F",
"n  c #B9AC2D",
"m  c #99902A",
"M  c #CA8F16",
"N  c #C8A819",
"B  c #D6A91A",
"V  c #C7B41B",
"C  c #D4AF13",
"Z  c #E2B119",
"A  c #CA9A26",
"S  c #CD912F",
"D  c #CAA824",
"F  c #D5A826",
"G  c #C8B626",
"H  c #D6B426",
"J  c #D6B835",
"K  c #CCAE36",
"L  c #E6B330",
"P  c #D4CA36",
"I  c #E3D035",
"U  c #96995B",
"Y  c #939552",
"T  c #B0974C",
"R  c #B5AD4F",
"E  c #989B69",
"W  c #9A9B75",
"Q  c #918F70",
"!  c #A39B6C",
"~  c #A59A78",
"^  c #B18D73",
"/  c #97A36B",
"(  c #9BA374",
")  c #9CA47B",
"_  c #98A778",
"`  c #8EA773",
"'  c #A2A374",
"]  c #A2A57C",
"[  c #A7AA7A",
"{  c #B1B172",
"}  c #90A45D",
"|  c #CB934C",
" . c #CDAF4F",
".. c #E7B149",
"X. c #CC8B70",
"o. c #D2AD72",
"O. c #E8B173",
"+. c #E98A71",
"@. c #A7C76C",
"#. c #CFC84A",
"$. c #E8CD4F",
"%. c #D0CA6E",
"&. c #F0CF70",
"*. c #F7EE74",
"=. c #DCE465",
"-. c #576F9D",
";. c #B7708B",
":. c #A86984",
">. c #D85A87",
",. c #CD5589",
"<. c #E84A84",
"1. c #E95588",
"2. c #F5548A",
"3. c #F3558E",
"4. c #C76788",
"5. c #D86888",
"6. c #D8768A",
"7. c #C96A95",
"8. c #D66795",
"9. c #C97797",
"0. c #D87699",
"q. c #C97789",
"w. c #E66698",
"e. c #E77393",
"r. c #D878A7",
"t. c #D372A8",
"y. c #E777A7",
"u. c #E77AB4",
"i. c #FA79B6",
"p. c #F170A9",
"a. c #F255A4",
"s. c #F47BC1",
"d. c #E33E81",
"f. c #34AC9D",
"g. c #52B694",
"h. c #72AF91",
"j. c #7192AF",
"k. c #52B9AA",
"l. c #71AFAC",
"z. c #618DA6",
"x. c #3AC7B4",
"c. c #2CC798",
"v. c #49C5AD",
"b. c #6BC5A6",
"n. c #3D8DFE",
"m. c #3C93FE",
"M. c #3B98F7",
"N. c #3C97ED",
"B. c #33AED9",
"V. c #568DD6",
"C. c #6D96CF",
"Z. c #55AFD0",
"A. c #74A5D0",
"S. c #4A97EA",
"D. c #438EFE",
"F. c #4A8DFB",
"G. c #4393FE",
"H. c #4A93FE",
"J. c #449CFD",
"K. c #4B9DFD",
"L. c #4897F4",
"P. c #5596FC",
"I. c #548EED",
"U. c #669BFC",
"Y. c #6D98EF",
"T. c #48A3FB",
"R. c #58A8F9",
"E. c #75A9FD",
"W. c #6EAEF5",
"Q. c #31D6DF",
"!. c #61C5E0",
"~. c #92918D",
"^. c #A89A86",
"/. c #B4928E",
"(. c #9DAA84",
"). c #98A787",
"_. c #8FB090",
"`. c #A3AB84",
"'. c #A5A888",
"]. c #A8B388",
"[. c #A7A896",
"{. c #B5B798",
"}. c #B2B190",
"|. c #B492A7",
" X c #8DAFAB",
".X c #B1ADAC",
"XX c #8C95AB",
"oX c #C88896",
"OX c #C6969A",
"+X c #D18B8F",
"@X c #E98E94",
"#X c #CBAE92",
"$X c #EEB690",
"%X c #D291AD",
"&X c #E784A8",
"*X c #E985B7",
"=X c #F886B9",
"-X c #EE95AE",
";X c #C6A7A8",
":X c #D1ADB3",
">X c #F1ADB0",
",X c #B7C990",
"<X c #97C6AA",
"1X c #B5CEAD",
"2X c #ABDEA7",
"3X c #CDD292",
"4X c #F0CE92",
"5X c #EEED91",
"6X c #D2D1AF",
"7X c #F9C8A8",
"8X c #FBCAB6",
"9X c #F9D7B7",
"0X c #EDD1B0",
"qX c #DBE7BA",
"wX c #D6EDAF",
"eX c #E6E8B9",
"rX c #F9F7B8",
"tX c #EEEBAF",
"yX c #D7EB96",
"uX c #8EB0D3",
"iX c #8CB3F4",
"pX c #9CAEDB",
"aX c #FC89C6",
"sX c #F58EC9",
"dX c #D8BACC",
"fX c #D4B5CA",
"gX c #E6BBD5",
"hX c #EBB2C9",
"jX c #DD8FC2",
"kX c #98C9CF",
"lX c #93C5F9",
"zX c #ACD2F4",
"xX c #AFDDD9",
"cX c #D5C9CF",
"vX c #FCD8C8",
"bX c #E5C4D8",
"nX c #FDD7D6",
"mX c #F3CECC",
"MX c #DDE9C7",
"NX c #D7F1D0",
"BX c #E4EAC3",
"VX c #E5E8C6",
"CX c #FBE5C9",
"ZX c #E6F5C8",
"AX c #F8F9C6",
"SX c #E4EBD5",
"DX c #FCE5D7",
"FX c #E8F7D8",
"GX c #F4F8D7",
"HX c #D3D1E6",
"JX c #EACEE6",
"KX c #DBFDFC",
"LX c #CDEDF1",
"PX c #E8FBE6",
"IX c #E5FDFA",
"UX c #F6F4ED",
/* pixels */
"LXzXpXkXpXzXzXzXlXlXzXlXlXlXW.W.W.W.W.W.W.!.A.S.R.W.R.W.C.C.C.Y.P.P.Y.W.R.U.R.W.Z.A.zXiXiXU.W.!.E.Y.I.I.H.H.D.n.m.G.H.L.I.S.F.F.m.m.m.D.D.D.D.m.N.N.N.M.n.D.F.S.",
"IXIXIXHXxXkXpXkXzXzXlXiXlXE.lXW.lXW.W.R.R.W.W.U.R.R.R.Y.uXzXkXA.A.Y.C.V.Y.P.R.U.A.A.LXY.Y.U.R.W.E.E.U.P.M.m.m.K.G.G.H.L.L.F.F.D.m.m.m.M.D.n.n.D.M.N.M.n.n.D.D.D.",
"MXNXNXPXIXPXLXzXzXlXzXzXlXlXlXlXiXW.E.E.E.E.U.U.R.W.E.A. X.X{.[.[. X Xl.Y.Y.U.Y.uXkXxXl.V.I.P.P.R.R.R.T.T.N.N.T.J.J.L.G.m.m.m.m.m.M.M.M.n.n.G.m.N.N.M.n.n.D.n.N.",
"wXwXwXMXNXPXPXKXKXLXzXiXlXiXiXW.W.E.E.Y.E.E.E.E.U.I.C.uX{.{ }.o.#X{.,X XXXC.C.C.<XxXxXl.C.P.P.P.T.T.T.T.T.T.N.S.S.L.G.G.M.m.m.m.m.m.M.M.G.G.m.D.D.N.M.D.n.n.n.n.",
"ZXZXZXMXwXNXSXKXKXKXKXLXzXpXuXuXW.W.E.Y.iXiXY.Y.E.Y.XX).{ T X.j j X.^ 3X{.].[..X<X<X<XZ.Z.T.S.S.T.T.H.P.K.K.S.I.P.P.P.F.m.m.m.M.m.m.M.N.N.G.G.G.n.L.m.D.n.m.m.m.",
"qXwXMXSXNXNXNXNXNXNXLXPXUXIXLXxXkXiXiXuXuXuXuXA.Y.C. XE T % w < 1.u 8 ^ ,X{ { { ,X` b.Z.!.T.S.S.L.H.F.P.P.P.S.P.P.P.F.F.G.G.L.M.m.m.M.N.N.N.G.G.D.n.D.D.m.n.m.m.",
"FXMXMXMXSXSXNXZXSXNXNXZXNXNXFXPXLXzXpXpXXXj.<Xl.XXj.(.Y T & a a.a.,.w T T T R T R } h.v.!.B.S.V.I.I.P.I.H.P.L.L.I.F.L.D.G.D.M.M.m.m.m.N.N.L.G.G.D.D.G.G.m.m.m.m.",
"NXSXSXSXMXSXSXFXSXZXNXZXqXMXMXMXLXIXIXLXxX Xh.<X.X~.( U T y a a.a.<.t 8 R  .%.=.*.5XwXxXLXzXzXxXuXC.V.V.I.S.L.L.L.L.F.F.L.D.L.G.m.n.n.M.M.M.G.G.F.D.F.G.G.m.m.M.",
"MXMXMXZXMXZXMXNXMXMXMXNXMXNXZXSXSXMXNXNXNXNXh.l ).E Y Y & & 7 a a +.$X*.*.*.*.*.*.*.5XyXwXwXtXrXrXZXNXkXA.V.I.F.P.I.S.I.S.S.N.F.n.n.n.n.m.M.n.G.D.F.F.D.M.M.M.M.",
"qXMXMXMXMXNXVXMXZXNXSXNXSXSXNXSXFXMXqXwXwXNXh.O l m & m R O.4X$X7X5X*.*.=.=.I I I I P P n P P P =.=.yXZXFXHXpXuXC.V.V.A.A.R.I.F.F.D.n.n.M.n.m.m.D.D.F.H.J.T.M.M.",
"qXMXqXMXMXZXMXSXMXMXSXSXSXSXSXSXJXFXrXwX2XNX<X_.U R &.*.*.*.*.*.$.$...#.K n J G V P P V V v N N n #.#.%.5XtXrXAX0XyX6XwX<XC.V.V.V.S.F.n.n.m.m.m.G.D.D.H.m.M.M.M.",
"qXqXMXMXMXMXMXVXMXSXSXMXSXSXSXSXSXFXeXtXwXZXwX2XtX=.G v v N v V N V V F G D G D v V V V C N C C V n n n n #.=.5X=.%.@.@.<Xj.V.V.V.V.I.D.G.n.m.M.G.D.H.G.G.J.M.N.",
"NXMXMXMXMXVXMXMXMXMXVXVXSXMXVXVXDXSXVXBXAXwX=.@.n m m c v N V V N C H H G V N N v v V V V N N v V G P n n n n n =.*.3X2X Xz.V.V.l.C.S.D.M.M.M.M.J.G.G.H.G.G.J.M.",
"VXMXVXMXMXeXVXMXeXVXBXVXMXMXVXVXSXvXVXBXtX%.n n m n v v v c v v N N V H H C N N v V V V V v N D G V V V n G P P n #.5XwX{.j.A.uX<Xl.V.S.J.T.M.N.L.J.D.H.G.J.M.M.",
"VXVXVXcXeXcXVXeXVXeXVXeXVXeXVXeXVXeXAXyX%.x c x v m c m D K G D V G G G G D N N C N G G V N D F H V G P J J G G G n #.=.=.yX3X3X,X<XC.I.G.J.N.B.S.J.H.H.H.G.J.M.",
"qXeXeXeXVXeX6XqXVXVXeXVXVXVXVXeXrXtXtX%.n c x x v v v c c x v v V V n G G D D F N C H K G D F K Z C H P K J P G P G n n R #.P R @.h.C.I.G.m.M.T.T.J.H.H.G.J.J.J.",
"qXeXqXqXqXqXqXqXVXcXVXVXVXVXeXBXtXtX%.R x v c M x v x c x v D v N V V D D D D F B L F B B N F F N H F Z I C V P I C #.n #.P #.@.6X Xz.V.G.G.G.J.J.m.J.J.J.J.J.m.",
"VXqXqXqXeXqXMXVXMXMXVXqXVXCXBXeXrX5X%.b b N c c x A N N A N N N N V G H G H V A N F L B A A K D v H Z Z Z C G P H I #.#.P #.=.@.<Xj.Z.V.L.H.G.J.J.J.J.J.T.J.J.J.",
"VXMXMXMXqXMXVXVXVXVXVXeXeXtXtXtX5X*.n m v A N c x M A A D D N A B F F H H G B B Z B F M M F S A L L Z Z Z L J #.I H #.P P =.yX1XuXI.I.I.L.K.K.J.J.J.J.J.K.K.J.J.",
"VXVXMXVXVXMXMXqXVXqXeXrX0X%.%.%.%. .c v D N B N M x x A A A F B N C C N N B F Z L M F L L S S b b S L L L H #...$.J #.$.I 5X].j.V.P.I.I.L.K.L.T.J.J.J.K.K.T.K.T.",
"qXwXeXqXeXBXBXBXVXqXeXCXtX{ Y m n n c v D x H F F M M S S M F B C C M C C B B Z L L ..S | | o.$XO.| ....L L $.J I I I =.=.3X Xz.I.I.U.P.J.J.T.J.K.J.K.K.K.T.T.L.",
"yXwXwXwXqXeXBXBXVXBXeXeXtXtX%. . .n x D D v F F F S M M M M M M B C C Z B F B F F S ..k O.7X>X8X8X$Xo. ...K J J I I I I P 5XfXY.I.P.F.F.J.J.J.T.K.T.K.K.P.T.T.J.",
",X,X,X3X3X6XqXqXeXVXeXeXtXrXrX5X .v v K D B F F F F S M M * b M S S M F F F F S S ..O.O.9XvX/.~.y y Q X.O...S K C V I $.$.O.xXj.I.P.P.P.K.L.T.L.K.K.K.K.R.T.K.J.",
"{ { { { ,X{.,X6X6X6X0XeX3X&.5X5X| c A D N H N C B L L S M b S | S | = S | | |  .O.O.4X7XvX^.o o + . . y >X4Xb x c H #...S | 6XuXC.I.I.V.R.S.S.P.K.P.K.K.K.K.T.T.",
"_ ].].].].}.}.}.}.}.3X3X@.m n R b A A D B B C C Z F ..S S O.$X$X>X$X$X#Xo.$XO.4XtX4XrXCX^.e |.O O ~.XX. $X4X&.b N L &.&...| o.GXKXzXA.V.V.S.R.P.F.P.P.H.K.T.T.J.",
"].(.(.].].].].].}.].{ { { T m m n A D F V C C Z B I S S 4X$XOX#X:X8XvXvXCX8X9X9X9XCXCXcX~.IX-.pXX X kX~.6XtXo.| K ..&.&...S  .rXFXKXKXLXlXV.I.I.U.P.P.P.H.J.J.T.",
"`.`.`.].`.].'.`.}.].].{ { { U T K K K H V C C Z B L ..| t e o   e 9 e 6XDXDX0XCX0XDXDXcXJXIXj.O   X j.cX0X4X4Xb  .%.4X4X&.b R rXFXPXPXIXKXLXzXE.V.U.U.P.P.R.S.B.",
"`.]._ [ `.].].].[ `.].}.{ { { R R  . .K G V H H L F S +.8   :.UXJXO o   .XDXvXCXCX0XmXDXUXIXHXO X -..XcX0X7X4X .S %.wXwX#XY o.rXGXFXPXFXPXIXKXLXzXiXV.Y.P.S.S.R.",
"_ [ ) [ _ [ (.`.`.[.[.[.'.'.'.{ ! R R  .n K H J F S % O.8   fXUXHX-.-.  o cXnX0XvX0X0X0X6XUXcXxXXXHXcX6X9X7X4X|  .%.xXkX_.l 3XrXFXUXPXGXNXFXPXPXIXKXzXuXC.I.I.I.",
"`.(.`.(._ _ (.(.(.].).).[.}.}.'.{ { { { R R R S A * $ | $Xy /.UXIXO     O |.:X0X4X7X0X4X9X#XVX6XHXJX0X9X7X4X4XT { @.b.!.k.z.wXrXGXFXGXPXPXPXFXFXPXPXIXIXLXW.V.Y.",
"[.[.[.).].(.(.(.).)._ ).).'.).).[.'.(.`.{ R T S S $ S % o.4X{ 6XIXxX-.O + {.VX$X$X$X7X7X7X0X0X0XvX6XvX8X7X9XR R #.@.k.Q.B.B.xXNXAXrXAXPXPXPXPXUXFXGXFXPXIXKXzXA.",
"[._.[.^.(.(.'.(.).'.(.[.`.W ) ) ).).).).].{ { T S | S | S o.$X6X6XHX1XcXSX6X:X0X$X7X7X7X9X9XvXvX0XDX8X7X9X4X .n @.@.x.B.Q.x.kXFX5X3X3XBXUXUXIXUXPXPXPXFXPXIXIXKX",
"(.(.^.^._ ).(.'._ ) (.~ ) '.`.~ ( ] ' W U U E ^ % S |  .n T o.$X:X6X0X0X0X0X0X7X7X7X8X9XvXCXCXnXnXvXvX9X4X.. .R @.v.B.Q.B.v.wXyXR R %.rXGXSXUXPXUXFXGXFXFXPXPXKX",
"` ` ~ ~ _ _ _ W ).(.W (.).).W W ] ' ' ' _ ( [ { % $ % b R T | $X$X$X7X7X8X8X0X8X8XvX8XvXvX9XvXvXnXnXCX4X&.....R } l l.k.k._.@.n v b %.rXAXZXPXSXGXUXGXGXFXFXFXPX",
"_.).^.[.)._._.).).^.).).).[.[.(.[.).[ ] _ (._ o.$ $ $ % Y ! R | $X$X>X8X8X8X8XmXmX>X>X>X>X>XvXDXDXvXrX9X&...F M x b T T Y  .K b n R %.rXZXSXGXGXSXSXFXGXGXFXPXFX",
"_.).).~.).` ).~.^.[.).).).).).).~.).R ! ]._ / m $ $ % % Q Q / } T #X4X$X>X8XvXvXnX>X@X@X-X>XvXDXCXvXrX4XO.* * * * * * * = F A D  .%.5XrXAXGXPXFXFXFXCXGXGXFXFXFX",
"{.,X1X6X6X6X6X6X6X6X.X{.].).)._.[.) R n o.{ T $ $ $ $ y z.z.f.k._ T o.O.7XvXvXvXnXmX0XmX8X8XCXrXnXDX9XO.% % * S * * M * M F M .. .%.yXeXqXZXFXNXGXGXGXZXSXZXFXSX",
"{.;X1X1XcXVXVXVX6X6X6X:X}.`.)._.)./ b m b % & $ * * = y z.Z.B.f._.R | X.O.$X8XeXVXCXnXnXnXvXrX9XvX9X$XX.= % S % % * * M S F F  .%.@.}.{ ].1X6XMXeXeXAXAXGXGXUXGX",
"Q ` l } _ '.{ }.].].{.}.]./ ` _._ ' T b b 8 +.+.k k k t z.C.A.Z.h.).! | = ....O.4X7XhXnXnXnXCX9X$Xo.X.| | b % % M * M M B F #.$.R { [ [ ].].].].,X1XwXeXVXFXSXSX",
"}.(.@.` (.`.^ ! / _ '.{.@./ _ ) _ E T X.o.@X+.@Xf k h 4.:.:.j.j.j.~.^ X.= k = 8 # 6 w q.+X+X^ X.X.k 8 8 8 | | S $ c $ M B L =.%.{ [ `.].].`.`.}.(.].].}.#X6XqXVX",
"^.`._ ` _.'.].'.~ ~ VXqX3X].! E Y ^ -X&X+Xh 4.g s a 1.>.p p w :.t t t j g j t t 7 6 # # # . - q , # 7 0 # & = * * * * M N K  .%.{ ^.}.}.}.'.`.`.]._ ].].].{.{.}.",
"[.]._._.].].].[.}.`.qX1X{.[.^.^ /.+Xt.8.5.5.5.4.g a >.1.a a ,.,.0 r r 4.7.7.q.g j w 7 & 7 - # > # # # - # 7 = = * * * M M S  .3X#X}.^.^ ^.}.}.}.].,X_.(.].,X{.[ ",
"[._.k.k._.(. X_. X_.2X2X[..X/.oXq.y.w.a.1.h 5.6.6.6.8.8.>.,.u w ,.,.4.4.q.6.6.q.g p p 7 j g w t 7 ; 6 - h k k +.k k +.+.| X.+.@X:X:X#X/././.~ ~ ].(.].].).+ l l ",
" Xh.v.x.h. Xl.l.l.l.b.h.XXXX|.%Xr.8.w.w.p.p.e.5.p p 4.4.4.,.,.,.7.7.8.7.q.6.6.6.h p e.5.-X@X+X@Xj 6.g w 7.e.e.6.+.+.k k k p g 4.q.OX-X>X:X#XOX[ '._ ).,X_ @ @ @ ",
"v.v.x.x.k.b.v.x.k.k.g.g.k. X|.r.7.r.&X-Xe.w.w.p.y.t.w.q.r r r q.q.0.&X0.&X&X&X6.5.6.-X-X>X-X+X+X@X@X@Xh p e.y.y.0.6.h h a p 0 ,.q q ;.q.+X+X+X/.^.^.'.).).) Q + ",
"v.f.v.v.k.v.f.v.k.k.v.c.k.l.oX8.u.i.@X0.0.e.a.,.<.,.p 0 7 w j @X+X@X@X=X=X-X&X0.g @X>X@X+X#X)._.;X3X$X>Xh w.&XjX&X&X6.6.5.a ,.4.8.>.5.e.@X@XOXOX/.[.'.'._.{.].].",
"v.v.b.l.x.v.g.l.g.c.x.g. X~.0.w.i.=X=Xr.5.w.w.2.1.<.i < 0 p h h 5.e.*X=X=X*X9.r +X$XX.^ l g.x.Q.v.z.{.>X+.k e.&XjXjX&X0.h p 0 p 0 s a 5.h h +X+X;X|.[.[.].).`.{.",
"v.g. X_.v.v.h._.g.g.k.l.[.q.p.p.i.i.i.r.y.&Xp.1.1.i i < s 5.5.g 5.0.p.=Xi.r.;.w +X+Xy Q g.k.Q.Q.x.z.l #X$Xk h y.%XjX%X&Xe.h a h 1.>.a a >.5.5.+X%X;X[.[.[.].[ ] ",
"_._.].)._.h._._._.l _.)./.9.u.i.aXy.y.=X=X=Xu.y.e.e.1., < p q q 4.8.y.y.0.7.q 0.@X-Xt + l f.c.c.z O ` e $X+.h h @X&Xu.*Xp.0.4.5.e.5.5.7.0.y.y.t.0.%X.X)._.]._ { ",
"].[ `.'.(.(._._ _.` ).^./.9.u.=Xi.u.p.aXaXaX*Xu.&Xp.a ; ,.q r ;.7.0.0.r.7.7.q 7.-X@Xt 9 Q l z f.h.h.~ y $X@X7 h 0.&X&X*X&X0.4.4.>.p p p 4.>.>.w.r.OX~.)._.` / { ",
"[ `.`.).(.).` ).` ` _ './.oX&X=Xu.u.aXsXsXsXsXsX*X=X>.> ,.,.:.t.%Xr.*X*X9.oX;./.%X9.0.4.r t :.:.:.e r q.@X@Xq.t q.r.r.t.t.7.q q a f a p ,.>.w.w.&X%X/.[._._ ].3X",
"_ ) `.'.(.).).).@.h.) './.oX%X*Xt.sXsXsXsXaXs.sXaX=Xy.> :.t.9.t.&Xy.jX%X;.%X|.|.|.OX%X%X9.7.;.;.;.%Xq.%X-XoXt r ;.t.t.7.9.7.4.p i 4 ,.>.>.8.p.i.y.-X.X.X{.{.3X}.",
"`.(.`.`.(.) _ _ ` W ( '.^ OXOX&X0.=XsXsXs.s.s.sXaX=Xi.: : t.7.t.r.u.*Xr.t.jXpXfX.X|.XX|.|.|.jX|.|.jX|.OX|.;.;.|.;.t.u.t.y.p.w.>.i <.>.8.w.p.i.=X&X>X|.[.{.}.#X}.",
"_ _ ) `.`.) ) _ _ ` _ ] ^./.OXoX7.=XsXsXs.s.s.aXsXi.aX1.; 8.7.7.u.r.u.t.t.hXJXHXLXHXpXfXpX|..X;..X%X|.pX|.|.jX|.t.jXs.u.i.i.e.w.w.w.y.p.p.i.i.=XsX:X.X.X1X}.~ ^ ",
"(.(.) (.] ) ) ( _ ` _ `.~ ^.^./.;.&XsXsXaXs.u.aXsX=XaXp.: ,.,.,.7.t.t.;.t.fXgXJXdXJXJXUXJXfXJXHXfXJXHXfXcXfXt.t.u.s.s.u.*X*Xp.e.y.r.y.i.i.i.i.*X-X.X.X.XNXqXQ ~ ",
"_ [ ) [ ~ ) ( ( ( ( [ `.~ ~ ^.^ t OX>XsXsXt.7.=XsXaX=X=X8.: 7.7.7.t.t.7.jXsXgXJXHXJXJXbXgXHXbXJXJXHXJXJXbXgXjXt.s.sXsXjXsXsX&Xp.u.u.=X=Xs.=X=XsXfX.Xh.h.xXNX).{.",
") ) ) ) ] ' ( ( ( _ ) [ ) ] W ~ Q e /.OX;X%XoX%X-X-X-X-XoXw q 4.8.w.w.8.t.hXgXgXJXbXbXgXJXJXJXHXcXbXJXdXjX*X8.p.s.u.jXu.jXjXu.t.*XsXaXaXi.i.jX%X.X Xg.g.g.g.h._.",
"_ ) _ [ ( ( ( _ ( ( ) ] ) ( W E Y E '.^./..X;X>XnXnXhXhXnX0.6 h ,.w.w.7.9.%XdXdXdXgXgXgXhXgXbXHXJXbXgXjX%Xy.p.p.s.t.r.*XjXu.u.s.i.=X=XaX=X*X*X:X~._.h.g.g.g.h.z ",
") ) ) ) ' ( ( ( ) ( ) ) ( / E E l } _ _ `.[.OXmXnXnXnXnXUX-X- q ,.8.0.7.9.%XdXcXcXdXdXhXgXgXgXdXgXfX%X%X7.r.i.p.a.u.u.sXs.i.p.s.=X=X=X=X=X-X-X:X~.~. X<X@.h.h.l ",
") ) [ ) ( ( ( ( W ).W `.( E E } } } / _ ].Q ~ dXnXnXUXnXnX>X- 0 ,.7.0.7.;..XfXcXcXcXgXdXgXgXbXdXfX%X9.9.&Xi.y.p.t.jX&X*Xy.i.i.i.=X=X=X-X-X%X;XOX~.^.[.,X_.` _._.",
"`.) ) ) ( / _ ( W ).W (.( / E U U U / [ }.Q Q :XnXvXDXnXmX>X: p 4.7.7.7.;.%XdXHXbXbXbXgXbXbXcXdX%Xt.t.r.=X&X4.-X-X>X-X-X-X0.=X-X-X%XOX|.}.[.'.].~ Q ).'.).(._._.",
"^.) ] ( / E / _ W W '.) ' E / U Y ! ' / '.^.^.;X:XdX0XbXnX&X> w 4.7.t.7.9.jXhXgXbXcXbXbXbXJXdXjXt.t.*Xu.y.8.q.nXnXmXvXnXhX+X%XOX/./.^.'.).).(._ W W W ^.[ '._ _ ",
"[ [ ( ( / ` ` W (.^.`.~ ' ! U U Y E ( Q ).[.[.;X;XcXcXbXnX:.- q 7.7.7.,.;.*XhXfXcXcXcXgXbXhXfX%Xt.u.u.u.7.:.>XnXvXvXCXDX$Xe W Q Q ~ ~ W ] ) _ _ _ / E [ [ [ [ ( ",
"(.[ _ ( ` E ` ` ) W ^.] ' / ! / U U ( ).).[..X;XcXJXUXUXfX6 : ,.;.7.7.,.7.*XhXdXfXfXdXbXgXhX%X;.t.u.t.*X4.q mXmXvXCXCX9XQ + ).).W W ~ [ [ ( / ` ( E E ' ~ ] [ [ ",
"[ _ ( ` / ` ` E ` ] ~ ] ] ! U / Y / ( ) [..X|.XXdXUXnX-Xw ; : 5.4.4.7.q ;.fXfXdXfXdXbXgXgXfX;.9.u.r.u.8.0 w -XUXnXDXCXe W Q ).) Q E ' ( ' _ _ / [ _ E W ( `.[ ( ",
"`._ W ` ` } E ` ( [ ) W ] ! E / } Y E '..X.X|.jXjXr.r ; - q p ,.4.r :.:.oX:X:XfX.XfXhXdX:X%X7.&Xr.e.y.>.; ; >.e.>X>X>Xy Q Q (.) ( ! ! ( ( [ ( ( ' ( E ( ) ] ) ) ",
"_ _ ` / E / E E W ] ) W ( ` E E / U ) {.%X;.7.8.q : > - w q.4.w :.q q 9.%X:XhX:X:XfXdX>X%X4.7.y.0.7.4.u ; , i i f e.@XX.+X~ ).] W E W ) [ ' / E ' ' W E ) ( W ' ",
"_ W W ( E E E Q ( ] ) ` ( / } E U [ /./.;.: : 3 2 1 u 0 0 q ,.:.w q e OX-X:X:X:X:XdX:X:XoX4.e.5.0.4.p : ; , d 5 i s u p t +X/.^.W W ~ [ [ [ ! ' E ' E E ' ].].}.",
"_ _ [ ! ' ! ! ! W ) ( ` ` E E ! ^ ^ X.w 7 : 3 3 , 5 1 , < 0 4.q w ;./.%X:X%X:X;X.X:X:X%X;.4.p.5.a u 1 u 3 1 u < < < ; ; 7 g h 6.^ ^ ^ ~ [ / ' ' / { }.{ }.tXeXeX",
"_ _ ' ' ! ! ! ! W ( ` W Q E E ! ^ g s s i 4 2 d , 1 , 1 < s w w q /./.OXOXOX-XOX;X.X:XoXp p 5.s i 1 1 u i < , < ; , u s 1 < d a 6.t /.}.#X{.,X3XwXtXtX3X3XAXGXAX",
"_ _ ' ' ! ! ! [ ` ( _ W W E ! t a s 1 s f i 2 1 f f d u < 3 3 3 r j oXOX+X%XOXOX;X/.OXq.p p s s i 1 1 1 u 1 u i d < < 1 5 d <.d 1.h @X7XGXAXZXZXrXeXrXtX4X0XAXrX",
"_ ) ' { ! ! ! ' ( ).W ~ ~ ^ X.X.s 1 1 , < < < < , , , < d <.d.i u w r t oX@XoXoXoXr q p a a i a i i d 1 1 d 1 1 1 1 5 4 5 1 4 2 i a e.mXDXGXZXwXeXwXrX9X3XyXAXAX",
"_ ( ' ' E / ! ( _ _ ^.^.X.X.j g < 1 2 i i 2 1 < , , 1 1 d d 5 d i s ; 7 j q.r w u i f f f f f f f a i i 1 5 1 5 1 5 1 3 3 2 3 2 1 1 a @XnXDXGXeXeXwXtXrX3Xo.AXrX",
"( ) [ / / / / _ ( ~ ^ ^ t j p s a i i 2 < 1 2 1 5 5 f f d 1 1 1 1 d s ; 7 9 9 g s f f f 2.f 2.f 1.f f f d 2 1 5 5 1 4 4 2 2 2 3 5 1 d h @X>X8XCXCXtX6XtXtX3XyXAX",
"! ' ' / E } ( ' ~ ^./.j g s s 1 i u 2 3 2 2 i i f f 1 1 1 1 1 1 1 i u ; - - o t a f 5 5 f f 2.2.2.2.2.1.1.1.<.i 3 2 2 2 i 2 2 2 3 <.d i f 5.@X>X8X9XwXyXAX3X3XrX",
"! ! / / } / / ! ~ /.t w 0 , 1 3 3 : < 2 1 2 i < 1 1 s 1 1 1 < 1 >.u ; 6 9 + 6 6 a f f 5 f f <.2.2.2.2.2.3.1.1.1.i ,.2 2 2 2 2 i i i i d d f i a +X8X9X0XeXyX@.wX",
"W ! / E } E ! ! ^ j w 7 ; , 3 , 3 3 3 3 < 2 i <.2 <.<.i , , 1 d ,.6 - + :.e + o w p 1.<.d <.1.<.<.2.1.2.1.1.<.<.1.<.d i 2 2 1 1 i ,.3 2 d.d.2 p 0 @X9X9XtXtX,XyX",
"! ! E } U U ! ^ +Xg u , 3 3 3 3 3 3 3 3 2 d.<.<.3.<.2 1 2 d 2.3.w 9 9 :.~.~.:.9 - w >.1.<.<.>.>.1.2.3.1.<.<.<.<.d d i d i i i i 3 2 2 2 d.d.2 d.u g >X9X0XtXyX@.",
"E ! E E Y Y ! ^ j s , , 3 3 3 3 3 3 4 <.2.<.<.<.d.d.d 2.3.w.f 0 - 9 e e ~.~.j.e 9 : 0 <.3.3.3.1.3.w.3.3.3.3.2.2.d d 4 d d i i d 2 d.d.d.2 ,.3 2 i s h >X7XrXtX%.",
"! ! / E U Q ^ t j u , 1 4 3 3 : i <.<.<.5 d.4 d.d.a.a.p.3.i ; ; 6 e ~.j.~.~.:.:.:.6 - 2 3.3.3.w.1.1.3.a.3.3.3.3.3.2.<.5 1 1 , 1 4 4 3 3 ,.3 ,.d.i < k @X$XrXwX,X"
};
