/* XPM */
static char *_a6322e3e2e948f5e9b9bb36b35610a2iVGU4i5JugF29ZF6[] = {
/* columns rows colors chars-per-pixel */
"80 80 251 2 ",
"   c #010101",
".  c #0B0202",
"X  c #03020B",
"o  c #0C030A",
"O  c #0D0A0B",
"+  c #080A06",
"@  c #120302",
"#  c #140B03",
"$  c #1A0C03",
"%  c #130B0B",
"&  c #180707",
"*  c #1C1303",
"=  c #15120B",
"-  c #1B120B",
";  c #171706",
":  c #020012",
">  c #030418",
",  c #130B13",
"<  c #141212",
"1  c #1D1412",
"2  c #1A1917",
"3  c #270705",
"4  c #390206",
"5  c #251C0C",
"6  c #261808",
"7  c #351906",
"8  c #2C1D1B",
"9  c #261A15",
"0  c #321917",
"q  c #310B16",
"w  c #1E2318",
"e  c #2A230D",
"r  c #2D2314",
"t  c #28251A",
"y  c #332514",
"u  c #372718",
"i  c #3A331C",
"p  c #30290E",
"a  c #1D1C21",
"s  c #272625",
"d  c #372B27",
"f  c #3B3526",
"g  c #373637",
"h  c #322D32",
"j  c #232027",
"k  c #44180E",
"l  c #42351D",
"z  c #463817",
"x  c #543F15",
"c  c #583916",
"v  c #482B14",
"b  c #633910",
"n  c #473928",
"m  c #4B3A3D",
"M  c #473737",
"N  c #4F332B",
"B  c #712231",
"V  c #7D1D21",
"C  c #3B4236",
"Z  c #54440E",
"A  c #59420C",
"S  c #54490B",
"D  c #574C07",
"F  c #4C431B",
"G  c #554315",
"H  c #594314",
"J  c #554319",
"K  c #59431A",
"L  c #564B1C",
"P  c #5A4A1C",
"I  c #574915",
"U  c #5A511B",
"Y  c #4E450A",
"T  c #654819",
"R  c #4C4428",
"E  c #544424",
"W  c #5A4322",
"Q  c #544B22",
"!  c #5B4C23",
"~  c #5B4B2B",
"^  c #54482B",
"/  c #5B5124",
"(  c #5A5329",
")  c #48433D",
"_  c #564A32",
"`  c #574934",
"'  c #5C5333",
"]  c #59533B",
"[  c #644B27",
"{  c #655328",
"}  c #664B35",
"|  c #625134",
" . c #7A4E2D",
".. c #766F35",
"X. c #473E40",
"o. c #7B2E42",
"O. c #3F4042",
"+. c #444343",
"@. c #4A4945",
"#. c #574848",
"$. c #57544C",
"%. c #5A5754",
"&. c #465551",
"*. c #644E44",
"=. c #655648",
"-. c #635B58",
";. c #745C50",
":. c #6A645B",
">. c #776658",
",. c #766D4A",
"<. c #6A6965",
"1. c #766B66",
"2. c #78726B",
"3. c #7E7A74",
"4. c #797473",
"5. c #6B6E70",
"6. c #5B6A63",
"7. c #922D31",
"8. c #AE3631",
"9. c #F03A32",
"0. c #935433",
"q. c #8C6833",
"w. c #A77339",
"e. c #B34F32",
"r. c #F04634",
"t. c #DD493B",
"y. c #B53B49",
"u. c #FD344D",
"i. c #866E54",
"p. c #AE7947",
"a. c #89746B",
"s. c #947969",
"d. c #847B77",
"f. c #8D756E",
"g. c #A3796C",
"h. c #D84E4B",
"j. c #EA4658",
"k. c #FD5358",
"l. c #FF4C56",
"z. c #E36855",
"x. c #7F847C",
"c. c #AF8C3B",
"v. c #D6AA30",
"b. c #F2C232",
"n. c #998D50",
"m. c #B69A47",
"M. c #AE8F50",
"N. c #8B847B",
"B. c #9B8871",
"V. c #A0897C",
"C. c #AE917F",
"Z. c #B8A159",
"A. c #C98E4C",
"S. c #F4974E",
"D. c #D0AB53",
"F. c #FCA652",
"G. c #EC966C",
"H. c #F2A571",
"J. c #DFB465",
"K. c #F7C547",
"L. c #FFD54F",
"P. c #FFE156",
"I. c #FFD66A",
"U. c #FFE574",
"Y. c #DBC454",
"T. c #7D7C80",
"R. c #8F7D86",
"E. c #948E86",
"W. c #9A948B",
"Q. c #918D88",
"!. c #AB988B",
"~. c #BA9A8B",
"^. c #A69C95",
"/. c #B69993",
"(. c #AD8F83",
"). c #9FA59C",
"_. c #AAA498",
"`. c #B3A699",
"'. c #B9A990",
"]. c #B8ADA3",
"[. c #BBB3A9",
"{. c #AEAAA7",
"}. c #C4A999",
"|. c #CAA791",
" X c #EBAE96",
".X c #C7AEA1",
"XX c #C6B9AA",
"oX c #D6B6A7",
"OX c #CABDB1",
"+X c #D9B4AC",
"@X c #FBBEAD",
"#X c #E4B9AA",
"$X c #C69A8E",
"%X c #FBC898",
"&X c #FFF792",
"*X c #D9C7B2",
"=X c #DBCAB5",
"-X c #D6CBBA",
";X c #D6C8B8",
":X c #D6C7AF",
">X c #E3C7AD",
",X c #F5C2AC",
"<X c #FCC4AC",
"1X c #FCC7A8",
"2X c #E1CEB9",
"3X c #E6C8B5",
"4X c #FDCBBB",
"5X c #F8C8B6",
"6X c #E4D2BB",
"7X c #E9D5BE",
"8X c #FED3B4",
"9X c #FED3BC",
"0X c #FEDBBC",
"qX c #F5D4BC",
"wX c #F0D0AE",
"eX c #FFE0AD",
"rX c #D7CDC3",
"tX c #DDD3C4",
"yX c #CCC8C5",
"uX c #FCCCC3",
"iX c #F5CDC3",
"pX c #E3D4C4",
"aX c #EDDAC3",
"sX c #EBDCCA",
"dX c #E7D7C6",
"fX c #FDD5C3",
"gX c #F2DCC6",
"hX c #FDDBC3",
"jX c #FEDCCB",
"kX c #F6D6C7",
"lX c #FEDDD2",
"zX c #E5D0C9",
"xX c #FFE2C2",
"cX c #F5E2CB",
"vX c #FCE4CD",
"bX c #FEE8CF",
"nX c #FEE5D4",
"mX c #FFEAD1",
"MX c #FDE9D2",
"NX c #FFEAD1",
"BX c #FFECDB",
"VX c #F7E5D5",
"CX c #FFF2DC",
"ZX c #FFF7D7",
"AX c #EEE4DD",
"SX c #FCEDE5",
"DX c #FFFBE3",
"FX c #FFF6E8",
"GX c #FFFFFC",
"HX c #FFFFF6",
"JX c #E4E3E5",
/* pixels */
"mXmXmXmXmXmXmXmXmXmXmXmXmXmXmXmXmXmXmXmXmXmXmXmXmXmXmXmXmXmXmXmXmXmXmXmXmXmXmXmXNXNXNXNXNXNXNXNXNXNXNXNXmXmXmXmXmXmXmXmXmXmXmXmXmXmXmXmXmXmXmXmXmXmXmXmXmXmXmXmX",
"mXmXmXmXmXmXmXmXmXmXmXmXmXmXmXmXmXmXmXmXmXmXmXmXmXmXmXmXmXmXmXmXmXmXmXmXmXmXmXmXNXNXNXNXNXNXNXNXNXNXNXNXmXmXmXmXmXmXmXmXmXmXmXmXmXmXmXmXmXmXmXmXmXmXmXmXmXmXmXmX",
"mXmXmXmXmXmXmXmXmXmXmXmXmXmXmXmXmXmXmXmXmXmXmXmXmXmXmXmXmXmXmXmXmXmXmXmXmXmXmXmXNXNXNXNXNXNXNXNXNXNXNXNXmXmXmXmXmXmXmXmXmXmXmXmXmXmXmXmXmXmXmXmXmXmXmXmXmXmXmXmX",
"mXmXmXmXmXmXmXmXmXmXmXmXmXmXmXmXmXmXmXmXmXmXmXmXmXmXmXmXmXmXmXmXmXmXmXmXmXmXmXmXNXNXNXNXNXNXNXNXNXNXNXNXmXmXmXmXmXmXmXmXmXmXmXmXmXmXmXmXmXmXmXmXmXmXmXmXmXmXmXmX",
"mXmXmXmXmXmXmXmXmXmXmXmXmXmXmXmXmXmXmXmXmXmXmXmXmXmXmXmXmXmXmXmXmXmXmXmXmXmXmXmXNXNXNXNXmXmXmXmXNXNXMXmXmXmXmXmXmXmXmXmXmXmXmXmXmXmXmXmXmXmXmXmXmXmXmXmXmXmXmXmX",
"mXmXmXmXmXmXmXmXmXmXmXmXmXmXmXmXmXmXmXmXmXmXmXmXmXmXmXmXmXmXmXmXmXmXmXmXmXmXmXmXNXMXNXNXmXmXmXmXNXNXMXMXmXmXmXmXmXmXmXmXmXmXmXmXmXmXmXmXmXmXmXmXmXmXmXmXmXmXmXmX",
"mXmXmXmXmXmXmXmXmXmXmXmXmXmXmXmXmXmXmXmXmXmXmXmXmXmXmXmXmXmXmXmXmXmXmXmXmXbXMXsXtX[.{.{.].[.sXsXbXNXNXMXmXmXmXmXmXmXmXmXmXmXmXmXmXmXmXmXmXmXmXmXmXmXmXmXmXmXmXmX",
"mXmXmXmXmXmXmXmXmXmXmXmXmXmXmXmXmXmXmXmXmXmXmXmXmXmXmXmXmXmXmXmXmXmXmXmXsXQ.+.<               < +.5.:XsXmXmXmXmXmXmXmXmXmXmXmXmXmXmXmXmXmXmXmXmXmXmXmXmXmXmXmXmX",
"mXmXmXmXmXmXmXmXmXmXmXmXmXmXmXmXmXmXmXmXmXmXmXmXMXMXMXMXbXMXcXgXdXcXVX^.    @ 5 f l l n l l u e ;     < %.OXMXmXmXmXmXmXmXmXmXmXmXmXmXmXmXmXmXmXmXmXmXmXmXmXmXmX",
"mXmXmXmXmXmXmXmXmXmXmXmXmXmXmXmXmXmXmXmXmXmXmXmXmXMXcX:XE.@.s 2 = 2 a   6 L / ! ! ! L L P P ! / L Q l 5     a [.BXmXmXmXmXmXmXmXmXmXmXmXmXmXmXmXmXmXmXmXmXmXmXmX",
"mXmXmXmXmXmXmXmXmXmXmXmXmXmXmXmXmXmXmXmXmXmXmXmXpX3.#     + 6 e p 5 $ u / P G L Z Z G Z Z Z Z G Y G / / ^ f .   h tXmXmXmXmXmXmXmXmXmXmXmXmXmXmXmXmXmXmXmXmXmXmX",
"mXmXmXmXmXmXmXmXmXmXmXmXmXmXmXmXmXmXmXmXmXmXsX4.    6 i E / ! ! K ! ! P G G x J J G G G G G x W J G Z Y I / ( i     W.MXmXmXmXmXmXmXmXmXmXmXmXmXmXmXmXmXmXmXmXmX",
"mXmXmXmXmXmXmXmXmXmXmXmXmXmXmXmXmXmXmXmXNX[.    t R { ! ! H I H H H H H G J J J J J J x J J K c x K G Z Z Z G / ! 5   %.MXmXmXmXmXmXmXmXmXmXmXmXmXmXmXmXmXmXmXmX",
"mXmXmXmXmXmXmXmXmXmXmXmXmXmXmXmXmXmXmXmXW.  # Q / I A H H H K K K H H G J J K J J J J J K J G K J J J H G G G G P { i   @.mXmXmXmXmXmXmXmXmXmXmXmXmXmXmXmXmXmXmX",
"mXmXmXmXmXmXmXmXmXmXmXmXmXmXmXmXmXmXmX].  1 ' L G G G G G J J J K G G J G J J J J J J J J J J G J G J J J J G G x W | i   %.MXmXmXmXmXmXmXmXmXmXmXmXmXmXmXmXmXmX",
"mXmXmXmXmXmXmXmXmXmXmXmXmXmXmXmXmXmX6X  ; ' ^ F I G L J F J J J J J J J K J G K J J H J J J J K J K G J J J J J G J x ' i   N.mXmXmXmXmXmXmXmXmXmXmXmXmXmXmXmXmX",
"mXmXmXmXmXmXmXmXmXmXmXmXmXmXmXmXmXMX<   ^ Q J J J P E J J J I G L J J J J J J J J K J G J J J J J J J J J J H J J G H K | 5   ;XbXNXNXNXNXNXmXmXmXmXmXmXmXmXmXmX",
"mXmXmXmXmXmXmXmXmXmXmXmXmXmXmXmXbXd.  z / G J J K c J J J J G G G J J H J K G J G G J J H J G J H J K G G G J x K H x K ! ` . = VXNXNXNXNXNXmXmXmXmXmXmXmXmXmXmX",
"mXmXmXmXmXmXmXmXmXmXmXmXmXmXmXmXdX  5 ( G G J x x K J K J G G G G G H c H J J G J x G J J J J G J H J G J J J G J H A H c ~ n   1.bXmXmXNXNXNXNXmXmXmXmXmXmXmXmX",
"mXmXmXmXmXmXmXmXmXmXmXmXmXmXmXmX%.  R L G H H K K K c K J J J J x H H x x G G J G J K G J J J J J J J J J G K J J H A H K J { 5   dXmXmXNXNXNXNXmXmXmXmXmXmXmXmX",
"mXmXmXmXmXmXmXmXmXmXmXmXmXmXMXsX  5 ' J H H H G J J K K J E ~ ^ J J x H G J G J J J J J J G G J J J G J J J K G G G G H J x ~ ^   :.mXmXmXmXmXmXmXmXmXmXmXmXmXmX",
"mXmXmXmXmXmXmXmXmXmXmXmXmXmXmXN.  R ^ x H A G J F J J ! l . * R ' J G G G J J H H J K G J x x J K G J G G J J G J J G G H x x ` -   sXmXmXmXmXmXmXmXmXmXmXmXmXmX",
"mXmXmXmXmXmXmXmXmXmXmXmXmXmXMX2 # _ E x H H G G F J Q ^ . 1 1   r ' L G H J J G J K K G J G G J J J G J K G G J K G x J ! P J ^ R   N.mXmXmXmXmXmXmXmXmXmXmXmXmX",
"mXmXmXmXmXmXmXmXmXmXmXmXmXmX-X  u ~ J G W P G F G S U -   }.7X#.  - ! I A H J R R z K K G J J W J G J E G S Z W c K x W l n L Z ~ # = VXmXmXmXmXmXmXmXmXmXmXmXmX",
"mXmXmXmXmXmXmXmXmXmXmXmXNXNX3.  J P G J z z P J G D F   -.xX%XZXR.  - / T A F _ f . y [ J G G J W Y J ^ W S Z W W c T E - % L D P n   OXMXbXmXmXmXmXmXmXmXmXmXmX",
"mXmXmXmXmXmXmXmXmXmXmXmXNXMX@.. / L G J $ 6 ! J J ! 1   }.eXS.%XHXd.  2 ( W J K ! $ . R ^ J I H J G L u y ~ L G K [ K ! 8 . z D W `   <.mXmXmXmXmXmXmXmXmXmXmXmX",
"mXmXmXmXmXmXmXmXmXmXmXmXNXMX% 6 U G L F . e / J K _   M ,XH.S.H.8XFX2.  w ' K T T y   2 ] ! x A J G P 6   8 [ G G G G P n . u U P ^ * 1 MXmXmXmXmXmXmXmXmXmXmXmX",
"mXmXmXmXmXmXmXmXmXmXmXmXMXpX. 6 ( / Q R . t / K [ f   s.8XG.G.H.@X8XBX)   f [ b [ y     w ' H A J I U 9 X   i / G x G U R o y P J P p   -XmXmXmXmXmXmXmXmXmXmXmX",
"mXmXmXmXmXmXmXmXmXmXmXmXmXrX+ y ] i z n + i U H [ 6 # >X8XG. X<X1X,XhXgXt   ^ K ~ 6 s $.  r | W x I I ; h d   n ! K Z S L % 6 J J P z   ^.mXmXmXmXmXmXmXmXmXmXmX",
"mXmXmXmXmXmXmXmXmXmXmXmXmXdXo 5 f   l ^   e U D J   M xXqX X X8X@X<X,XnX.X  - | ~ @ d VX=.  8 *.Q Y U . g OX% & _ J I S L ; - J W J F   3.mXmXmXmXmXmXmXmXmXmXmX",
"mXmXmXmXmXmXmXmXmXmXmXmXmX7X1.      n ~   w U T z   a.bX0X0XwXqX0XjXfX4XBX>.  f $.. N BXBX*.  9 ^ U ( # t ZX!.  y ~ H S L ; * J E ' '   :.mXmXmXmXmXmXmXmXmXmXmX",
"mXmXmXmXmXmXmXmXmXmXmXmXmXcX*XQ.a   l [ = ; U U r   .XBX~.=.,...B.~.oXfXCX7X9 X d   s.vXjXSXa.  + i _ = w ,.[.M   N ! L R # 6 L 6 5 e   2.mXmXmXmXmXmXmXmXmXmXmX",
"NXNXNXNXNXNXNXNXNXNXNXNXmXmX6X*X).  z { 2 + L [ . s gXSXg.; ; # $ 0 _ ..|.FX!.    9 3XjX,XkXoX^ %       o - B.sX. * [ [ R . p L &     +.-XNXmXmXmXmXmXmXmXmXmXmX",
"NXNXNXNXNXNXNXNXNXNXNXsXN.MXvX6X{.  v { i   n ~   -.GX3XN . p n l @   * } 5XBX>.n .XvX5X9X,X} i .   d M h . f MX!.  p =.f   l ( # h ;X;X6XNXmXmXmXmXmXmXmXmXmXmX",
"NXNXNXNXNXNXNXNXNXNXbXW.  N.NXNX[.  i { J . t i   XXrX. d /.aXVXkX}.#.  =.hX4XjXhXhX3X5X4XbX>.  @..XhXnXkX].d o yX:.  n 9 # ^ ^   $.=X=XcXmXmXmXmXmXmXmXmXmXmXmX",
"NXNXNXNXNXNXNXNXNXNXMX;Xd d cXNX-X  t ! P 6     d rX3 M nXFXMX:XfXDXBXa.  }.jX4X9X1X<X5XhX.X. 1.FXHX9X>XBXSXlX} - yX#.    5 ' R   %.cXbXbXmXmXmXmXmXmXmXmXmXmXmX",
"NXNXNXNXNXNXNXNXNXNXNX6X=.& ^.NXpXw + ' L 6   . `.1.q jXnXqX>.$ u $XbXDX) 8 kXfX1X1X,X9XVXd f DXCX$Xu ; :.qXjXnX5 %.SXB.9 # ^ _   E.bXNXNXNXNXNXmXmXmXmXmXmXmXmX",
"NXNXNXNXNXNXNXNXNXNXNXaX_.- m mXcX$.+ _ ! . g JXAX& V.CXhXa.      9 >XZXoX# `.DXjXlXbXDX].1 }.ZX#X6       s.lXnX!.& ;XHX=.  ` t   :XcXNXNXNXNXNXmXmXmXmXmXmXmXmX",
"NXNXNXNXNXNXNXNXNXNXNXNX*Xn 1 .XsX:X  ; ' % g yX2.9 ;XxXfXM   X     /.NX4Xn @.'./.!.!.`.@.d 5XBX(.  X X   M jXnXzX0 g.FX$.. u   2.6XNXNXNXNXNXNXmXmXmXmXmXmXmXmX",
"NXNXNXNXNXNXNXNXNXNXNXNXaXd.9 ` MX*X^.  9 1 O r @ h zXhXjX1.      , OXxXfX@.  y u t 0 u   M fXxX+X,       i.nXjXzXN f.MX#.    M =XgXNXNXNXNXNXNXmXmXmXmXmXmXmXmX",
"NXNXNXNXNXNXNXNXNXNXNXNXbX:Xf 5 OXaX=X)     s -XV.0 oXhX9XiX` X 9 /.SX4XkXh -.2XoXoX}.3X:.t iX9XjX/.1   *.fXuXfX#X9 (.nXd   = %.6XbXbXNXNXNXNXNXmXmXmXmXmXmXmXmX",
"NXNXNXNXNXNXNXNXNXNXNXNXMX=X>.6 -.NX7X) h h + 6XBX3 a.MX@X0XgX|.#XnX<XnX].X }.CX9X9X0XNXOXO `.bX<XvXoX}.gXfX@XnXV.$ dX2X. <.d.s VXNXbXNXNXNXNXNXmXmXmXmXmXmXmXmX",
"NXNXNXNXNXNXNXNXNXNXNXNXMXcXXXy r 6XNXW.s 3.  2.GX;.$ iXnX,X1XxX0X,XfXSXt n nX5X<X1X<XuXBX#.9 MXjX<X8X0XwX,XlXkX@ #.GXs.  T.s d.bXNXmXmXNXNXNXNXmXmXmXmXmXmXmXmX",
"NXNXNXNXNXNXNXNXNXNXNXNXNXNX6X*.6 :.MX=X:.+   - cXCX1 2 zXCXxXhX0XnXjX)   oXjXuX5X<X4XuXhX2XX f lXmXhX8X0XBXzX8 O SXBX0     %.*XbXmXmXmXNXNXNXNXmXmXmXmXmXmXmXmX",
"NXNXNXNXNXNXNXNXNXNXNXNXNXNXcX}.7 u pXpX=X[.:.  n GXSXj . >.}.oX}.g.9 + XXvX@XiXnXnXnXfX<XbX:X> 1 a.}.oX}.2.. 9 AXGX#.  <.].=X6XmXmXmXmXmXmXmXmXmXmXmXmXmXmXmXmX",
"NXNXNXNXNXNXNXNXNXNXNXNXNXNXbX=X>.u $.MX6X*X=X2.  M SXGXf.8 9 9 q q -.tXnX4X4X;.=.XX>.} 4X5XMXzX-.0 1 9 9 8 f.SXDX)   4.*X*X=XbXmXmXmXmXmXmXmXmXmXmXmXmXmXmXmXmX",
"NXNXNXNXNXNXNXNXNXNXNXNXNXNXmXaX].7 r tXmXaX=X*XE.  # (.BXSX;X_.'.3XnXhX,X5XuX~.n 6 M !.uX4X,X0XxXwX'.'.*XFXSX~.#   N.:X6XaXNXNXmXmXmXmXmXmXmXmXmXmXmXmXmXmXmXmX",
"NXNXNXNXNXNXNXNXNXNXNXNXNXNXmXnX[.$ 7 @.MXmXbX6X*XXXa   r f.:XMXDXMXjXfXhX9X4XnXnX#XfXnX4X8X0X0X0XxXZXZX-XN.d   a .X*X6XmXNXNXNXmXmXmXmXmXmXmXmXmXmXmXmXmXmXmXmX",
"NXNXNXNXNXNXNXNXmXmXmXmXmXmXmXmX6X9 c 3 :.MXNXbX7X*X=X_.X   . d $.N.~.oX2X3X4XfXlXlXlX5XwXwX=X.X'.s.=.d X     W.-X=X6XmXmXmXmXmXmXmXmXmXmXmXmXmXmXmXmXmXmXmXmXmX",
"NXNXNXNXNXNXNXNXmXmXmXmXmXmXmXmXdXa.7 q.+ zXNXNXNXaX=X*XM 3 B q .     . = s d n X.O.X.M d t 2         4 B q s -X=XgXmXmXmXmXmXmXmXmXmXmXmXmXmXmXmXmXmXmXmXmXmXmX",
"NXNXbXNXNXNXNXNXmXmXmXmXmXmXmXmXcX:X4 q.u 4.bXNXNXNXvXtX# V k.t.z.M...U Y z k 4 3 3 3 3 7 z Y U ..M.p.9.k.V - ;XmXmXmXmXmXmXmXmXmXmXmXmXmXmXmXmXmXmXmXmXmXmXmXmX",
"NXNXNXNXNXNXNXNXmXmXmXmXmXmXmXmXbX2Xa.v i.5 cXNXNXMXMXdX# 7.l.9.F.U.P.P.P.I.z.t.j.u.u.t.S.I.P.P.P.U.S.9.k.7.& ;XmXmXmXmXmXmXmXmXmXmXmXmXmXmXmXmXmXmXmXmXmXmXmXmX",
"NXNXNXNXNXNXNXNXmXmXmXmXmXmXmXmXmXcX:X6 T 7 M bXNXMXsX_.+ 0 0.8.w.Z.m.c.m.Z.0.8.y.y.y.8.e.A.A.A.m.A.w.8.8.k 9 pXmXmXmXmXmXmXmXmXmXmXmXmXmXmXmXmXmXmXmXmXmXmXmXmX",
"NXNXNXNXNXNXNXNXmXmXmXmXmXmXmXmXmXmX;Xd b q.* O.N.h >     . . & @ @ @ @ @ @ $ 3 % . 3 3 & . O o + + # & &   4.sXmXmXmXmXmXmXmXmXmXmXmXmXmXmXmXmXmXmXmXmXmXmXmXmX",
"NXNXNXNXNXNXNXNXmXmXmXmXmXmXmXmXmXmXgX<.c p.R             X X       & o.7.7.7.B . 6.6.X                     x.cXmXmXmXmXmXmXmXmXmXmXmXmXmXmXmXmXmXmXmXmXmXmXmXmX",
"NXNXNXNXNXNXNXNXmXmXmXmXmXmXmXmXmXmXvX{.. q.0., : +   + @ . X X X X q j.k.r.k.y.O &.C   + f R e     X X     C MXmXmXmXmXmXmXmXmXmXmXmXmXmXmXmXmXmXmXmXmXmXmXmXmX",
"mXmXmXmXmXmXmXmXmXmXmXmXmXmXmXmXNXNXNX5.  x p.d     X O o     X     0 h.u.u.9.y.,       9 J.&XB.      X     2 dXmXmXmXmXmXmXmXmXmXmXmXmXmXmXmXmXmXmXmXmXmXmXmXmX",
"mXmXmXmXmXmXmXmXmXmXmXmXmXmXmXmXNXNXNX%.. N  .w.7 +       +.&.      7 h.j.9.r.8.%   o   3 D.&X,.    : :       ;XmXmXmXmXmXmXmXmXmXmXmXmXmXmXmXmXmXmXmXmXmXmXmXmX",
"mXmXmXmXmXmXmXmXmXmXmXmXmXmXmXmXNXNXbXOX    v w.q.9   + `.tX6.X     v F.F.S.F.A.=   + + . z ,.;     X X       Q.mXmXmXmXmXmXmXmXmXmXmXmXmXmXmXmXmXmXmXmXmXmXmXmX",
"mXmXmXmXmXmXmXmXmXmXmXmXmXmXmXmXNXNXbX=X].< $ q.M.y +.;X*X-X<       z K.b.b.L.D.,       +       + o X X X     +.mXmXmXmXmXmXmXmXmXmXmXmXmXmXmXmXmXmXmXmXmXmXmXmX",
"mXmXmXmXmXmXmXmXmXmXmXmXmXmXmXmXmXmXmXgX*X=Xg 6 u $ ;X*XaX-X        z K.b.b.b.D.<   X X         X + X         < sXmXmXmXmXmXmXmXmXmXmXmXmXmXmXmXmXmXmXmXmXmXmXmX",
"mXmXmXmXmXmXmXmXmXmXmXmXmXmXmXmXmXmXmXmXaX*X-X1.M ].=XvXmX^.    X   W U.b.b.L.Y.9   X :       X X     O.4.<.<   sXmXmXmXmXmXmXmXmXmXmXmXmXmXmXmXmXmXmXmXmXmXmXmX",
"mXmXmXmXmXmXmXmXmXmXmXmXmXmXmXmXmXmXmXmXmXcX=X*X*X*XcXmXMX%.    .   d Z.m.c.m.n.6   o > X X : X   X   X.yX{.  %.vXNXmXmXmXmXmXmXmXmXmXmXmXmXmXmXmXmXmXmXmXmXmXmX",
"mXmXmXmXmXmXmXmXmXmXmXmXmXmXmXmXmXmXmXmXmXmXcX2X=XaXmXmXVXt   X X o .     .     . o X X : > > X         O   +.=XcXNXmXmXmXmXmXmXmXmXmXmXmXmXmXmXmXmXmXmXmXmXmXmX",
"mXmXmXmXmXmXmXmXmXmXmXmXmXmXmXmXmXmXmXmXmXmXmXmXbXmXmXmX-X        . X     X X X X   X       X X X   .       ].=XbXmXmXmXmXmXmXmXmXmXmXmXmXmXmXmXmXmXmXmXmXmXmXmX",
"mXmXmXmXmXmXmXmXmXmXmXmXmXmXmXmXmXmXmXmXmXmXmXmXmXmXmXmX_.        . o X . o : X         . @ . . .           ^.vXmXmXmXmXmXmXmXmXmXmXmXmXmXmXmXmXmXmXmXmXmXmXmXmX",
"mXmXmXmXmXmXmXmXmXmXmXmXmXmXmXmXmXmXmXmXmXmXmXmXmXmXmXmXdX[.[.[.h o X.X.X.m X.& j W.h O X.X.m X.X.o j [.[.].pXNXmXmXmXmXmXmXmXmXmXmXmXmXmXmXmXmXmXmXmXmXmXmXmXmX",
"mXmXmXmXmXmXmXmXmXmXmXmXmXmXmXmXmXmXmXmXmXmXmXmXmXmXmXmX6X*X=X=X%.o #.#.#.#.%., g GX@.. -.X.#.#.#.O #.*X=X*X7XNXmXmXmXmXmXmXmXmXmXmXmXmXmXmXmXmXmXmXmXmXmXmXmXmX",
"mXmXmXmXmXmXmXmXmXmXmXmXmXmXmXmXmXmXmXmXmXmXmXmXNXNXNXNXbXdX7X7X-.  O % % , %   g JXO.  O % o & %   &.pXdX7XcXmXmXmXmXmXmXmXmXmXmXmXmXmXmXmXmXmXmXmXmXmXmXmXmXmX",
"mXmXmXmXmXmXmXmXmXmXmXmXmXmXmXmXmXmXmXmXmXmXmXmXNXNXNXNXbXNXmXcXs               g JX@.              2 sXbXNXmXmXmXmXmXmXmXmXmXmXmXmXmXmXmXmXmXmXmXmXmXmXmXmXmXmX",
"mXmXmXmXmXmXmXmXmXmXmXmXmXmXmXmXmXmXmXmXmXmXmXmXNXNXMXMXbXZXMXg           .     g JXO.      X         2 MXmXmXmXmXmXmXmXmXmXmXmXmXmXmXmXmXmXmXmXmXmXmXmXmXmXmXmX",
"mXmXmXmXmXmXmXmXmXmXmXmXmXmXmXmXmXmXmXmXmXmXmXmXNXNXbXbXbXMXcXh                 g JXO.              + s MXmXmXmXmXmXmXmXmXmXmXmXmXmXmXmXmXmXmXmXmXmXmXmXmXmXmXmX",
"mXmXmXmXmXmXmXmXmXmXmXmXmXmXmXmXNXNXNXNXNXNXNXNXNXNXNXNXNXNXbX-XQ.2.3.3.3.3.2.2.`.*X[.2.3.d.3.x.3.2.W.:XbXmXmXmXmXmXmXmXmXmXmXmXmXmXmXmXmXmXmXmXmXmXmXmXmXmXmXmX",
"mXmXmXmXmXmXmXmXmXmXmXmXmXmXmXmXNXNXNXNXNXNXNXNXNXNXNXNXNXNXbX:X*X:X=X*X*X*X*X*X=X7X*X*X:X:X:X:X*X*X*X;XbXNXmXmXmXmXmXmXmXmXmXmXmXmXmXmXmXmXmXmXmXmXmXmXmXmXmXmX",
"mXmXmXmXmXmXmXmXmXmXmXmXmXmXmXmXNXNXNXNXNXNXNXNXNXNXNXNXNXNXbXcX6X6X6X6X6X6X6X6XaXmXgX6X6X6X6X6X6X6X6XbXNXNXNXNXmXmXmXmXmXmXmXmXmXmXmXmXmXmXmXmXmXmXmXmXmXmXmXmX",
"mXmXmXmXmXmXmXmXmXmXmXmXmXmXmXmXNXNXNXNXNXNXNXNXNXNXNXNXNXNXNXNXmXmXmXmXNXNXmXmXmXmXmXmXbXbXNXNXbXNXNXbXNXNXNXNXmXmXmXmXmXmXmXmXmXmXmXmXmXmXmXmXmXmXmXmXmXmXmXmX",
"mXmXmXmXmXmXmXmXmXmXmXmXmXmXmXmXNXNXNXNXNXNXNXNXNXNXNXNXNXNXNXNXmXmXmXmXmXmXmXmXmXmXmXmXNXNXNXNXNXNXNXNXNXNXNXNXmXmXmXmXmXmXmXmXmXmXmXmXmXmXmXmXmXmXmXmXmXmXmXmX",
"mXmXmXmXmXmXmXmXmXmXmXmXmXmXmXmXNXNXNXNXNXNXNXNXNXNXNXNXNXNXNXNXmXmXmXmXmXmXmXmXmXmXmXmXNXNXNXNXNXNXNXNXNXNXNXNXmXmXmXmXmXmXmXmXmXmXmXmXmXmXmXmXmXmXmXmXmXmXmXmX",
"mXmXmXmXmXmXmXmXmXmXmXmXmXmXmXmXNXNXNXNXNXNXNXNXNXNXNXNXNXNXNXNXmXmXmXmXmXmXmXmXmXmXmXmXNXNXNXNXNXNXNXNXNXNXNXNXmXmXmXmXmXmXmXmXmXmXmXmXmXmXmXmXmXmXmXmXmXmXmXmX",
"mXmXmXmXmXmXmXmXmXmXmXmXmXmXmXmXNXNXNXNXNXNXNXNXNXNXNXNXNXNXNXNXmXmXmXmXmXmXmXmXmXmXmXmXNXNXNXNXNXNXNXNXNXNXNXNXmXmXmXmXmXmXmXmXmXmXmXmXmXmXmXmXmXmXmXmXmXmXmXmX"
};
