/* XPM */
static char *_eb437b85c6f4849c04e84bd42e076a3FBtUnTqTdKCt4YVI[] = {
/* columns rows colors chars-per-pixel */
"80 80 54 1 ",
"  c #EBD4AF",
". c #EBD4B0",
"X c #EBD5B0",
"o c #ECD5B0",
"O c #ECD5B1",
"+ c #ECD6B1",
"@ c #ECD6B2",
"# c #EDD6B2",
"$ c #EDD7B3",
"% c #EED7B4",
"& c #EED8B4",
"* c #EED8B5",
"= c #EFD9B5",
"- c #EFD9B6",
"; c #EFDAB7",
": c #F0DAB7",
"> c #F0DBB9",
", c #F1DBB9",
"< c #F1DCBA",
"1 c #F1DCBB",
"2 c #F2DDBB",
"3 c #F2DDBC",
"4 c #F2DEBC",
"5 c #F3DEBD",
"6 c #F3DFBE",
"7 c #F4DFBF",
"8 c #F4E0BF",
"9 c #F5E1C1",
"0 c #F5E1C2",
"q c #F6E2C2",
"w c #F6E2C3",
"e c #F6E3C3",
"r c #F7E3C4",
"t c #F7E4C5",
"y c #F8E4C6",
"u c #F8E5C7",
"i c #F9E6C7",
"p c #F9E6C8",
"a c #F9E7C9",
"s c #FAE7C9",
"d c #FAE7CA",
"f c #FAE8CA",
"g c #FAE8CB",
"h c #FBE9CC",
"j c #FBE9CD",
"k c #FCEACD",
"l c #FCEACE",
"z c #FCEBCE",
"x c #FDEBCF",
"c c #FEECD0",
"v c #FEECD1",
"b c #FEEDD1",
"n c #FEEDD2",
"m c #FFEED3",
/* pixels */
"                                                                                ",
"                                                                                ",
"                                                                                ",
"                                                                                ",
"                                                                                ",
"                                                                                ",
"                                                                                ",
"                                                                                ",
"                                                                                ",
"                                                                                ",
"                                                                                ",
"                                                                                ",
"                                                                                ",
"                                                                                ",
"                                                                                ",
"                                                                                ",
"                                                                                ",
"                                                                                ",
"                                                                                ",
"                                                                                ",
"                                      fnnnnxnnn9                                ",
"                                     +mmnnmmmmn:                                ",
"                                     8mmmmmmmmf                                 ",
"                                     tmmmmmmmn2                                 ",
"                                     xmmmmmmmnX                                 ",
"                                    -mmmmmmmmt                                  ",
"                                    8mmmmmmmm-X                                 ",
"                                    immmmmmmx                                   ",
"                                    xmmmmmmm8                                   ",
"                                   ;mmmmmmmm#                                   ",
"                                   9mmmmmmmp       -                            ",
"                                   fmmmmmmm-   %3rxp                            ",
"                                   nnmmmmmn-2rxnnmm-                            ",
"                                  2mmmmmmmnnnnmmmm9                             ",
"                                  emmmmmmmmmmmmmnnX                             ",
"                                  fmmmmmmmmmmmmmm8                              ",
"                                 +mmmmmmmmmmmmmnn                               ",
"                                 2mmmmmmmmmmmmmn<                               ",
"                                 tmmmmmmnnmmmmmx                                ",
"                                 xmmmmmn9nmmmmm-                                ",
"                                +nmmmmrXXnmmmmf                                 ",
"                                8nmn9+X 9mmmmn%                                 ",
"                                xme#    jmmmmi                                  ",
"                                9+     #nmmmn#                                  ",
"                                X      2mmnm9X                                  ",
"                                       immnn                                    ",
"                                      Xnmmm3                                    ",
"                                      2nmmn                                     ",
"                                      tmmn<                                     ",
"                                      jmmf                                      ",
"                                     -mmm-                                      ",
"                                     8mmpX                                      ",
"                                     fnm%                                       ",
"                                    #mmt                                        ",
"                                    3nn#                                        ",
"                                    pn9                                         ",
"                                    nn#                                         ",
"                                   :n8                                          ",
"                                   pn                                           ",
"                                   n8                                           ",
"                                  2x                                            ",
"                                  93                                            ",
"                                 #3                                             ",
"                                 ##                                             ",
"                                                                                ",
"                                                                                ",
"                                                                                ",
"                                                                                ",
"                                                                                ",
"                                                                                ",
"                                                                                ",
"                                                                                ",
"                                                                                ",
"                                                                                ",
"                                                                                ",
"                                                                                ",
"                                                                                ",
"                                                                                ",
"                                                                                ",
"                                                                                "
};
