/* XPM */
static char *bbd6ec76acd640d4c89949b4154f1ce4kcnhRcaYzmE9Jgr4[] = {
/* columns rows colors chars-per-pixel */
"80 80 242 2 ",
"   c #1F0E0E",
".  c #171717",
"X  c #1C1414",
"o  c #161718",
"O  c #141A1A",
"+  c #1E1B19",
"@  c #250F0F",
"#  c #220F10",
"$  c #231413",
"%  c #281C16",
"&  c #391713",
"*  c #14211E",
"=  c #282517",
"-  c #37271B",
";  c #2E311A",
":  c #191D21",
">  c #2B1E24",
",  c #132321",
"<  c #142B24",
"1  c #1B2B24",
"2  c #0E332A",
"3  c #153528",
"4  c #133C2B",
"5  c #292227",
"6  c #23232C",
"7  c #2D2E29",
"8  c #272731",
"9  c #36343A",
"0  c #441412",
"q  c #491716",
"w  c #4D1915",
"e  c #521A17",
"r  c #541C19",
"t  c #5C1E1A",
"y  c #611F1B",
"u  c #44271B",
"i  c #5C231C",
"p  c #41311D",
"a  c #64221D",
"s  c #6A251D",
"d  c #6F311D",
"f  c #482522",
"g  c #51302B",
"h  c #6A2723",
"j  c #782A26",
"k  c #773725",
"l  c #6B3731",
"z  c #7B3334",
"x  c #2C431D",
"c  c #0A422F",
"v  c #17442C",
"b  c #195B2E",
"n  c #0C4933",
"m  c #144732",
"M  c #0F5236",
"N  c #135C35",
"B  c #155738",
"V  c #234729",
"C  c #26572B",
"Z  c #2C5533",
"A  c #1C642E",
"S  c #1A6737",
"D  c #1B643B",
"F  c #1E7139",
"G  c #23682E",
"H  c #28772B",
"J  c #2C7C2C",
"K  c #38792D",
"L  c #226C33",
"P  c #246836",
"I  c #366932",
"U  c #257334",
"Y  c #2C7434",
"T  c #2B7C33",
"R  c #25743A",
"E  c #357C32",
"W  c #5E4225",
"Q  c #794A24",
"!  c #74532B",
"~  c #467A32",
"^  c #3D3C43",
"/  c #543E44",
"(  c #6C3B43",
")  c #175D43",
"_  c #385644",
"`  c #1A6A43",
"'  c #1D7142",
"]  c #3B6043",
"[  c #4F4955",
"{  c #794852",
"}  c #497048",
"|  c #57596E",
" . c #6E5E6B",
".. c #706977",
"X. c #842A27",
"o. c #9D2529",
"O. c #96292B",
"+. c #95382A",
"@. c #833332",
"#. c #8B3636",
"$. c #973538",
"%. c #943B3C",
"&. c #BA2F38",
"*. c #A53939",
"=. c #B6343C",
"-. c #BB323B",
";. c #C4343B",
":. c #CA383C",
">. c #D7373A",
",. c #DB3B3D",
"<. c #8F4C1D",
"1. c #874925",
"2. c #8C5328",
"3. c #965828",
"4. c #915231",
"5. c #A75825",
"6. c #AF4F31",
"7. c #A85937",
"8. c #B25A3F",
"9. c #966832",
"0. c #A66329",
"q. c #AE6C2B",
"w. c #B76B3D",
"e. c #A97637",
"r. c #B77937",
"t. c #DD413F",
"y. c #C47C2C",
"u. c #963C42",
"i. c #A73D45",
"p. c #AC3D44",
"a. c #B53C43",
"s. c #B93E45",
"d. c #C93C41",
"f. c #D73F41",
"g. c #AB4247",
"h. c #B14445",
"j. c #B34C45",
"k. c #B5454A",
"l. c #B9444A",
"z. c #B8494A",
"x. c #B45343",
"c. c #B65B43",
"v. c #AF4D55",
"b. c #B46941",
"n. c #9A5F62",
"m. c #CB4C4F",
"M. c #D84443",
"N. c #E64C45",
"B. c #E94C45",
"V. c #E54F48",
"C. c #E4524B",
"Z. c #ED6B5A",
"A. c #F26756",
"S. c #F36D5A",
"D. c #F0715E",
"F. c #D05F64",
"G. c #C77076",
"H. c #ED7260",
"J. c #2D822A",
"K. c #358826",
"L. c #33842C",
"P. c #3B8C2B",
"I. c #3C9227",
"U. c #2F8637",
"Y. c #338333",
"T. c #398C31",
"R. c #58AD1F",
"E. c #71BB1E",
"W. c #448B28",
"Q. c #449B25",
"!. c #43942C",
"~. c #489928",
"^. c #579A28",
"/. c #598B35",
"(. c #439430",
"). c #649630",
"_. c #4CA225",
"`. c #57A726",
"'. c #56A929",
"]. c #58A631",
"[. c #66AC28",
"{. c #69B327",
"}. c #74B52F",
"|. c #719D48",
" X c #BB8237",
".X c #B6893D",
"XX c #B98A3A",
"oX c #86BA3A",
"OX c #C7933B",
"+X c #D2943B",
"@X c #D1A13E",
"#X c #9BCC27",
"$X c #93C931",
"%X c #AD8D4E",
"&X c #BA8C45",
"*X c #BA9649",
"=X c #9DAB56",
"-X c #CA9948",
";X c #D2AD4F",
":X c #CBAA59",
">X c #C7AC61",
",X c #9FCD4C",
"<X c #EDC65D",
"1X c #F2CB5C",
"2X c #DDC577",
"3X c #E5C76A",
"4X c #E3CA75",
"5X c #57658A",
"6X c #5C698D",
"7X c #75778C",
"8X c #667597",
"9X c #907789",
"0X c #C47E86",
"qX c #7B829F",
"wX c #7789AB",
"eX c #8B869B",
"rX c #8F94AB",
"tX c #8C93AC",
"yX c #899AB8",
"uX c #A991A3",
"iX c #92A2BC",
"pX c #CE9095",
"aX c #D6A4A9",
"sX c #D0AAB0",
"dX c #8EA4C3",
"fX c #8FA8C8",
"gX c #90A6C5",
"hX c #95AAC7",
"jX c #9EB3CD",
"kX c #A3B3CB",
"lX c #ADBACC",
"zX c #B8C8D9",
"xX c #CBD0D9",
"cX c #E4D1D3",
"vX c #C9D8E4",
"bX c #D3DDE4",
"nX c #D4E5ED",
"mX c #D9E7ED",
"MX c #DDEBF1",
"NX c #E5F3F6",
"BX c #E9F0F1",
"VX c #EEFCFD",
/* pixels */
". . . . . . . . . . . . . . . . . . . . . . . . . . . . . . . . . . . . . . . . . . . . . . . . . . . . . . . . . . . . . . . . . . . . . . . . . . . . . . . . ",
". . . . . . . . . . . . . . . . . . . . . . . . . . . . . . . . . . . . . . . . . . . . . . . . . . . . . . . . . . . . . . . . . . . . . . . . . . . . . . . . ",
". . . . . . . . . . . . . . . . . . . . . . . . . . . . . . . . . . . . . . . . . . . . . . . . . . . . . . . . . . . . . . . . . . . . . . . . . . . . . . . . ",
". . . . . . . . . . . . . . . . . . . . . . . . . . . . . . . . . . . . . . . . . . . . . . . . . . . . . . . . . + . . . . . . . . . . . . . . . . . . . . . . ",
". . . . . . . . . . . . . . . . . . . . . . . . . . . . . . . . . . . . . . . . . . . . . . . . . . . . . . . . . . . . . . . . . . . . . . . . . . . . . . . . ",
". . . . . . . . . . . . . . . . . . . . . . . . . . . . . . . . . . . . . . . . . . . . . . . . . . . . . . . . . . . . . . . . . . . . . . . . . . . . . . . . ",
". . . . . . . . . . . . . . . . . . . . . . . . . . . . . . . . . . . . . . . . . . . . . . . . . . . . . . . . . . . . . . . . . . . . . . . . . . . . . . . . ",
". . . . . . . . . . . . . . . . . . . . . . . . . . . . . . . . . . . . . . . . . . . . . . . . . . . . . . . . . . . . . . . . . . . . . . . . . . . . . . . . ",
". . . . . . . . . . . . . . . . . . . . . . . . . . . . . . . . . . . . . . . . . . . . . . . . . . . . . . . . . . . . . . . . . . . . . . . . . . . . . . . . ",
". . . . . . . . . . . . . . . . . . . . . . . . . . . . . . . . . . . . . . . . . . . . . . . . . . . . . . . . . . . . . . . . . . . . . . . . . . . . . . . . ",
". . . . . . . . . . . . . . . . . . . . . . . . . . . . . . . . . . . . . . . . . . . . . . . . . . . . . . . . . . . . . . . . . . . . . . . . . . . . . . . . ",
". . . . . . . . . . . . . . . . . . . . . . . . . . . . . . . . . . . . . . . . . . . . . . . . . . . . . . . . . . . . . . . . . . . . . . . . . . . . . . . o ",
". . . . . . . . . . X X . . . . . . . . . . . . . . . . . . . . . . . . . . . . . . . . . . . . . . . . . . . . . . . . . . . . . . . . o o . . . . . . . . . . ",
". . . . . . . . . . . * . . . . . . . . . . . . . . . . . . . . . . . . . . . . . . . . . . . . . . . . . . . . . . . . . + . . . * . . o o . . . . . . . . . . ",
". . . . . . . . . X ; p p ; p p p - X . . . . . . X . . X . X $ . . . . . . . . . . . . . . . . . . . . X . . . . . . . . X = - p p p ; - - . . . . . . . . . . ",
". . . . . . . . . W *X-X-X@X-X@X-X! $ o . . X X X X X X X X $ @ X X X $ X X X $ X X X X $ X X X X X X X X X X X X X . . . X W *X*X*X-X*X*X*X!   . . . . . . . . ",
". . . . . . . . . 2.*XXXXXXXXXXXXXW ; + % % t X.o.o.o.o.o.o.o.o.o.o.o.o.o.o.o.o.o.o.o.o.o.o.o.o.O.o.O.O.O.O.O.O.j t & % $ % g e.e..Xe.e.e.%X9.. o . . . . . . . ",
". . . . . . . . + 9.XXXXXX@XOXXXXX! XX.XXXOXOX<.;.,.>.>.>.,.,.,.,.,.,.,.,.,.,.,.,.,.f.f.f.f.f.f.M.f.f.f.M.M.M.m.+.b.*X&X*X*X{ 9..X&X%X.Xe..Xe.= o . . . . . . . ",
". . . . . . . . = *X;X;X;X<X;X<XXX.X<X<X<X<X<XOXo.B.B.B.B.B.B.B.B.B.B.B.B.B.V.V.B.C.V.V.C.C.C.C.C.C.C.C.C.C.C.z.b.3X3X3X3X3X>X%X>X:X:X:X:X>X>X- o . . . . . . . ",
". . . . . . . . ; >X4X3X4X4X1X3X:X*X<X<X<X<X<X-X6.A.A.A.A.A.A.S.A.A.S.S.S.S.S.S.S.S.S.D.D.D.D.H.H.D.D.H.H.H.H.z.%X4X3X3X>X2X>X=X4X4X4X4X2X2X2X7 o . . . . . . . ",
". . . . . . . . - >X3X3X3X3X1X1XXXy.+X+X+X+X@X+X*.A.A.A.A.A.A.A.A.A.A.A.S.S.A.S.S.S.S.S.S.Z.S.Z.D.S.H.Z.Z.H.H.j.r.-X:X-X-X;X&X%X2X2X2X2X2X2X2XW o o . . . . . . ",
". . . . . . . . = *X;X;X;X;X;X@XXX5.+Xy.y.y.y.5.+.N.t.B.B.B.B.B.B.B.B.B.N.B.N.N.V.V.V.V.V.V.C.V.C.C.C.C.C.m.C.6.3.r.r.r.r.r.9.e.;X:X;X:X:X:X:Xp . o . . . . . . ",
". . . . . . . . -  XOXOX@XOX+X@X X<.y.5.5.5.q.<.O.M.,.,.,.,.,.,.t.t.t.t.M.t.t.f.t.M.f.M.f.f.f.f.M.M.M.M.M.m.M.*.k 5.0.0.9.9.4.9.&X&X&X&X&X&X&Xu . . . . . . . . ",
". . . . . . . . = 9. Xr.r.r.q. X9.<.5.5.5.5.5.d o.f.,.,.,.,.>.>.,.,.,.t.,.,.,.,.f.,.f.f.f.f.f.f.f.M.M.M.M.M.m.*.d 3.5.3.7.4.4.4.e.e.e.e.e.9.e.- . . . . . . . . ",
". . . . . . . . % <.9.3.0.3.0.0.<.<.0.5.5.5.5.s O.t.>.>.>.>.>.:.>.>.>.>.:.>.:.:.d.d.>.d.>.d.d.d.d.d.d.d.d.d.m.*.i 1.7.5.4.7.2.Q 3.3.9.2.3.2.2.% . . . . . . . . ",
". . . . . . . O X Q 3.<.<.3.<.<.Q 1.q.5.5.5.+.s X.:.-.F.F.f.d.d.;.;.;.;.;.:.:.:.;.d.;.d.d.;.d.d.d.d.d.F.G.m.s.$.s k 5.7.7.7.4.Q 2.2.2.2.2.2.1.% . . . . . . . . ",
". . . . . . . . X W 3.<.3.<.3.<.<.W k k d X.s t O.s.-.uXmXBXcXsXpXG.f.;.;.;.;.;.d.&.&.a.&.a.d.pXaXcXcXBXxXn.a.O.i a d k k l l l 2.2.2.2.2.2.Q X . . . . . . . . ",
". . . . . . . . . d 0.9.3.0.3.0.5.g %     0 0 w X.d.6.n.kXBXVXVXVXVXaX;.&.&.&.&.&.&.&.&.&.d.cXNXVXVXVXvXhXn.a.O.w & & @ . $ g 2.3.4.2.2.9.4.Q . . . . . . . . . ",
". . . . . . . . . = Q Q Q Q Q Q Q g $ .   & 0 w X.-.&.n.fXjXMXVXVXVXMXpX&.&.=.&.&.&.a.&.l.sXVXVXVXVXvXgXdXv.p.#.q 0 & @ . X u Q Q Q Q Q Q Q u . . . . . . . . . ",
". . . . . . . . .   X X X % X X X $ . o # 0 0 w X.=.&.n.dXdXkXMXVXVXMXbXG.=.=.=.&.a.&.a.sXmXBXVXVXxXhXgXtXi.p.O.w 0 0 @ o o X . X X o X o X X . . . o . . . . . ",
". . . . . . . . . . . . O O . o * O _ ] X & 0 q X.-.-.v.dXdXdXkXMXVXNXnXvX0X=.=.a.a.p.sXnXnXNXVXvXgXgXgXeXa.p.$.r 0 0 $ _ [ < . o o O O o o . . . . . . . . . . ",
". . . . . . . . . . . . Z ~ , O 3 ).,X|.% 0 q w @.a.a.p.yXdXgXdXkXMXBXnXnXxXG.=.a.p.pXnXnXMXVXvXhXdXgXfX9Xp.p.$.r 0 & $ ).,X).4 o * I _ o o . . . . . . . . . . ",
". . . . . . . . . . . 6 =X$XC * ).$X$X[.= 0 q w X.a.a.p.7XfXgXgXdXjXbXMXnXnXxXG.=.pXmXnXnXMXvXgXdXgXgXyXn.p.p.#.e 0 0 % ).oX$X[.3 V $X=X4 . o . . . . . . . . o ",
". . . . . . . . . + . Z $X#X[.K E.}.[.[.= 0 w e X.a.a.a.#.n.dXgXgXgXjXvXnXnXMXcXsXMXnXnXnXzXhXdXgXgXyX{ $.a.a.$.r q 0 % ^.E.}.E.~ ^.$X#X~ o o o . . . . . . . . ",
". . . . . . . . . . O /.#X}.E.R.[.`.`.^.= q e r @.a.s.s.a.O. .iXgXgXgXjXvXnXnXNXVXNXvXnXzXhXfXgXhXrX{ *.a.h.h.#.r q q $ W.`.^.[.[.E.E.#X).: X o . . . . . . . . ",
". . . . . . . o . . * ).E.[.R.R._.!._.W.+ q r r @.a.a.a.s.a.*. .yXfXgXdXjXvXmXNXNXMXnXzXfXfXdXfXtX( *.h.k.k.g.%.r q q $ K `.~._.R.`.[.E.[.1 o X . . . . . . . . ",
". . . . o o o o * , < ^.E.R._._.I.I.Q.C X w r r @.p.h.s.s.s.s.$. .iXfXdXdXlXnXMXNXmXzXdXdXdXhXeX( a.k.k.s.g.g.%.r e q $ C W.I.I.Q._.R.E.`.2 * < o . o o o X . . ",
". . . . o o . o } /.I ~.R.R.Q.W.K.W.^.v   w t t @.a.j.s.l.s.l.s.*.{ wXyXfXxXnXnXMXzXdXdXdXfX9X( a.s.s.l.l.j.j.%.i e w @ 3 ^.W.K.I.Q.`.R.`.I /.} : . o X . . . . ",
". . . . o o O : |.$X{.`.R.Q.I.K.W.}.{.C X e t i @.h.j.l.l.l.l.v.l.*.{ tXlXxXvXvXzXdXyXyXwXqX#.h.l.l.l.l.l.j.j.%.t e w @ V [.E.W.K.I.Q.R.R.{.$X|.: o o o . . . . ",
". . . . o o o O /.$X}.R.R.Q.K.W.[.{.{.K X e t i @.j.j.l.l.l.l.v.l.l.g.uXlXlXzXkXwXwXwXyXiX9Xz.z.l.l.l.l.l.j.j.%.i r w @ I [.[.{.W.K.Q._.`.{.#X).* o o o . . . . ",
". . . . . . . o I $XR.Q.Q.I.K.^.[.^.[.W.+ e t y @.j.x.k.l.l.g.n.v.v.eXiXgXkXyX8XwXtXwXdXiXrXG.z.G.n.v.z.k.x.j.u.i t e $ K ].^.[.R.K K.Q.Q.R.E.~ O . . . . . . . ",
". . . . . . o o v {.R._.K.K.K.R.^.~.].W.+ e y a @.g.x.j.k.l.{ [ n.eXrXrXdX9X8X8X8X8X8XtXrXrXwX9X| [ u.k.z.c.z.%.i t r $ ~ `.~.^.R.W.K.K.Q.R.E.C . . . . . . . . ",
". . . . . . . . * !.R._.K.K Q.R.Q.!.~.K $ e a h @.h.x.j.l.k.( ^ _ ..7XeXtX5X5X6X6X6X5X8XrXeX7X| _ ^ u.k.z.c.k.u.h t r $ I ~.!.!.R.Q.H K.Q.R.W.1 . . . . . . . . ",
". . . . . . . . O b Q._.K.J Q.Q.P.W.!.Y + e y h z g.j.c.k.l.z 9 9 [ ..9XrX5X5X5X| 5X5X8XrX....^ ^ g i.z.x.x.z.%.i y r $ C (.I.!.Q._.H K.Q._.C . . . . . . . . . ",
". . . . . . . < Z Z P.I.I.H Q.P.P.P.T.v   t h a @.v.k.x.z.l.s.g 9 | tX7XeX8X| / @.[ 5X7X9X7XeX[ 8 z s.l.c.z.z.%.a a t @ v Y.P.P.P.!.J K.I.I.Z v < . . . . . . . ",
". . . . . . o ] |.[.'.Q.K.J I.L.L.L.U ,   t a h @.g.k.j.c.l.u.6 1 [ ..| ..7Xl i.s.$.[ 7X..| 6X^ o g v.c.x.l.z.u.h a t @ , G L.L.L.I.J.K.Q.`.].}.} O . . . . . . ",
". . . . o o . V oX}.~.Q.I.K.L.(.].(.b : @ t s h @.g.g.g.c.7.f 8 6 5 ^ 8 ^ ..v.z.s.v.n. .^ 9 9 + 6 6 l c.z.z.k.%.h s t @ * m T.].W.L.J.K.K.~.}.oXZ o . . . . . . ",
". . + o o o o : /.E.`.!.K.J.J (.].~.(.P X y s j @.g.g.g.v.g 6 8 6 : & ^ ^ [ 9Xz.l.v.7X[ ^ 9 $ 6 8 8 8 ( l.l.k.$.h s y $ b T.].].~.H L.K.I.^.{.).< . . . . . . . ",
"o . . . . . . o V [.'._.I.J.T P.].T.(.T.; i s j @.h.p.g.l 6 6 8 5 f #.j g [ ( k.k.i./ / g @.X.- 6 6 6 8 u.k.h.%.h h y % K.!.(._.!.H H K.Q._.[.C . . . . . . . . ",
". . . . . o . . 1 I '.Q.I.K.H P._.T.T.U.; t s j z *.i.z 6 6 6 6 i u.l.g.@.j i.k.z.h.$.z u.l.l.#.f 6 8 6 9 u.k.%.j h a % K Y.T.(.I.H K.I.Q._.~ 1 . . . . . . . . ",
". . . . . . . . o 1 T.Q.I.K.H J I.T.Y.T ; t h j z i.i.f 8 6 5 k 7.k.k.l.k.k.z.l.k.k.z.l.s.l.l.c.9.f 5 6 6 z j.%.h s a = H Y.T.(.J.H K.K.Q.P.3 . . . . . . . . . ",
". . . . . . . . o o 3 E I.K.J.H T.T.T T = t s j z u.i.z % 5 j e.r.b.z.k.k.k.k.z.k.z.l.k.l.k.c.r.r.g.i > w %.h.#.j s y & L U.T.T.H J.J.I.J.v . . . . . . . . . . ",
". . . . . . . . . + 3 E I.I.U.H L.T.J U V & a X.j #.i.i.j j p.b. X Xb.l.k.l.z.l.l.k.z.l.l.b.OXOXr.l.i.j $.k.$.j X.s & ; U T T.J.H J P.!.Y.v o . . . . . . . . . ",
". . . . . . . . . , I ].(.T.Y.T U H J.U H x & a X.j @.*.i.i.p.b. X X Xc.k.l.k.k.z.k.l.k.c.r.r.r.w.l.k.k.h.#.j j s & x Y L J.J U Y J L.(.].K * . . . . . . . . . ",
". . . . . . . . . o 4 ]._.P.J.T U L A L L Y.C & y X.j j u.i.i.c.r.w. Xr.v.l.k.z.l.k.z.k.b.r.b.r.w.l.k.i.@.j X.a & x Y.L U L L U J Y.P.~.].Z o . . . . . . . . . ",
". . . . . . . . . . * I ].P.T.J.T H A A A U U.G % t j X.X.u.k.w.r.j.w.OXc.l.k.k.k.k.l.c.OX Xc.b.y.x.g.z j X.a & C U.U A A A L H L.Y.P.^.K * . . . . . . . . . . ",
". . . . . . . . . . . < K !.L.J.H F H A N b R T G = e j X.j 4.r.x.k.b. Xw.z.k.z.k.k.l.w. Xw.l.k.r.9.k X.X.t % C U.U b b b A H H U.J.I.K 3 . . . . . O . . . . . ",
". . . . . . . . . . . . < G J.Y.H U A A A A A F F A = w j h & z i.p.j.w. Xc.k.k.k.k.j.r.r.c.s.a.#.q e j e = b F F S A P A L U U J.L.Y 3 . . . . . . + . . . . . ",
". . . . . . . . . . . . o , v A A Y Y R R R D N M n n * & $ 2 : l i.g.b.r.w.k.k.k.k.8.r.w.z.h.z % < X & $ v M M N S L R Y Y H F A v < . . . . . . . . . . . . . ",
". . . . . . . . . . . . . o O < Z Y Y Y Y L L S A n c 4 3 v n 2 : i u.x.r.r.k.h.k.k.e.r.b.h.h 1 4 n v 3 c c n N S L R Y Y Y Y G 2 . . . . . . . . . . . . . . . ",
". . . . . . . . . . . . . . . 4 E Y.Y.Y.U.H U S N M B S D B B ) c 3 f %.e.e.8.a.h.z.e.r.6.g 2 n M B ` ) D B B N F F R T E Y.E Y.v . . . . . . . . . . . . . . . ",
". . . . . . . . . . . . . . . * C J Y.T R U F S N A D D ` S S N M ) m 7 1.e.c.a.g.8.e.3.> 4 ) M B D S S D ` D N A F U T T Y.E P < . . . . . . . . . . . . . . . ",
". . . . . . . . . . . . . . . . O 4 b U F F S S D ` P F F F S M B ) ` N 7 Q 7.g.g.7.1.- B ) ) ) M D F F R F P S N S F U U P 4 , . . . . . . . . . . . . . . . . ",
". . . . . . . . . . . . . . . . . . * < 3 v 2 4 P R R R F ` D B ) ` ' ` S ; g u.g.l 7 ) ` ' ` ) N D F ' R R R F n 2 4 2 < : o . . . . . . . . . . . . . . . . . ",
". . . . . . . . . . . . . . . . . . . . . . . 4 P R R R F ` D M B ' ' ' ' ` 3 w g 1 D ` ' ` ' ) M B S F ' R R P 4 . . . . . . . . . . . . . . . . . . . . . . . ",
". . . . . . . . . . . . . . . . . . . . . . . O < 2 4 4 2 2 2 , 4 B B m 4 2 * o X O 2 c m B B m , < 2 4 v 4 2 < , . . . . . . . . . . . . . . . . . . . . . . . ",
". . . . . . . . . . . . . . . . . . . . . . . . . . . . o . o o O O O O O o o . . . . o O O O . O o o o o o . . . . . . . . . . . . . . . . . . . . . . . . . . ",
". . . . . . . . . . . . . . . . . . . . . . . . . . . . . . o o . . . . o o o . . . . . . . . . o o o o . . . . . . . . . . . . . . . . . . . . . . . . . . . . ",
". . . . . . . . . . . . . . . . . . . . . . . . . . . . . . . . . . . . . . . . . . . . . . . . . . . . . . . . . . . . . . . . . . . . . . . . . . . . . . . . ",
". . . . . . . . . + . . . . . . . . . . . . . . . . . . . . . . . . . . . . . . . . . . . . . . . . . . . . . . . . . . . . . . . . . . . . . . . . . . . . . . ",
". . . . . . . . . O . . . . . . . . . . . . . . . . . . . . . . . . . . . . . . . . . . . . . . . . . . . . . . . . . . . . . . . . . . . . . . . . . . . . . . ",
". . . . . . . . . . . . . . . . . . . . . . . . . . . . . . . . . . . . . . . . . . . . . . . . . . . . . . . . . . . . . . . . . . . . . . . . . . . . . . . . ",
". . . . . . . . . . . . . . . . . . . . . . . . . . . . . . . . . . . . . . . . . . . . . . . . . . . . . . . . . . . . . . . . . . . . . . . . . . . . . . . . ",
". . . . . . . . . . O . . . . . . . . . . . . . . . . . . . . . . . . . . . . . . . . . . . . . . . . . . . . . . . . . . . . . . . . . . . . . . . . . . . . . ",
". . . . . . . . . . . . . . . . . . . . . . . . . . . . . . . . . . . . . . . . . . . . . . . . . . . . . . . . . . . . . . . . . . . . . . . . . . . . . . . . ",
". . . . . . . . . . . . . . . . . . . . . . . . . . . . . . . . . . . . . . . . . . . . . . . . . . . . . . . . . . . . . . . . . . . . . + O . . . . . . . . . ",
". . . . . . . . . . . . . . . . . . . . . . . . . . . . . . . . . . . . . . . . . . . . . . . . . . . . . . . . . . . . . . . . . . . . . . . . . . . . . . . . ",
". . . . . . . . . . . . . . . . . . . . . . . . . . . . . . . . . . . . . . . . . . . . . . . . . . . . . . . . . . . . . . . . . . . . . . . . . . . . . . . . ",
". . . . . . . . . . . . . . . . . . . . . . . . . . . . . . . . . . . . . . . . . . . . . . . . . . . . . . . . . . . . . . . . . . . . . . . . . . . . . . . . ",
". . . . . . . . . . . . . . . . . . . . . . . . . . . . . . . . . . . . . . . . . . . . . . . . . . . . . . . . . . . . . . . . . . . . . . . . . . . . . . . . "
};
